<svg xmlns="http://www.w3.org/2000/svg" viewBox="0 0 158.4 132.64"><title>Gold</title><g id="Layer_2" data-name="Layer 2"><g id="Layer_3" data-name="Layer 3"><path d="M24.92,20.81C12.29,28.18-6.21,87.17,2.05,100.11c16,8.43,69.15-4.22,69.15-4.22l.84-43Z" style="fill:#f9b23e"/><path d="M158.05,93.37c-1.67,7.59-16.86,27-31.19,32A105,105,0,0,1,113.34,129c-14.69,3-33.53,4.54-47.19,3.18-8.44-.85-59.75-26.61-64.1-32C2.05,95,29,95,29,95s16-23.6,19.76-23.3,91.54-21.37,101.84-14.33C155,62.77,159.74,85.78,158.05,93.37Z" style="fill:#cc8d32"/><path d="M150.64,57.41s-12,13.49-16.52,15.2c-16.81,6.47-74.52-1.07-84.32-.89l-1,0L24.92,20.81S64.22,2.08,71.07.12A6.25,6.25,0,0,1,74.2.33C91.42,5.06,150.64,57.41,150.64,57.41Z" style="fill:#f9bd67"/><path d="M34.22,19.87c2.44-1.56,24-10.22,28.22-13.12S72.38,1.88,74.2.33A6.25,6.25,0,0,0,71.07.12c-6.85,2-46.15,20.69-46.15,20.69S38.84,59.88,48.8,71.74c.58.23,1.13-.95,1-1.82-.28-2.37-3.45-8.19-4.92-10.48-2-3.11-12.89-29.79-14-33.13S31.77,21.42,34.22,19.87Z" style="fill:#f8eee4"/><path d="M113.34,129c-14.69,3-33.53,4.54-47.19,3.18-8.44-.85-59.75-26.61-64.1-32C2.05,95,29,95,29,95s55.75,29.4,62.49,31.89C97.36,129.07,108.18,128.32,113.34,129Z" style="fill:#995d0e"/></g></g></svg>