<svg xmlns="http://www.w3.org/2000/svg" viewBox="0 0 728.58 355.79"><title>Rockpile</title><g style="isolation:isolate"><g id="Layer_2" data-name="Layer 2"><g id="Layer_3" data-name="Layer 3"><path d="M622.06,317a34,34,0,0,1,10.48,4.66S634.09,331,629,331s-28.72,1.56-32.21-1.55-8.15-6.6-8.15-6.6L601.49,317Z" style="fill:#bbb"/><path d="M553.75,340.27l8.54,6.21s-1.56,5-3.89,5.82-22.12,3.49-22.12,3.49l-17.08-6.21s0-8.53,3.88-8.92S553.75,340.27,553.75,340.27Z" style="fill:#bbb"/><path d="M476.9,330.57c1.16-.39,9.7,4.27,9.7,4.27s1.16,2.32-4.66,4.65-15.91,2.72-20.18,2.72-9.32-6.21-9.32-6.21l10.87-3.49C464.48,332.12,476.9,330.57,476.9,330.57Z" style="fill:#bbb"/><path d="M214.52,315c5.82,0,13.2,10.87,13.2,10.87L211,332.12s-21,5-23.68,3.88-18.63-9.7-18.63-9.7l1.55-6.6,18.24-3.88Z" style="fill:#bbb"/><path d="M155.91,331l8.15,5.44s3.49,3.1,0,4.66S150.87,343,150.87,343l-19.41-2.33L127.19,336l9.7-7Z" style="fill:#bbb"/><polygon points="115.93 307.28 128.35 310 126.41 316.59 117.87 320.48 109.33 320.09 100.8 315.82 107.01 310.77 115.93 307.28" style="fill:#bbb"/><polygon points="62.37 322.8 72.85 326.69 73.63 335.22 64.7 340.66 48.01 338.72 34.04 337.16 29.77 332.51 35.59 324.74 62.37 322.8" style="fill:#bbb"/><path d="M661,247c7.9,0,27.22,13.17,31.6,13.17s7,12.29,7,12.29l16.68,6.14,12.28,14.93s-29,7.9-35.11,11.41-44.77.88-44.77.88-76,8.91-81.63,10.53-67.59,12.29-67.59,12.29l-72,1.76-29.84-7.9-105.34,7.9-57.06-9.66-46.52-19.31-38.62,5.26L84.27,297l-61.45,7L.88,290,0,279.48l34.23-17.55,185.22-32.48,98.32-8.78,150.1,17.56Z" style="fill:#484848"/><path d="M57.32,254.27c-1.61,0-19.23,16-19.23,16l-.8,6.81,7.61,3.21,9.21-2,12.82,6.41,50.87,2.41,22.83-4,11.22,1.2,21.23,5.21,28.44-7.61,16.42.4,20.43-6.41L259.2,223l-102.95-2.81Z" style="fill:#272727"/><path d="M239.09,284.7c-1.51,0-10.57,4.52-10.57,4.52l.5,9.57,20.13,11.07,59.39,6.54,54.35-2.52,37.23-7,22.15,7,36.23,1,26.17,3.52,32.21-10.57,20.13-9,27.17.5,29.69-6L616,284.7l33.72-3,21.64-.51,9.06-8.05L653.25,253,426.8,242.42Z" style="fill:#272727"/><polygon points="67.96 184.96 97.85 228 140.89 232.78 178.55 252.51 227.57 217.84 243.71 168.82 200.67 121.6 140.7 123.96 79.92 146.7 67.96 184.96" style="fill:#b8b8b8"/><polygon points="87.69 262.07 97.85 228 82.91 228 64.97 241.75 87.69 262.07" style="fill:#b8b8b8"/><polygon points="67.96 184.96 60.79 213.65 64.97 241.75 80.52 238.76 97.85 228 67.96 184.96" style="fill:#b8b8b8"/><polygon points="183.93 280.6 178.55 252.51 140.89 232.78 97.85 228 87.69 262.07 152.25 281.2 183.93 280.6" style="fill:#8a8a8a"/><path d="M249,216.65l-19.62,41.24-45.42,22.72-4.77-24.88-.62-3.22,31.14-40a.49.49,0,0,1,.07-.11l33.94-43.59,3.92,35.54Z" style="fill:#5f5f5f"/><polygon points="140.89 232.78 152.86 166.68 67.96 184.96 97.85 228 140.89 232.78" style="fill:#b8b8b8"/><path d="M200.67,121.6l-47.81,45.08s-40.12,17-44.51,17S68,185,68,185l12-38.26L140.7,124Z" style="fill:#dbdbdb"/><path d="M106,132.38c11.19-4.61,35.19-13.13,43.29-12.29,3.16.33,24.2-2.15,33.41-1.91,14.39.39,18,3.42,18,3.42s-42.43,6-50.81,6.31-42.46,11.17-45.81,12.85-24.13,5.94-24.13,5.94S101.26,134.34,106,132.38Z" style="fill:#b8b8b8"/><path d="M155.31,240.34c6,2.24,19,7.55,20.93,7.55s6.12-5.73,9.56-8.79,23.71-27.93,27.16-31.37c0,0-13.39,19.51-16.45,24.48s-8.28,13.68-10.76,16.59c-2.23,2.63-5.25,9-8.31,6.29S157.6,243.4,155.31,240.34Z" style="fill:#b8b8b8"/><path d="M247.59,216.65,228,257.89l-45.42,22.72c7.64-6,35.72-22.61,37.21-24.75s15.6-21.58,17.11-26.49,8.11-13.46,8.54-18.16c.17-1.83.49-4.26.82-6.85Z" style="fill:#424242"/><path d="M161.55,320.12c.45.68,2.12,5.73,2.12,5.73s.19,4.84-.22,6.32-3.22,5.71-4.21,6.39-1.19.63-2.9.69,1.11-3.69,1.11-3.69l2.71-11.88Z" style="fill:#313131"/><path d="M160.13,327.27a22.47,22.47,0,0,1,.85,3.57c.28,1.44-1,3.86-1.41,4.46s-1.92,2.82-2.2,3.05a67,67,0,0,1-7.17,1.18,57,57,0,0,1-7-3.27c-.59-.47-8.48-.74-9.17-1.27s-4.73-2.8-4.81-3.6a11,11,0,0,1,1.14-3.93,2.19,2.19,0,0,1,.9-.5l3.39-3.15Z" style="fill:#b8b8b8"/><path d="M160.59,328.51a.83.83,0,0,1,0,.12c-.21.72-3.81,6.88-3.81,6.88s-7.06-1.26-8.3-1.86-8.46-4.08-9.1-4.73a34.42,34.42,0,0,0-5.81-2.85,7.35,7.35,0,0,0-2.26.89l-.1-.77a11.67,11.67,0,0,1,1.89-.89,17.5,17.5,0,0,1,4.77,1.29c.42.36,2.3,2.42,2.3,2.42s6,3.28,6.2,3.37,4.93,1.44,4.93,1.44a43.15,43.15,0,0,0,4.43.58,9.57,9.57,0,0,0,1.74-1.23c.26-.29,1.65-3.38,1.87-3.52S160,329,160.59,328.51Z" style="fill:#8b8b8b"/><path d="M161.73,320.64c.13.92.57,3.35.25,4.06a.35.35,0,0,1-.06.09l0,0a4.06,4.06,0,0,0-.49,1c-.33.9-.66,2.1-.82,2.65a.83.83,0,0,1,0,.12s0,0,0,0c-.32.89-3.8,6.84-3.8,6.84s-7.06-1.26-8.3-1.86-8.46-4.08-9.1-4.73a34.42,34.42,0,0,0-5.81-2.85,2.12,2.12,0,0,0-.93.24,13.54,13.54,0,0,0-1.33.65l-.1-.77-.14-1.1s1.74-4,1.94-4.18,7.47-2.45,8.2-2.67h0c.69-.19,4,.07,4.71,0l.1,0a58.24,58.24,0,0,1,6.26-1.29c1.11-.08,8,.94,8,.94A9.17,9.17,0,0,1,161.73,320.64Z" style="fill:#dbdbdb"/><path d="M143.21,336.26a57,57,0,0,0,7,3.27,67,67,0,0,0,7.17-1.18c.28-.23,1.78-2.45,2.2-3.05s1.69-3,1.41-4.46c-.14-.72-.28-1.47-.43-2.11a14.89,14.89,0,0,1-.67,4.46,8.54,8.54,0,0,1-2.77,3.2c-.72.52-7-1-7.89-1.11a95.38,95.38,0,0,1-9.66-4c-1.16-.63-7.85-1.54-8.55-1.54a2.1,2.1,0,0,0-1.78,1.61c.08.8,4.12,3.07,4.81,3.6S142.62,335.79,143.21,336.26Z" style="fill:#5f5f5f"/><path d="M141.17,318.24c-2.41,1.09-6.43,2.94-6.68,3.13s-.53,1.06-1.18,1.91c-.51.67-.48,1.59-.71,3a13.54,13.54,0,0,0-1.33.65l-.1-.77-.14-1.1s1.74-4,1.94-4.18S140.44,318.46,141.17,318.24Z" style="fill:#f0f0f0"/><path d="M160.59,328.51a.83.83,0,0,1,0,.12c-.21.72-3.81,6.88-3.81,6.88s-7.06-1.26-8.3-1.86-8.46-4.08-9.1-4.73a34.42,34.42,0,0,0-5.81-2.85,7.35,7.35,0,0,0-2.26.89l-.1-.77a11.67,11.67,0,0,1,1.89-.89,17.5,17.5,0,0,1,4.77,1.29c.42.36,2.3,2.42,2.3,2.42s6,3.28,6.2,3.37,4.93,1.44,4.93,1.44a43.15,43.15,0,0,0,4.43.58,9.57,9.57,0,0,0,1.74-1.23c.26-.29,1.65-3.38,1.87-3.52S160,329,160.59,328.51Z" style="fill:#848484"/><path d="M157.2,337.83c.28.32,0,1.28-.86,1.42a11.79,11.79,0,0,1-3.26.62c-1.36-.08-2.79-.08-2.62-.65a1.38,1.38,0,0,1,1.16-.93C152.09,338.21,157,337.62,157.2,337.83Z" style="fill:#b8b8b8"/><path d="M154.63,323.9c-.48.3-2,2.08-2.87,2.11a17.8,17.8,0,0,1-1.93-.14l-.24,0c-1.65-.18-3.63-.44-4-.44a3.93,3.93,0,0,0-1,.34l.85.07a.53.53,0,0,1,.18,0c.66-.15,1.39.49,1.88.59a21.84,21.84,0,0,0,4,.44,11.48,11.48,0,0,0,1.07-.64,22.16,22.16,0,0,0,2.26-1.59c.5-.47.62-.1,1-.19a52.08,52.08,0,0,1,5.53,1.4,4.06,4.06,0,0,1,.49-1l0,0C160.4,324.53,155,323.65,154.63,323.9Z" style="fill:#b8b8b8"/><path d="M144,319.44c-.11-.9,1.72-.1,1.91-.13s1.39-.55,1.68-.56a5.82,5.82,0,0,1,1.3.44s-.24.7-.63.87a7.06,7.06,0,0,1-2.1,0C145.8,320.07,144.09,320.23,144,319.44Z" style="fill:#b8b8b8"/><path d="M161.73,320.64c.13.92.57,3.35.25,4.06a7.48,7.48,0,0,1-.88-2.21c.06-.53-.43-1.16-.81-2a8.82,8.82,0,0,0-1-2c-.49-.55-5.06-.57-5.8-.74a5.92,5.92,0,0,0-2.54,0c-.43.18-5,.45-5,.45h0l.1,0a58.24,58.24,0,0,1,6.26-1.29c1.11-.08,8,.94,8,.94A9.17,9.17,0,0,1,161.73,320.64Z" style="fill:#b8b8b8"/><path d="M386.28,109.29c0,.49,0,1,0,1.44,0,1,0,2-.06,3a53.8,53.8,0,0,1-.51,6.11c0,.28-.08.53-.13.73-1.7,9.11-17.09,61.53-30.76,66.09s-67.22,16.52-76.33,17.09c-.46,0-.93.05-1.42.05-.23,0-.47,0-.72,0A41.43,41.43,0,0,1,264.69,202a66.42,66.42,0,0,1-17-8c-8.86-8-35.32-42.16-21.65-62.67,2.6-3.92,12.08-20.59,20.39-34.31,4-6.67,7.81-12.64,10.37-16.12h0a25.61,25.61,0,0,1,1.73-2.15,5.34,5.34,0,0,1,1-.89.61.61,0,0,1,.14-.07A25.4,25.4,0,0,0,265.33,76a8.11,8.11,0,0,0,2.12-1.6l.55-.64c8.95-10,25.33-15.1,31.13-19.08,0,0,0,0,0,0a3.09,3.09,0,0,1,1.47-.63c4.54,0,31.32,4.55,37,6.26,5.51,1.66,42.06,16.5,46,22.1a2.36,2.36,0,0,1,.27.52c0,.1.06.21.09.35,1.09,3.7,2.13,14.34,2.31,23.83C386.27,107.83,386.28,108.57,386.28,109.29Z" style="fill:#b8b8b8"/><path d="M386.28,109.29c0,.49,0,1,0,1.44,0,1,0,2-.06,3a53.8,53.8,0,0,1-.51,6.11c0,.28-.08.53-.13.73-1.7,9.11-17.09,61.53-30.76,66.09s-67.22,16.52-76.33,17.09c-.46,0-.93.05-1.42.05-.23,0-.47,0-.72,0A41.43,41.43,0,0,1,264.69,202a66.42,66.42,0,0,1-17-8s23.93-36.09,26.84-43.53,47.24-22.39,47.24-22.39l64.48-21C386.27,107.83,386.28,108.57,386.28,109.29Z" style="fill:#848484"/><path d="M386.56,116.36c0,.28-.94,2.39-1,2.59-1.15,5.86-34.46,42.71-39.06,43.3s-27.57,8.19-38.47,2.34c-3.77-2-25.2-8.76-31.9-14a4.86,4.86,0,0,1-2-2.41c-.54-2.46-4.58-18.61-8.46-35.1-1.82-7.75-3.6-15.6-4.95-22.14-1.05-5.1-1.85-9.39-2.21-12.22.35-1,25.06-25.66,30.85-29.63,0,0,0,0,0,0,.62-.41,10.85-2,11.2-2,4.46,0,30.42,4.41,36.71,6.17l0,0,.28.08c5.51,1.65,42.12,23,46,29.06a2.36,2.36,0,0,1,.27.52c0,.1.31.64.34.78C385.94,89.34,386.87,114.39,386.56,116.36Z" style="fill:#dbdbdb"/><path d="M288.7,148.57c5.6,1.73,15.51,9.48,17.23,9.91s22,3.87,27.56,2.15,16.36-8.18,18.51-10.33,16.37-24.12,18.09-25,5.17-11.2,5.6-22.82-.43-19-4.74-23.68-14.64-8.19-17.66-5.17S348.56,90,348.56,90l6.89,6.89s0,11.63-5.17,16.79S346,141.25,339.52,143s-21.1-12.49-23.69-12.92-8.18-.86-11.62,3S288.7,148.57,288.7,148.57Z" style="fill:#b8b8b8"/><path d="M263.86,108.42c2.14,5.08,5.62,21.93,5.62,26.48s2.67,11.5,2.14,14.44-6.42,17.11-8.83,21.39c0,0,10.43-12.57,11.77-15.51s1.6-3.48,1.6-5.35-4.27-18.45-5.08-21.93S263.86,108.42,263.86,108.42Z" style="fill:#f0f0f0"/><path d="M337.34,53.23c-6.38-.68-31.53-4.17-34.38-4.17-3.14,0-13.14,3.14-16,4.87-2.41,1.43-16.12,16.21-21.63,22.08-1,1.11-1.79,1.9-2.11,2.22-2,2-1.71,9.44-1.71,14.58L260.76,91c-1-2.48-2.79-7-3.94-10.06h0a25.61,25.61,0,0,1,1.73-2.15c.35-1,25.06-25.66,30.85-29.63,0,0,0,0,0,0,.62-.41,10.85-2,11.2-2C305.09,47.06,331.05,51.47,337.34,53.23Z" style="fill:#f0f0f0"/><path d="M247.71,194c-8.86-8-35.32-42.16-21.65-62.67,2.6-3.92,12.08-20.59,20.39-34.31l.32.16c-3.53,6.35-15.16,31.37-15.87,32.79s-6,10.57-5.64,14.45S233.15,174.81,247.71,194Z" style="fill:#dbdbdb"/><path d="M385.92,118.06c-.07.61-.14,1.19-.22,1.73,0,.28-.08.53-.13.73-1.7,9.11-17.09,61.53-30.76,66.09s-67.22,16.52-76.33,17.09c-.46,0-.93.05-1.42.05-.23,0-.47,0-.72,0A41.43,41.43,0,0,1,264.69,202a34.25,34.25,0,0,1,4-.25c34.82-.47,71.47-12.48,79.11-15.34s14.31-16.71,19.55-25.29c3.46-5.66,8.57-21.46,11.94-32.53l1-1.27,1.16-1.51c.18-.25.36-.49.52-.73.46-.62.88-1.2,1.25-1.75a28.51,28.51,0,0,0,1.78-2.87c.17-.31.29-.59.41-.85a5.63,5.63,0,0,0,.2-.65s0,0,0-.06S385.77,118.43,385.92,118.06Z" style="fill:#606060"/><path d="M381.93,125.07c.46-.62.88-1.2,1.25-1.75C382.8,123.87,382.39,124.45,381.93,125.07Z" style="fill:#515151"/><path d="M562.2,325.31v.4c0,.28,0,.54,0,.8a14.36,14.36,0,0,1-.14,1.67c0,.08,0,.14,0,.2-.47,2.48-4.67,16.79-8.4,18s-18.34,4.51-20.83,4.66l-.38,0h-.2a11.48,11.48,0,0,1-3.18-.48,18.1,18.1,0,0,1-4.63-2.18c-2.42-2.18-9.64-11.5-5.91-17.1.71-1.07,3.3-5.62,5.56-9.36,1.11-1.82,2.14-3.45,2.83-4.4h0a5,5,0,0,1,.48-.59,1.07,1.07,0,0,1,.27-.24l0,0a7.18,7.18,0,0,0,1.55-.49,2,2,0,0,0,.57-.43c.05-.06.11-.12.15-.18,2.45-2.72,6.92-4.12,8.5-5.2h0a.88.88,0,0,1,.4-.18,87.42,87.42,0,0,1,10.1,1.71c1.5.46,11.48,4.51,12.54,6l.07.15,0,.09a35.36,35.36,0,0,1,.63,6.5Z" style="fill:#b8b8b8"/><path d="M562.2,325.31v.4c0,.28,0,.54,0,.8a14.36,14.36,0,0,1-.14,1.67c0,.08,0,.14,0,.2-.47,2.48-4.67,16.79-8.4,18s-18.34,4.51-20.83,4.66l-.38,0h-.2a11.48,11.48,0,0,1-3.18-.48,18.1,18.1,0,0,1-4.63-2.18s6.53-9.85,7.32-11.88,12.89-6.11,12.89-6.11l17.6-5.73Z" style="fill:#848484"/><path d="M562.27,327.24c0,.08-.25.66-.26.71-.32,1.6-9.41,11.65-10.66,11.81s-7.53,2.24-10.5.64c-1-.55-6.88-2.39-8.7-3.81a1.24,1.24,0,0,1-.54-.66c-.15-.67-1.25-5.07-2.31-9.57-.5-2.12-1-4.26-1.35-6-.29-1.39-.5-2.57-.6-3.34a100.12,100.12,0,0,1,8.41-8.08h0c.17-.11,3-.55,3.06-.55a87.83,87.83,0,0,1,10,1.68h0l.08,0c1.5.45,11.49,6.29,12.54,7.92l.07.15a1,1,0,0,1,.09.21A54.31,54.31,0,0,1,562.27,327.24Z" style="fill:#dbdbdb"/><path d="M535.57,336c1.53.47,4.23,2.59,4.7,2.71s6,1.05,7.52.58a19.8,19.8,0,0,0,5.06-2.82c.58-.58,4.46-6.58,4.93-6.81s1.41-3.06,1.53-6.23-.12-5.17-1.3-6.46-4-2.23-4.81-1.41-1.29,4.46-1.29,4.46l1.88,1.88s0,3.18-1.41,4.59-1.18,7.52-2.94,8S543.68,331.1,543,331a3.5,3.5,0,0,0-3.18.82C538.86,332.86,535.57,336,535.57,336Z" style="fill:#b8b8b8"/><path d="M528.8,325.08a33.8,33.8,0,0,1,1.53,7.22c0,1.24.73,3.14.58,3.94a39.09,39.09,0,0,1-2.41,5.84,47.09,47.09,0,0,0,3.21-4.23,2.84,2.84,0,0,0,.44-1.46c0-.51-1.17-5-1.38-6S528.8,325.08,528.8,325.08Z" style="fill:#f0f0f0"/><path d="M548.84,310c-1.74-.19-8.6-1.14-9.38-1.14a14.82,14.82,0,0,0-4.36,1.33c-.66.39-4.4,4.42-5.9,6l-.58.61c-.55.55-.47,2.57-.47,4l-.2-.5c-.27-.68-.76-1.91-1.08-2.75h0a5,5,0,0,1,.48-.59,100.12,100.12,0,0,1,8.41-8.08h0c.17-.11,3-.55,3.06-.55A87.83,87.83,0,0,1,548.84,310Z" style="fill:#f0f0f0"/><path d="M524.39,348.43c-2.42-2.18-9.64-11.5-5.91-17.1.71-1.07,3.3-5.62,5.56-9.36l.09,0c-1,1.73-4.14,8.56-4.33,8.95s-1.64,2.89-1.54,3.94A38.21,38.21,0,0,0,524.39,348.43Z" style="fill:#dbdbdb"/><path d="M562.1,327.71l-.06.47c0,.08,0,.14,0,.2-.47,2.48-4.67,16.79-8.4,18s-18.34,4.51-20.83,4.66l-.38,0h-.2a11.48,11.48,0,0,1-3.18-.48,9.29,9.29,0,0,1,1.09-.07c9.5-.13,19.5-3.41,21.58-4.19s3.91-4.55,5.34-6.9c.94-1.54,2.34-5.85,3.25-8.87l.27-.35.32-.41a2.43,2.43,0,0,0,.14-.2c.13-.17.24-.33.34-.48s.37-.57.49-.78l.11-.23c0-.07,0-.13.06-.18v0Z" style="fill:#606060"/><path d="M561,329.62c.13-.17.24-.33.34-.48C561.25,329.29,561.14,329.45,561,329.62Z" style="fill:#515151"/><path d="M180.44,259.52c-5,3.58-32.12,8.25-36.31,9.82s-18.59,7.78-24.21,8S68.43,280.12,65,278.55s-10.39-6.35-12.4-7.12S30.36,276.11,22.91,270C12.73,261.62,1,239.28,1,239.28l55.45-37.67,67.91-38.12s74.41,28.77,76.14,50.14a40.87,40.87,0,0,1-1.23,13.52C195.53,243.17,184.3,256.75,180.44,259.52Z" style="fill:#848484"/><path d="M197,234.42c-16.54-15.67-40.18-28.26-46.6-24.87-9.19,4.84-18.22,2.74-24.65,4.61s-45.17-2.89-49.39,1.59c2.48-2.68,15.43-19.37,24.23-26.14A48.2,48.2,0,0,1,112,183.28a.05.05,0,0,0,.07,0c3.51-.56,16.59-2.75,20.62-4.6,1-.08,2.12-.08,3.15-.09a12.09,12.09,0,0,1,2.16.24s0,0,.11,0l0,0a.17.17,0,0,0,.1,0c5.08,2.25,13.95,5.84,17.27,7.69s11.23,7.89,22.61,14.35,20.1,16.05,19.7,19.42c-.13,1.24.53,3.91,1.49,6.77A64.5,64.5,0,0,1,197,234.42Z" style="fill:#b8b8b8"/><path d="M144.29,210.82c-2.61,1.08-14.49,1.45-16.6,1.84s-9.5,1.26-11.68,1.57l-.16,0c-5.79-.56-16.64-1.48-19.14-2.06-3.21-.75-14.08-1.06-16.24-.55s-15.06,11.43-17.93,12.12-3.25,1.38-13.28,9.15c3.43-.12,10.69-4.85,12.26-5.63s17.29-10.19,21.29-11.78,8.43-.6,11.91-.08c4.77.7,7.91,0,11.13,1.06,2.2.7,20-1.18,23.44-1.76a69.89,69.89,0,0,1,9.13-.88c5-.34,10.87-3.06,12.71-4.57C149.63,209.93,146.9,209.73,144.29,210.82Z" style="fill:#c9c9c9"/><path d="M52.57,271.43c-2-.82-22.21,4.68-29.66-1.47C12.73,261.62,1,239.28,1,239.28s21.07-6.61,24.38-2c.55.76,1.53,2.05,2.78,3.72C34.6,249.45,48.7,267.49,52.57,271.43Z" style="fill:#606060"/><path d="M52.57,271.43s-6.54-1.93-8.43-3.87-5.33-6.49-6.78-7.84S29.05,252,28.3,251s-4-3.52-7-4.77L28.15,241C34.6,249.45,48.7,267.49,52.57,271.43Z" style="fill:#656565;opacity:0.4;mix-blend-mode:multiply"/><path d="M200.49,213.63c-16.41-10.25-48.36-32.06-62.31-34.73h-.07l-.05,0c-.07,0-.07,0-.11,0a11.19,11.19,0,0,0-2.16-.23c-.51,0-1,0-1.57,0s-1.06,0-1.58,0A62.17,62.17,0,0,0,112,183.27h0s0,0,0,0h0a48.2,48.2,0,0,0-11.33,6.33c-6.85,5.28-16.21,16.55-21.2,22.56-1.42,1.7-2.48,3-3,3.58-2.46,2.65-23.61,16.2-27.1,17.17h0a.07.07,0,0,1-.06,0c-1.9.48-10.28,7-18.24,11.74A65.85,65.85,0,0,1,24.72,248c-2.91,1.32-5.45,2-7.17,1.63C10.37,248,1,239.28,1,239.28l0-.14c.32-2.07,4.37-27.35,10.4-31.31,1.65-1.07,6.07-4.29,11.76-8.53,16-11.91,42.21-31.85,45.46-34.37a75,75,0,0,1,6.67-4.19C85,155,102,146,109.3,145.31c1.42-.12,3.22-.22,5.34-.23,12.39,0,34.76,2.71,42.29,10.71C165.66,165.18,200,200.73,200.49,213.63Z" style="fill:#b6b6b6"/><path d="M199.27,227.15c-1-2.86-1.63-5.53-1.5-6.77.41-3.38-8.3-12.95-19.69-19.42s-19.28-12.42-22.61-14.35-12.38-5.54-17.41-7.76c-.07,0-.07,0-.11,0,2.42-1.44,11.78,0,16.49,3.9s11.85,7.58,17.29,11.2,20.32,11.54,22.41,13.48,5.76,1.94,6.35,6.23A40.86,40.86,0,0,1,199.27,227.15Z" style="fill:#f0f0f0"/><path d="M200.49,213.63c-16.41-10.25-48.36-32.06-62.31-34.73h-.07l-.05,0c-.07,0-.07,0-.11,0a11.19,11.19,0,0,0-2.16-.23c-.51,0-1,0-1.57,0s-1.06,0-1.58,0A62.17,62.17,0,0,0,112,183.27h0s0,0,0,0h0a48.2,48.2,0,0,0-11.33,6.33c-6.85,5.28-16.21,16.55-21.2,22.56-1.42,1.7-2.48,3-3,3.58-2.46,2.65-23.61,16.2-27.1,17.17h0a.07.07,0,0,1-.06,0c-1.9.48-10.28,7-18.24,11.74l-.42.24A62.34,62.34,0,0,1,24.72,248c-2.91,1.32-5.45,2-7.17,1.63C10.37,248,1,239.28,1,239.28l0-.14c.28-1.84,3.5-21.94,8.44-29.22a7.38,7.38,0,0,1,2-2.09c1.65-1.07,6.07-4.29,11.76-8.53,16-11.91,42.21-31.85,45.46-34.37a75,75,0,0,1,6.67-4.19C85,155,102,146,109.3,145.31c1.42-.12,3.22-.22,5.34-.23,12.39,0,34.76,2.71,42.29,10.71C165.66,165.18,200,200.73,200.49,213.63Z" style="fill:#dbdbdb"/><path d="M25.35,204.53c2.54-.19,7.48,6,8.42,9.36S31.27,229,31,231.25s1.8,5.1-.37,7.44-7,6.23-9.28,6.32S6.16,239,6,237.85s4.49-21.95,6-23.62S21,204.86,25.35,204.53Z" style="fill:#b8b8b8"/><path d="M133.57,178.1a3,3,0,0,1-.93.57c-4,1.85-17.11,4-20.62,4.6a.05.05,0,0,1-.07,0l-.81.14c9.12-4.63,16.76-11.18,16.94-16.81a3.54,3.54,0,0,0-.39-1.79c-1.87-4.81-11.56-8.47-16.41-12.36-5.33-4.18-22,3.88-36,8.3,9.72-5.78,26.71-14.7,34-15.44,1.41-.12,3.21-.22,5.33-.23,2.53,2.41,4.16,5.21,5.52,5.59,2.93.88,9.73,6.84,14.94,11.67a8.17,8.17,0,0,1,2.48,6.66A15.16,15.16,0,0,1,133.57,178.1Z" style="fill:#f0f0f0"/><path d="M482,334.44c-.8.58-5.19,1.33-5.87,1.59a19.28,19.28,0,0,1-3.91,1.28c-.91,0-8.32.46-8.87.21s-1.68-1-2-1.15-3.58.75-4.79-.24c-1.64-1.35-3.54-5-3.54-5l9-6.08,11-6.16s12,4.65,12.3,8.1a6.63,6.63,0,0,1-.2,2.18A10.89,10.89,0,0,1,482,334.44Z" style="fill:#848484"/><path d="M484.65,330.39c-2.67-2.53-6.49-4.57-7.53-4-1.48.78-2.94.44-4,.75s-7.3-.47-8,.25a35.4,35.4,0,0,1,3.92-4.22,7.3,7.3,0,0,1,1.83-1h0a21,21,0,0,0,3.33-.75h.51a1.5,1.5,0,0,1,.35,0h0c.82.37,2.25.95,2.79,1.25s1.81,1.27,3.65,2.31,3.24,2.6,3.18,3.14a3.65,3.65,0,0,0,.24,1.09A10.8,10.8,0,0,1,484.65,330.39Z" style="fill:#b8b8b8"/><path d="M476.13,326.57a22,22,0,0,1-2.68.3c-.34.06-1.54.21-1.89.26h0c-.93-.09-2.68-.24-3.09-.33a11.81,11.81,0,0,0-2.62-.09c-.35.08-2.43,1.84-2.9,2s-.52.22-2.14,1.47a7,7,0,0,0,2-.91c.25-.12,2.79-1.64,3.44-1.9a3.58,3.58,0,0,1,1.92,0,13,13,0,0,1,1.8.17,24.68,24.68,0,0,0,3.78-.29,13.59,13.59,0,0,1,1.48-.14,4.32,4.32,0,0,0,2.05-.74C477,326.43,476.55,326.4,476.13,326.57Z" style="fill:#c9c9c9"/><path d="M461.31,336.37c-.32-.14-3.58.75-4.79-.24-1.64-1.35-3.54-5-3.54-5s3.4-1.07,3.94-.32l.45.6C458.41,332.81,460.69,335.73,461.31,336.37Z" style="fill:#606060"/><path d="M461.31,336.37a4.78,4.78,0,0,1-1.36-.63c-.3-.31-.86-1.05-1.1-1.27s-1.34-1.24-1.46-1.41a3.19,3.19,0,0,0-1.13-.77l1.11-.84C458.41,332.81,460.69,335.73,461.31,336.37Z" style="fill:#656565;opacity:0.4;mix-blend-mode:multiply"/><path d="M485.21,327c-2.66-1.66-7.81-5.18-10.07-5.61h0a1.45,1.45,0,0,0-.35,0h-.5a10.08,10.08,0,0,0-3.34.75h0a8.06,8.06,0,0,0-1.83,1,28.38,28.38,0,0,0-3.42,3.64l-.49.58a27.4,27.4,0,0,1-4.38,2.77h0c-.31.07-1.66,1.12-2.95,1.89a9.18,9.18,0,0,1-1,.54,2,2,0,0,1-1.15.27,8.08,8.08,0,0,1-2.68-1.68v0c.06-.34.71-4.42,1.68-5.06.27-.17,1-.69,1.9-1.38,2.59-1.92,6.82-5.14,7.35-5.55.18-.13.56-.38,1.07-.67,1.57-.94,4.32-2.38,5.5-2.5.23,0,.52,0,.86,0,2,0,5.61.43,6.83,1.73C479.58,319.2,485.12,325,485.21,327Z" style="fill:#b6b6b6"/><path d="M485,329.21a3.35,3.35,0,0,1-.24-1.09c.06-.55-1.34-2.09-3.18-3.14s-3.12-2-3.66-2.32-2-.89-2.81-1.25h0a3.36,3.36,0,0,1,2.67.63c.75.62,1.91,1.22,2.79,1.81s3.28,1.86,3.62,2.17.93.32,1,1A6.63,6.63,0,0,1,485,329.21Z" style="fill:#f0f0f0"/><path d="M485.21,327c-2.66-1.66-7.81-5.18-10.07-5.61h0a1.45,1.45,0,0,0-.35,0h-.5a10.08,10.08,0,0,0-3.34.75h0a8.06,8.06,0,0,0-1.83,1,28.38,28.38,0,0,0-3.42,3.64l-.49.58a27.4,27.4,0,0,1-4.38,2.77h0c-.31.07-1.66,1.12-2.95,1.89l-.07,0a7.21,7.21,0,0,1-.94.5,2,2,0,0,1-1.15.27,8.08,8.08,0,0,1-2.68-1.68v0c0-.3.57-3.54,1.37-4.72a1.15,1.15,0,0,1,.31-.34c.27-.17,1-.69,1.9-1.38,2.59-1.92,6.82-5.14,7.35-5.55.18-.13.56-.38,1.07-.67,1.57-.94,4.32-2.38,5.5-2.5.23,0,.52,0,.86,0,2,0,5.61.43,6.83,1.73C479.58,319.2,485.12,325,485.21,327Z" style="fill:#dbdbdb"/><path d="M456.92,325.56c.41,0,1.2,1,1.36,1.51a12.61,12.61,0,0,1-.45,2.81c0,.36.3.82-.05,1.2a3.72,3.72,0,0,1-1.5,1,8.16,8.16,0,0,1-2.5-1.16,20.77,20.77,0,0,1,1-3.81C455,326.86,456.21,325.61,456.92,325.56Z" style="fill:#b8b8b8"/><path d="M474.4,321.29a.49.49,0,0,1-.15.09,21.17,21.17,0,0,1-3.33.74h0l-.13,0c1.48-.75,2.71-1.81,2.74-2.72a.61.61,0,0,0-.06-.29c-.31-.77-1.87-1.37-2.65-2s-3.56.62-5.82,1.34c1.57-.94,4.32-2.38,5.5-2.5.23,0,.52,0,.86,0,.41.39.67.84.89.9a11,11,0,0,1,2.41,1.88,1.33,1.33,0,0,1,.4,1.08A2.4,2.4,0,0,1,474.4,321.29Z" style="fill:#f0f0f0"/><path d="M697.75,243.34l-36,28.1c-5.14,4-28.56,4.75-28.56,4.75l-60.34,15.32s-8,.41-16.48.37v0h-1v0c-7.16-.07-14.43-.48-17.19-1.79-6.13-2.87-30.54-59.5-30.54-59.5l-7-36.18-.57-2.91,158.4,13.41,5.23,5.13Z" style="fill:#848484"/><path d="M697.74,243.33S664,230.17,659.19,223s-17.4-55.53-17.4-55.53l19.05-13.79,10.28,17.21,2,20.41,18.32,21.9Z" style="fill:#424242"/><path d="M544.45,262.85c-1,4.44,7.82,20.15,11.82,29.09l-.95,0v0c-2.75-2.53-10.4-17.14-11.31-19.67a152.23,152.23,0,0,0-9.32-17.57l.5.1C537.63,255.24,545.7,257.14,544.45,262.85Z" style="fill:#989898"/><path d="M555.37,291.85c-7.15-.07-14.43-.49-17.19-1.79-6.13-2.88-30.54-59.5-30.54-59.5l-7-36.12c4.33,13,30.95,55,32.09,57.06a19.09,19.09,0,0,0,2.47,3.2l-.52-.08c2.09,2.84,8.33,14.83,9.31,17.58C544.92,274.75,552.55,289.37,555.37,291.85Z" style="fill:#5f5f5f"/><path d="M500.09,191.45c.53-5.32,28.62-36.61,30.54-38.11S552,148.75,552,148.75s69.37-.42,71.71-1.15S650.31,141,650.31,141l10.53,12.62-2.6,30.56,11,10.08-10,28.68-13.47,7.22s-92,34.56-98.37,32.95S534,253.81,532.77,251.5,499.4,198.58,500.09,191.45Z" style="fill:#b8b8b8"/><path d="M559.3,300.26l.57,2.91A7.92,7.92,0,0,1,559.3,300.26Z" style="fill:#919191"/><path d="M658.24,184.22s-8.45,16.1-10,18.61-3.09,15.09-3.09,15.09,1.35-8.92,4.43-12.63,11.85-18.43,11.85-18.43Z" style="fill:#4c4c4c"/><path d="M500.09,191.45s3.22,12.07,4.06,13.61,16.72,31.4,19.33,35.52,8.52,12.28,11.73,15.49,9.74,9.12,15.55,9,75.79-26.13,79.83-28.84,12.19-2.69,15.13-6a223.89,223.89,0,0,0-24.66,7.73c-13.85,5.12-60.26,20.6-62.83,21.28s-12.39,2.2-14.51.34-8.64-7.78-10.49-11.18-23-34.85-24.17-38.34S500.09,191.45,500.09,191.45Z" style="fill:#cacaca"/><path d="M508,198.51c-4.57-8.4,17.6-28.39,22.32-32.93s24.94-8.29,27.29-9.27,6.48,2.68,6.79,5.89-8.2,21.9-10.06,25.08.87,14.81,1.51,18.61,11.06,13.74,15.08,13.19,23,2.68,23,2.68,6.12,7.28,18.32,4.63,26.29-8.48,26.29-8.48l-21.68,16.94c-3.53,2.75-32.14,9.6-37.82,9.73s-18.13,11.58-27.77,7.06S510.65,203.34,508,198.51Z" style="fill:#848484"/><path d="M683.74,244.43c-10,9.71-25.28,24.42-25.28,24.42s-15.34-1.16-20.82-.14-18.81,6.41-25.27,6.76c0,0,11.55-7,15.86-13.58,7.16-.3,21.64,2.73,25,1.19s21-17.68,24.34-19.22A6.3,6.3,0,0,1,683.74,244.43Z" style="fill:#5f5f5f"/><path d="M124.68,311.54,120.23,315c-.64.49-3.53.58-3.53.58l-7.46,1.89s-1,.06-2,.05h-.13a7.18,7.18,0,0,1-2.12-.22c-.76-.36-3.78-7.36-3.78-7.36l-.86-4.47-.07-.36,19.58,1.66.64.63Z" style="fill:#848484"/><path d="M124.67,311.54s-4.16-1.62-4.76-2.51-2.15-6.86-2.15-6.86l2.36-1.71,1.27,2.13.24,2.52,2.26,2.71Z" style="fill:#424242"/><path d="M105.73,314c-.12.55,1,2.49,1.46,3.6h-.11a13.18,13.18,0,0,1-1.4-2.43,19.85,19.85,0,0,0-1.15-2.17h.06C104.89,313,105.89,313.25,105.73,314Z" style="fill:#989898"/><path d="M107.08,317.54a7.18,7.18,0,0,1-2.12-.22c-.76-.36-3.78-7.36-3.78-7.36l-.85-4.46c.53,1.61,3.82,6.79,4,7.05a2.17,2.17,0,0,0,.31.4h-.07a16.91,16.91,0,0,1,1.15,2.17A13.18,13.18,0,0,0,107.08,317.54Z" style="fill:#5f5f5f"/><path d="M100.25,305.13c.07-.66,3.54-4.52,3.78-4.71a18.73,18.73,0,0,1,2.63-.56s8.57-.06,8.86-.15,3.29-.81,3.29-.81l1.31,1.56-.33,3.78,1.36,1.24L119.91,309l-1.66.89s-11.37,4.27-12.16,4.07a3.88,3.88,0,0,1-1.8-1.44C104.14,312.27,100.17,306,100.25,305.13Z" style="fill:#b8b8b8"/><path d="M107.57,318.58l.07.36A1,1,0,0,1,107.57,318.58Z" style="fill:#919191"/><path d="M119.79,304.24s-1,2-1.23,2.3a9.53,9.53,0,0,0-.38,1.86,4.12,4.12,0,0,1,.54-1.56c.38-.46,1.47-2.28,1.47-2.28Z" style="fill:#4c4c4c"/><path d="M100.25,305.13s.4,1.49.5,1.68,2.07,3.88,2.39,4.39a15.82,15.82,0,0,0,1.45,1.92,3.36,3.36,0,0,0,1.92,1.11,97.79,97.79,0,0,0,9.87-3.57c.5-.33,1.5-.33,1.87-.74a27.44,27.44,0,0,0-3,.95c-1.71.64-7.45,2.55-7.76,2.63s-1.53.28-1.8.05a7.94,7.94,0,0,1-1.29-1.39c-.23-.41-2.85-4.3-3-4.73S100.25,305.13,100.25,305.13Z" style="fill:#cacaca"/><path d="M101.23,306c-.56-1,2.18-3.5,2.76-4.07s3.08-1,3.37-1.14.8.33.84.73a15.08,15.08,0,0,1-1.24,3.1c-.23.39.11,1.83.18,2.3s1.37,1.69,1.87,1.63a21.29,21.29,0,0,1,2.84.33,2.32,2.32,0,0,0,2.27.57,23.12,23.12,0,0,0,3.24-1.05l-2.68,2.09A20.61,20.61,0,0,1,110,311.7c-.7,0-2.24,1.43-3.43.87S101.56,306.6,101.23,306Z" style="fill:#848484"/><path d="M123,311.68l-3.13,3a16,16,0,0,0-2.57,0,32.13,32.13,0,0,1-3.12.83,7.74,7.74,0,0,0,2-1.67c.88,0,2.67.33,3.09.14s2.59-2.18,3-2.37A.79.79,0,0,1,123,311.68Z" style="fill:#5f5f5f"/><path d="M64.27,305.34c.48-.14,3.76,2.76,3.76,2.76h0l.71,8.3.88,10.41L68,330.48l-2.67,2.58-19.57-2.22L38,332l-1.76-1.62L33,331.1a0,0,0,0,0,0,0l-2.49-3a15,15,0,0,1,2-4.67c.79-.88,9.2-8.11,10.47-9.51h0c1.23-1.37,8.09-.68,8.74-1,.82.15,3.17.22,3.17.22a11.73,11.73,0,0,0,.93-.93C56.33,311.72,63.79,305.47,64.27,305.34Z" style="fill:#575757"/><path d="M64.27,305.34c.48-.14,3.76,2.76,3.76,2.76h0a71.26,71.26,0,0,1-3.39,7.1c-.52.58-5.13,1.74-6.31,2.67s-7.88,6.69-9,7.79-13.08,4.67-13.08,4.67L33,331.1a0,0,0,0,0,0,0l-2.49-3a15,15,0,0,1,2-4.67c.79-.88,9.2-8.11,10.47-9.51h0c1.23-1.37,8-3.38,8.65-3.71l.15,0,.3,0,.27,0,.94.09,1,.09h0l.44,0,.8.07s.54-1.62.79-2.1c-.15-.36,2.59-1.4,4.89-2.18C62.79,305.8,64.08,305.39,64.27,305.34Z" style="fill:#939393"/><path d="M51.7,310.22l.15,0,.3,0,.27,0,.94.09,1,.09h0l.44,0,.8.07s-.59,1.21-1.19,2.27a8.24,8.24,0,0,1-1,1.53c-.59.52-2,2.59-2.28,2.84s-3,1.69-3.14,1.78l2-1.95,1.6-3.8Z" style="fill:#989898"/><path d="M61.29,306.32c-1.21.7-4,2.11-4.36,2.34s-.45,1.51-.75,2.16-1.11,1.15-1.76,2.05c.6-1.06,1.19-2.27,1.19-2.27s.54-1.62.79-2.1C56.25,308.14,59,307.1,61.29,306.32Z" style="fill:#cecece"/><polygon points="68.74 316.41 69.62 326.82 67.96 330.48 65.29 333.06 45.72 330.84 58.81 328.7 65.29 325.29 68.74 316.41" style="fill:#434343"/><path d="M68,330.48a47.69,47.69,0,0,0,.34-4.93,7.61,7.61,0,0,0-1.76-3.47c-.55-1.85-1.9-6.87-1.9-6.87l3.39-7.1,1.59,18.71Z" style="fill:#2c2c2c"/><path d="M31.7,327.47l-1.17.65,2.49,3L38,332l-.65-2S31.78,327.37,31.7,327.47Z" style="fill:#7d7d7d"/><path d="M43,313.94l-1.12,2.43-6.78,5.41-1.59,2.41s-1.86,2.75-1.85,3.27l-1.17.66h0a15.08,15.08,0,0,1,2-4.66C33.36,322.57,41.77,315.34,43,313.94Z" style="fill:#cecece"/><path d="M37.31,330l.65,2L33,331.08a29.93,29.93,0,0,1-1.32-3.62C31.78,327.37,37.31,330,37.31,330Z" style="fill:#7d7d7d"/><path d="M326.52,248.56c-1,3.48,22.88,26.51,22.88,26.51h.1l66.16,3.27,82.92,4.07,28.66-12.8,19.88-19.82-22.4-140.72,7-56.3L518.4,40.45l5.25-23a.15.15,0,0,1-.1-.05L499.33,0c-14.51,4.66-29.78,9.91-36.58,15.81s-62.2,68.19-73,77.62l-.1.1c-10.56,9.16-3.43,58.5-5.9,63.27,1.45,5.89,2.58,22.87,2.58,22.87s-3.38,3.64-7.18,6.91S327.43,245.08,326.52,248.56Z" style="fill:#575757"/><path d="M326.52,248.56c-1,3.48,22.88,26.51,22.88,26.51h.1c2.52-.48,51.16-22.28,55.55-26,4.56-3.91,12.65-37.39,19.72-46.12s51.26-58.39,59.67-67,34-95.45,34-95.45l5.25-23a.15.15,0,0,1-.1-.05L499.33,0c-14.51,4.66-29.78,9.91-36.58,15.81s-62.2,68.19-73,77.62l-.1.1c-10.56,9.16-24.86,58.5-27.32,63.27l.16,1c.1.59.21,1.34.32,2.2l.27,1.93c.26,2,.64,4.34,1,6.8l1,7,.06.21c.16,1.13.32,2.2.43,3.16l.8,5.79s-12.8,4.23-16.5,6.11c-2.89-1-10.5,19.07-16.18,35.78C329.84,237.74,326.9,247.16,326.52,248.56Z" style="fill:#939393"/><path d="M362.31,156.8l.16,1,.32,2.2.27,1.93,1,6.8,1,7,.06.21.43,3.16.8,5.79s9.43-4.55,17.73-9.11c5.36-3,10.29-5.94,11.89-7.66,4-4.34,20.09-15.05,22.07-17.09s12.7-21.8,13.34-23l-15,15-29.78,12.43Z" style="fill:#858585"/><path d="M333.59,226.81c5.31-8.84,15.81-29.62,17.52-31.93,2.09-2.73,11.95-3.64,17-5.94,4.82-2.2,8.89-8.25,15.91-13.13-8.3,4.56-17.73,9.11-17.73,9.11s-12.8,4.23-16.5,6.11C346.88,190.06,339.27,210.1,333.59,226.81Z" style="fill:#cecece"/><polygon points="415.66 278.34 498.58 282.41 527.24 269.61 547.12 249.79 524.72 109.07 510.9 203.99 485.35 251.5 415.66 278.34" style="fill:#434343"/><path d="M527.24,269.61c-16.1,1.11-30.05,4.29-39.11,3.53s-16.21-4.72-27.94-11.91c-14.88-3.6-55.14-12.19-55.14-12.19l-55.55,26,149.08,7.34Z" style="fill:#2c2c2c"/><path d="M494.46,8.63,499.39,0l24.16,17.36,8.14,35.41-16-4.23S493.69,9.21,494.46,8.63Z" style="fill:#7d7d7d"/><path d="M389.73,93.42l19.07-8.58,41.31-50.13,18.74-12s21.42-14.08,25.6-14.08L499.36,0l0,0c-14.51,4.67-29.77,9.9-36.57,15.81S400.54,84,389.73,93.42Z" style="fill:#cecece"/><path d="M515.7,48.55l16,4.23-8.14-35.41c-1.84-.65-25.08-8.74-29.1-8.74C493.69,9.2,515.7,48.55,515.7,48.55Z" style="fill:#7d7d7d"/><polygon points="448.9 140.6 473.98 110.55 492.95 70.78 495.83 75.84 490.88 99.24 469.73 134.45 448.9 140.6" style="fill:#cecece"/><polygon points="499.5 37.28 506.59 47.92 503.04 63.12 497.47 76.8 488.86 88.45 487.34 77.31 496.96 58.05 499.5 37.28" style="fill:#cecece"/><path d="M310.41,307.75v0h0v0L234,294.41a3.15,3.15,0,0,1-.9-1.44c-1.1-4.25-10.62-18.08-10.78-22a5.4,5.4,0,0,1,0-1c.4,0,2-.25,4.41-.68,15.67-2.75,68.67-13.09,70.77-11.27.62.53,2.05,3.41,3.76,7.55,1.28,3.08,2.73,6.88,4.12,10.93v0C309.44,288.4,312.94,302.49,310.41,307.75Z" style="fill:#b8b8b8"/><path d="M338.08,159.05c.83.72,4.83,4.29,10.29,9.18,16,14.26,44.58,39.92,44.58,39.92s9.51,28.32,6.33,34.27-33.49,5.23-33.49,5.23l-5.33.74c-2,.29-4.56.65-7.25,1.07-11.41,1.74-26.64,4.37-28.86,6.16-3.58,2.86-11.18,17.73-17.92,20.57-1.23.48-4.42.89-8.79,1.18-19.51,1.25-61.82.61-61.82.61l-13.45-8,6.83-42.33L246,192s25.74-24.49,39.84-29.11c14.42-4.71,43.17-10.58,43.17-10.58S334.79,156.21,338.08,159.05Z" style="fill:#dbdbdb"/><path d="M392.5,303.28l-20.6,4.45c-3.07-3.27-25.19-30.67-24.26-39.09.59-5.2,2.95-13,5.56-19.18,1.68-3.92,3.46-7.16,4.95-8.64,3.86-3.84,22-18.41,22-18.41,7.31,6.32,18.51,15.56,19.11,20h0C399.85,246.9,394.65,301.08,392.5,303.28Z" style="fill:#606060"/><polygon points="245.97 192 253.93 209.57 235.77 233.18 223.48 266.87 222.37 269.94 222.87 266.44 228.17 229.5 245.97 192" style="fill:#b8b8b8"/><path d="M297,277.38c-.19,0-.46,0-.75.07s-.65,0-1.05,0-1,0-1.51.08l-6.73.26c-.86,0-1.74.05-2.67.09-16.92.62-44.1,1.4-48.46.06-4-1.23-9.53-4.36-13.48-7a5.41,5.41,0,0,1,0-1.05l.5-3.5.06.05.55.38,3.3,2.4,9.27,6.67,19.64.95C259,277.07,292,277.31,297,277.38Z" style="fill:#f0f0f0"/><polygon points="321.97 238.27 308.56 200.98 318.95 193.34 322.04 187.4 329.06 182.83 337.92 176.09 344.17 171.27 379.75 214.96 380.17 222.41 358.15 240.81 330.43 243.31 321.97 238.27" style="fill:#b8b8b8"/><path d="M342.45,170.75c-6.17,5.56-19.8,14.28-21.93,18.65-1.41,2.87-7.52,7.28-14,11.36-3.26,2.06-49.89,7.19-52.62,8.81,0,0,48.91-5.76,54.63-8.59,5.36-2.65,10.67-5.46,11-6.35.74-1.83,2.24-4.71,2.24-4.71s.67-2.39,2.42-3,19.56-14.3,19.56-14.3Z" style="fill:#f0f0f0"/><path d="M329,152.31c26.41,12.7,64,55.84,64,55.84s9.51,28.32,6.33,34.27l-19.11-20Z" style="fill:#616161"/><path d="M371.9,307.73l-61.49,0h0c-5.11-4.26-11.1-21.48-12.76-30.37-.48-2.62,19.38-37.61,24.34-39.11,6.78-2.05,36.17,2.55,36.17,2.55.32.27,1.16,3.15,2.3,7.57C364.86,265.57,373.5,306.07,371.9,307.73Z" style="fill:#848484"/><path d="M310.41,307.75v0h0v0Z" style="fill:#b8b8b8"/><path d="M404.18,209.34c-10.84,11.58-11.71,78.66.91,89.55,19.28,3.77,70.57-25.91,70.57-25.91l-12.51-45Z" style="fill:#b8b8b8"/><path d="M565.16,243.32c.63,8.41-9.13,33.3-22.45,43a111.29,111.29,0,0,1-13,7.91c-14.34,7.66-33.44,15.17-48.07,18-9,1.75-70.38-9.06-76.6-13.35-1.58-5.27,26.48-13.67,26.48-13.67s9.3-29.53,13.28-30.37,88.52-50.72,101.42-46.6C552.5,212.45,564.56,234.91,565.16,243.32Z" style="fill:#848484"/><path d="M546.27,208.25s-8.34,17.77-12.44,20.94c-15.47,12-77.81,22.09-87.94,25.32l-1,.34-40.67-45.52s35-31.71,41.53-35.88a6.93,6.93,0,0,1,3.32-.75C468.41,172.26,546.27,208.25,546.27,208.25Z" style="fill:#dbdbdb"/><path d="M413.55,205.47c2.06-2.39,21.77-18.11,25.26-22.43s8.82-8.16,10.22-10.34a6.93,6.93,0,0,0-3.32.75c-6.51,4.17-41.53,35.88-41.53,35.88s26.63,36.29,40.67,45.52c.68.05.88-1.35.48-2.21-1-2.37-6.14-7.44-8.38-9.36-3-2.61-22.67-26.95-24.87-30.08S411.49,207.83,413.55,205.47Z" style="fill:#f0f0f0"/><path d="M529.76,294.24c-14.34,7.66-33.44,15.17-48.07,18-9,1.75-70.38-9.06-76.6-13.35-1.58-5.27,26.48-13.67,26.48-13.67s67.1,13.2,74.89,13.7C513.18,299.33,524.2,295.18,529.76,294.24Z" style="fill:#606060"/><path d="M594.4,301.14c-2.52,2.69-2.73,18.32.21,20.86,4.5.88,16.44-6,16.44-6l-2.91-10.47Z" style="fill:#b8b8b8"/><path d="M631.9,309.05c.15,2-2.12,7.76-5.23,10a26,26,0,0,1-3,1.85,44.73,44.73,0,0,1-11.2,4.19c-2.1.4-16.4-2.11-17.85-3.11-.36-1.23,6.17-3.19,6.17-3.19s2.17-6.88,3.1-7.07,20.62-11.82,23.62-10.86C629,301.86,631.76,307.09,631.9,309.05Z" style="fill:#848484"/><path d="M627.5,300.88s-1.94,4.14-2.9,4.88c-3.6,2.79-18.12,5.15-20.48,5.9l-.24.08-9.48-10.61s8.16-7.38,9.68-8.35a1.53,1.53,0,0,1,.77-.18C609.36,292.5,627.5,300.88,627.5,300.88Z" style="fill:#dbdbdb"/><path d="M596.58,300.23c.48-.55,5.08-4.21,5.89-5.22s2-1.9,2.38-2.41a1.53,1.53,0,0,0-.77.18c-1.52,1-9.68,8.35-9.68,8.35s6.2,8.46,9.48,10.61c.16,0,.2-.32.11-.52a10.4,10.4,0,0,0-2-2.18c-.71-.61-5.29-6.28-5.8-7S596.1,300.79,596.58,300.23Z" style="fill:#f0f0f0"/><path d="M623.66,320.92a44.73,44.73,0,0,1-11.2,4.19c-2.1.4-16.4-2.11-17.85-3.11-.36-1.23,6.17-3.19,6.17-3.19s15.63,3.08,17.45,3.19C619.79,322.1,622.36,321.13,623.66,320.92Z" style="fill:#606060"/><polygon points="171.04 314.59 175.09 321.9 179 324.65 188.58 328.18 197.82 329.28 191.52 312.86 171.04 314.59" style="fill:#606060"/><path d="M182.65,290s-5.08,6.94-5.28,8.4-6.08,6.66-6.08,6.66l14.77,5.85.11-6.19,5.28-4.08-1-6.62,2.35-5.31Z" style="fill:#dbdbdb"/><polygon points="220.66 303.98 201.57 301.4 191.45 300.66 190.44 294.04 192.79 288.73 196.96 287.03 205.53 288.43 214.02 292.85 220.66 303.98" style="fill:#b8b8b8"/><path d="M220.66,304l-.24,1.48-1.73,10.48a4.77,4.77,0,0,1-1.34,2.6l-8.12,7.94-11.41,2.79-9.42-1.07,0-.1-1.94-9.56-.18-.9-.71-3.73-.07-.36h0l0-.17-.56-2.91-.52-2.75,1.81-3,5.28-4.08,10.12.74,8.57,1.16Z" style="fill:#515151"/><polygon points="171.29 305.08 168.4 310.9 179.64 313.58 193.4 313.5 190.83 310.82 185.3 309.35 184.36 307.71 171.29 305.08" style="fill:#b8b8b8"/><path d="M193.39,313.51l-.52,3.64-.08.59-13.41,1.67L171,314.59l-2-2.76-.65-.93,11.24,2.67h3.71l8.38-.05h1.66Z" style="fill:#848484"/><polygon points="190.83 310.82 212.36 311.31 220.66 303.98 208.63 296.79 191.45 300.66 186.17 304.74 184.36 307.71 185.3 309.35 190.83 310.82" style="fill:#848484"/><path d="M220.66,304l-.24,1.48-1.73,10.48a4.77,4.77,0,0,1-1.34,2.6l-8.12,7.94,3.13-15.17Z" style="fill:#313131"/><path d="M193.33,313.51l-1.58.08c-2.95.15-8.81.46-9.06.44s-2.9.36-3.07.35-.69-.15-1.61-.37c-2.72-.66-7.87-1.93-8-2a3.73,3.73,0,0,0-1-.15l-.65-.93,11.24,2.67h3.71l8.38-.05Z" style="fill:#f0f0f0"/><polygon points="205.53 288.43 208.63 296.79 212.38 311.13 220.66 303.98 214.02 292.85 205.53 288.43" style="fill:#606060"/><path d="M208.29,296a15.11,15.11,0,0,1-2.54,1.33c-.73.2-6,1.13-6.45,1.32s-7.85,2-7.85,2a36.48,36.48,0,0,0,3.82-.46c.63-.22,4.37-1,4.74-1.09s4.12-.67,4.79-.72a22.66,22.66,0,0,0,3.4-1,.77.77,0,0,0,.43-.6Z" style="fill:#f0f0f0"/></g></g></g></svg>