<svg xmlns="http://www.w3.org/2000/svg" viewBox="0 0 148 138.44"><title>Ruby</title><g id="Layer_2" data-name="Layer 2"><g id="Layer_3" data-name="Layer 3"><path d="M88,122.72h0v0L26.24,138.44a2.64,2.64,0,0,1-1.16-.78c-2.26-2.81-14-10-15.48-12.84a4.94,4.94,0,0,1-.33-.79c.3-.15,1.41-.86,3.07-2,10.82-7.34,47.05-32.93,49.24-32.28.64.19,2.68,1.86,5.36,4.39,2,1.88,4.35,4.24,6.76,6.81h0C80.72,108.54,88.09,117.92,88,122.72Z" style="fill:#df7b55"/><path d="M58.64,2c.86.25,5.06,1.58,10.8,3.41,16.77,5.3,46.84,14.9,46.84,14.9s16.66,18,16.28,23.54S109.23,59,109.23,59l-3.75,2.35c-1.42.9-3.19,2-5.07,3.24-8,5.14-18.49,12.24-19.55,14.34-1.72,3.34-2.4,17-6.5,21.44a33.84,33.84,0,0,1-6.19,3.84c-14.2,7.51-46.11,21.28-46.11,21.28L9.27,124,.14,90,.71,57.68s11-27,20.06-35.22C30,14.08,49.55,0,49.55,0S55.21,1,58.64,2Z" style="fill:#eda994"/><path d="M148,91.73,134,102c-3.4-1.41-29.2-14.49-31.34-21.12a65.25,65.25,0,0,1-2.29-16.24c-.06-3.5.18-6.52.8-8.14,1.6-4.17,10.3-21.21,10.3-21.21,7.61,2.28,19.11,5.43,21.05,8.55h0C134.49,47,148.84,89.36,148,91.73Z" style="fill:#89341d"/><polygon points="0.71 57.68 12.6 68.17 6.93 91.97 9.07 121.36 9.27 124.03 8.47 121.23 0 91.78 0.71 57.68" style="fill:#df7b55"/><path d="M67.68,104.48c-.12.09-.33.18-.54.3s-.48.23-.77.39a11.61,11.61,0,0,0-1.1.57l-5,2.45c-.63.3-1.28.63-2,1-12.47,6.16-32.57,15.9-36.29,16.37a50.42,50.42,0,0,1-12.46-.71,4.94,4.94,0,0,1-.33-.79l-.8-2.8.06,0,.54.1,3.28.69,9.19,1.88,15-5.9C39.14,117,63.92,106.11,67.68,104.48Z" style="fill:#f8efe2"/><polygon points="73.23 66.76 50.63 43.34 55.85 34.12 56.16 28.63 59.88 22.84 64.25 14.81 67.31 9.09 108.68 29.85 111.5 35.29 101.2 56.49 81.27 67.69 73.23 66.76" style="fill:#df7b55"/><path d="M65.84,9.28c-2.74,6.24-10,17.37-10.15,21.35-.09,2.63-3.18,8-6.64,13.22C47.3,46.49,14.1,66,12.6,68.17c0,0,34.7-20.78,38-24.83,3.13-3.79,6.16-7.68,6.13-8.47-.06-1.63.09-4.29.09-4.29a3.94,3.94,0,0,1,.81-3.06c1.11-1.05,9.84-17.29,9.84-17.29Z" style="fill:#f8efe2"/><path d="M49.55,0c24.06.62,66.73,20.3,66.73,20.3s16.66,18,16.28,23.54L111.5,35.29Z" style="fill:#bc6246"/><path d="M134,102,88,122.72h0c-5.27-1.47-15.55-12.36-19.78-18.46-1.25-1.8,1.85-34.7,5.06-37.49,4.39-3.83,28-10.28,28-10.28.33.1,1.93,2,4.28,4.9C114.56,72.78,134.67,100.22,134,102Z" style="fill:#bc6246"/><path d="M88,122.72h0v0Z" style="fill:#e6b358"/></g></g></svg>