<svg xmlns="http://www.w3.org/2000/svg" viewBox="0 0 154.59 133.92"><title>Tourmaline</title><g id="Layer_2" data-name="Layer 2"><g id="Layer_3" data-name="Layer 3"><polygon points="5.89 54.87 30.44 90.22 65.8 94.15 96.73 110.35 137 81.87 150.25 41.61 114.9 2.82 65.64 4.76 15.71 23.44 5.89 54.87" style="fill:#658096"/><polygon points="22.1 118.21 30.44 90.22 18.17 90.22 3.44 101.51 22.1 118.21" style="fill:#3a4c5e"/><polygon points="5.89 54.87 0 78.43 3.44 101.51 16.2 99.06 30.44 90.22 5.89 54.87" style="fill:#658096"/><polygon points="101.15 133.43 96.73 110.35 65.8 94.15 30.44 90.22 22.1 118.21 75.13 133.92 101.15 133.43" style="fill:#658096"/><path d="M154.59,80.89l-16.12,33.88-37.31,18.66L97.24,113l-.51-2.65L122.31,77.5l0-.09L150.25,41.6l3.22,29.2Z" style="fill:#3a4c5e"/><polygon points="65.8 94.15 75.62 39.85 5.89 54.87 30.44 90.22 65.8 94.15" style="fill:#8babc1"/><path d="M114.9,2.82l-39.28,37s-32.94,14-36.55,14-33.18,1-33.18,1l9.82-31.42L65.64,4.76Z" style="fill:#a3b8c6"/><path d="M37.14,11.68C46.33,7.89,66.05.89,72.7,1.58,75.3,1.85,92.58-.19,100.15,0,112,.33,114.9,2.82,114.9,2.82S80,7.78,73.16,8,38.29,17.18,35.54,18.56s-19.83,4.88-19.83,4.88S33.24,13.28,37.14,11.68Z" style="fill:#d6e3ea"/><path d="M77.64,100.35c5,1.84,15.62,6.21,17.19,6.21s5-4.71,7.85-7.23S122.16,76.4,125,73.57c0,0-11,16-13.51,20.11s-6.8,11.23-8.84,13.63c-1.83,2.16-4.31,7.36-6.82,5.16S79.52,102.86,77.64,100.35Z" style="fill:#9db3c1"/><path d="M153.44,80.89l-16.11,33.88L100,133.43c6.28-5,29.35-18.57,30.57-20.33s12.82-17.72,14-21.75,6.67-11.06,7-14.92c.14-1.51.4-3.51.68-5.63Z" style="fill:#334856"/></g></g></svg>