<?xml version="1.0" standalone="no"?>
<!DOCTYPE svg PUBLIC "-//W3C//DTD SVG 20010904//EN"
 "http://www.w3.org/TR/2001/REC-SVG-20010904/DTD/svg10.dtd">
<svg version="1.0" xmlns="http://www.w3.org/2000/svg"
 width="4608.000000pt" height="4608.000000pt" viewBox="0 0 4608.000000 4608.000000"
 preserveAspectRatio="xMidYMid meet">
<metadata>
Created by potrace 1.11, written by Peter Selinger 2001-2013
</metadata>
<g transform="translate(0.000000,4608.000000) scale(0.100000,-0.100000)"
fill="#000000" stroke="none">
<path d="M26688 46074 c-2 -1 -21 -5 -43 -7 -121 -15 -318 -92 -442 -173 -32
-21 -60 -41 -63 -44 -3 -3 -13 -9 -22 -15 -10 -5 -110 -73 -223 -150 -114 -77
-223 -151 -243 -164 -20 -13 -38 -28 -40 -33 -2 -4 -8 -8 -13 -8 -5 0 -37 -19
-72 -43 -77 -54 -441 -301 -562 -381 -49 -33 -92 -63 -95 -66 -3 -3 -13 -9
-22 -15 -10 -5 -84 -55 -165 -110 -81 -56 -260 -177 -398 -270 -137 -93 -322
-218 -410 -278 -88 -60 -250 -169 -360 -243 -110 -74 -274 -186 -365 -247 -91
-62 -284 -193 -430 -292 -146 -98 -312 -211 -370 -250 -58 -39 -211 -143 -340
-230 -129 -88 -377 -255 -550 -373 -173 -118 -405 -275 -515 -349 -110 -74
-276 -186 -370 -250 -93 -63 -262 -178 -375 -254 -291 -197 -444 -301 -690
-467 -224 -152 -388 -263 -750 -508 -118 -80 -296 -200 -395 -267 -99 -67
-286 -194 -415 -281 -129 -88 -264 -180 -300 -204 -88 -61 -229 -205 -283
-289 -25 -38 -69 -116 -100 -174 -30 -57 -66 -124 -79 -149 -27 -49 -68 -124
-143 -265 -26 -49 -59 -110 -73 -135 -13 -25 -42 -79 -64 -120 -62 -116 -118
-220 -148 -275 -15 -27 -49 -90 -75 -140 -26 -49 -60 -112 -75 -140 -15 -27
-46 -86 -70 -130 -23 -44 -57 -107 -75 -140 -41 -77 -321 -597 -374 -695 -22
-41 -57 -106 -77 -145 -20 -38 -51 -97 -69 -130 -70 -128 -235 -435 -285 -529
-29 -55 -77 -144 -106 -198 -30 -54 -54 -100 -54 -102 0 -3 -17 -35 -38 -73
-43 -76 -105 -190 -165 -303 -54 -104 -122 -230 -174 -324 -24 -43 -43 -80
-43 -82 0 -1 -35 -67 -78 -146 -43 -79 -102 -188 -132 -243 -85 -161 -131
-247 -160 -300 -32 -59 -88 -162 -140 -260 -50 -94 -99 -185 -136 -253 -16
-32 -54 -102 -83 -157 -30 -55 -66 -122 -81 -150 -31 -56 -76 -140 -140 -260
-23 -44 -53 -98 -65 -120 -12 -22 -51 -94 -86 -160 -35 -66 -75 -141 -89 -167
-14 -25 -39 -73 -56 -105 -17 -32 -64 -119 -104 -193 -40 -74 -93 -173 -118
-220 -25 -47 -69 -129 -98 -183 -30 -53 -54 -99 -54 -102 0 -2 -15 -30 -34
-62 -18 -32 -58 -105 -88 -163 -31 -58 -86 -161 -123 -230 -37 -69 -85 -159
-107 -200 -22 -41 -56 -103 -74 -137 -77 -142 -104 -193 -154 -288 -29 -55
-56 -104 -60 -110 -4 -5 -36 -64 -70 -130 -35 -66 -74 -140 -88 -165 -14 -25
-43 -79 -64 -120 -22 -41 -55 -102 -73 -135 -31 -56 -55 -101 -144 -270 -35
-65 -58 -107 -141 -260 -18 -33 -57 -107 -88 -165 -30 -58 -72 -136 -94 -173
-21 -38 -38 -71 -38 -73 0 -3 -20 -39 -43 -82 -40 -71 -77 -139 -195 -362 -24
-47 -52 -98 -62 -115 -9 -16 -39 -70 -65 -120 -26 -49 -63 -118 -81 -153 -19
-34 -50 -92 -70 -130 -20 -37 -51 -94 -69 -127 -18 -33 -56 -105 -85 -160 -30
-55 -71 -131 -92 -170 -21 -38 -57 -106 -80 -150 -23 -44 -52 -98 -64 -120
-12 -22 -33 -60 -46 -85 -55 -105 -142 -266 -148 -275 -4 -5 -31 -55 -60 -110
-29 -55 -65 -122 -80 -150 -15 -27 -49 -90 -75 -140 -26 -49 -60 -112 -75
-140 -15 -27 -49 -90 -75 -140 -26 -49 -55 -103 -65 -120 -9 -16 -41 -75 -70
-130 -29 -55 -84 -158 -123 -230 -85 -159 -131 -245 -187 -350 -23 -44 -50
-93 -60 -110 -16 -28 -109 -203 -154 -290 -12 -22 -23 -42 -26 -45 -3 -3 -20
-34 -38 -70 -18 -36 -46 -90 -63 -120 -16 -30 -53 -98 -81 -150 -28 -52 -65
-122 -83 -155 -18 -33 -50 -94 -73 -135 -22 -41 -106 -199 -188 -350 -81 -151
-162 -302 -179 -335 -18 -33 -49 -91 -70 -130 -46 -87 -107 -199 -153 -285
-19 -36 -47 -87 -62 -115 -15 -27 -49 -90 -75 -140 -26 -49 -60 -112 -75 -140
-15 -27 -45 -84 -67 -125 -22 -41 -56 -104 -75 -140 -20 -36 -54 -101 -78
-145 -23 -44 -55 -102 -70 -130 -15 -27 -46 -86 -70 -130 -23 -44 -55 -102
-70 -130 -15 -27 -49 -90 -75 -140 -26 -49 -60 -112 -75 -140 -15 -27 -49 -90
-75 -140 -26 -49 -55 -103 -65 -120 -9 -16 -43 -79 -75 -140 -32 -60 -86 -162
-120 -225 -35 -63 -79 -146 -100 -185 -84 -157 -108 -201 -117 -212 -6 -7 -7
-13 -4 -13 4 0 -1 -12 -11 -27 -10 -16 -31 -51 -46 -79 -15 -28 -40 -76 -56
-105 -16 -30 -51 -97 -79 -149 -27 -52 -60 -113 -72 -135 -12 -22 -43 -78 -68
-125 -24 -47 -48 -89 -52 -95 -4 -5 -35 -64 -70 -130 -88 -167 -111 -210 -152
-285 -19 -36 -57 -105 -83 -155 -26 -49 -76 -142 -110 -205 -34 -63 -86 -160
-115 -215 -30 -55 -62 -116 -72 -135 -11 -19 -33 -60 -49 -90 -17 -30 -55
-102 -86 -160 -31 -58 -85 -159 -121 -225 -75 -139 -120 -224 -187 -350 -26
-49 -51 -94 -55 -100 -4 -5 -38 -68 -75 -140 -37 -71 -71 -134 -75 -140 -4 -5
-29 -50 -54 -100 -26 -49 -59 -112 -74 -140 -15 -27 -51 -93 -79 -145 -62
-116 -115 -215 -159 -297 -19 -35 -50 -93 -70 -130 -20 -38 -51 -95 -69 -128
-18 -33 -69 -130 -115 -215 -45 -85 -97 -182 -115 -215 -18 -33 -48 -89 -67
-125 -20 -36 -51 -94 -70 -130 -19 -36 -57 -105 -83 -155 -26 -49 -76 -142
-110 -205 -35 -63 -82 -151 -105 -195 -23 -44 -58 -109 -78 -145 -19 -36 -53
-99 -75 -140 -22 -41 -52 -97 -67 -125 -52 -96 -108 -201 -150 -280 -23 -44
-50 -93 -60 -110 -17 -29 -71 -132 -162 -305 -145 -276 -177 -536 -103 -833
38 -154 104 -280 264 -498 31 -42 119 -165 196 -273 237 -333 285 -400 298
-416 7 -8 32 -44 56 -80 24 -36 47 -67 50 -70 3 -3 26 -34 51 -70 24 -36 48
-69 53 -75 7 -9 169 -235 230 -321 85 -122 163 -231 170 -239 5 -5 206 -287
447 -625 241 -338 443 -619 447 -625 8 -10 465 -647 493 -688 8 -12 95 -134
193 -271 98 -137 187 -260 197 -275 80 -112 281 -393 337 -470 37 -52 91 -127
118 -167 28 -39 129 -181 225 -315 96 -134 193 -270 215 -301 48 -68 256 -359
268 -373 4 -5 82 -113 172 -240 250 -351 400 -562 510 -715 55 -76 181 -253
280 -391 99 -139 198 -278 221 -308 22 -31 141 -198 264 -371 124 -173 228
-319 232 -325 9 -10 279 -390 308 -432 8 -12 150 -210 315 -440 165 -230 309
-431 321 -448 61 -87 844 -1182 852 -1191 11 -12 93 -129 107 -152 6 -10 12
-19 16 -22 3 -3 21 -27 40 -55 18 -27 39 -56 46 -65 25 -32 264 -367 367 -514
11 -17 24 -33 27 -36 3 -3 21 -27 39 -55 19 -27 38 -54 43 -60 4 -5 225 -314
490 -685 266 -371 492 -688 504 -705 62 -85 302 -421 356 -499 192 -274 304
-379 513 -481 61 -30 156 -67 210 -82 l99 -28 8260 -2 c7194 -2 8270 0 8335
12 160 31 285 80 412 161 165 106 255 207 517 584 24 36 89 126 142 200 135
186 128 176 255 355 63 88 205 287 317 443 111 156 211 296 222 312 11 16 58
82 105 147 46 65 94 132 106 148 26 38 638 893 658 920 8 11 42 58 75 105 33
47 64 90 68 95 5 6 46 64 93 130 47 66 88 125 93 130 4 6 48 66 97 135 147
208 183 257 235 329 28 38 57 79 65 91 8 12 32 45 52 73 20 29 47 67 60 85 13
18 37 52 54 75 17 23 51 70 75 104 24 33 64 89 89 124 25 34 63 88 85 119 22
32 127 178 232 326 106 148 321 449 478 669 157 220 296 414 308 430 30 41
1212 1695 1268 1773 24 34 78 109 119 166 41 58 93 130 115 161 22 32 51 72
65 91 14 18 47 64 73 101 27 37 166 232 309 433 144 201 277 388 296 415 54
76 180 252 237 330 28 39 71 99 96 135 24 36 46 67 49 70 5 4 564 786 658 919
15 21 104 145 197 275 94 131 177 247 185 259 8 12 120 168 248 347 128 179
238 333 245 343 14 21 83 117 95 132 9 11 143 198 182 254 14 20 70 99 125
176 55 77 107 149 115 161 8 13 69 98 136 191 670 932 835 1169 873 1247 38
80 83 212 95 281 23 132 24 313 1 424 -28 136 -48 189 -165 436 -23 50 -68
146 -100 215 -32 69 -80 173 -108 232 -28 59 -61 128 -73 155 -28 63 -76 165
-132 283 -24 52 -104 223 -177 380 -72 157 -149 321 -170 365 -53 111 -108
229 -175 375 -32 69 -84 180 -116 248 -33 68 -59 125 -59 127 0 2 -26 59 -59
126 -32 68 -69 147 -81 174 -12 28 -41 88 -63 135 -113 243 -243 522 -284 610
-19 41 -52 111 -73 155 -20 44 -50 107 -65 140 -16 33 -48 103 -73 155 -25 52
-46 97 -47 100 0 3 -11 28 -24 55 -61 131 -117 249 -162 343 -27 57 -49 105
-49 107 0 1 -31 69 -70 150 -38 81 -70 148 -70 150 0 2 -31 69 -70 150 -38 81
-70 148 -70 150 0 1 -25 56 -56 121 -31 66 -71 153 -91 194 -43 93 -78 168
-136 290 -24 52 -54 115 -65 140 -18 39 -83 179 -207 445 -18 39 -56 119 -84
179 -28 59 -51 109 -51 111 0 1 -24 54 -54 117 -30 63 -70 148 -89 189 -19 41
-83 178 -142 304 -59 127 -121 259 -138 295 -26 57 -66 142 -212 455 -99 211
-125 268 -125 270 0 2 -34 73 -75 160 -41 86 -75 158 -75 159 0 2 -27 61 -61
132 -100 212 -111 237 -254 544 -75 162 -154 331 -175 375 -21 44 -50 107 -65
140 -15 33 -54 116 -86 184 -33 67 -59 124 -59 126 0 2 -31 69 -70 150 -38 81
-70 148 -70 150 0 1 -25 56 -56 121 -110 234 -123 261 -187 399 -36 77 -90
193 -121 259 -31 65 -56 119 -56 121 0 2 -31 69 -70 150 -38 81 -70 148 -70
150 0 2 -31 69 -70 150 -38 81 -70 148 -70 150 0 2 -49 107 -142 305 -23 47
-53 112 -68 145 -15 33 -48 103 -72 155 -25 52 -55 118 -68 145 -12 28 -41 88
-63 135 -59 127 -116 250 -139 300 -11 25 -43 92 -70 150 -28 58 -92 195 -143
305 -51 110 -112 241 -135 290 -23 50 -55 117 -70 150 -16 33 -53 113 -84 179
-31 65 -56 119 -56 121 0 1 -29 63 -64 136 -35 74 -74 157 -86 184 -12 28 -49
106 -81 174 -33 67 -59 124 -59 126 0 1 -27 61 -61 131 -34 71 -83 176 -109
234 -27 58 -72 155 -100 215 -29 61 -94 200 -145 310 -51 110 -111 238 -133
285 -114 241 -152 323 -152 325 0 2 -31 69 -70 150 -38 81 -70 148 -70 150 0
1 -24 54 -54 116 -29 63 -65 139 -79 169 -13 30 -43 93 -65 140 -22 47 -57
121 -77 165 -21 44 -54 114 -73 155 -20 41 -36 77 -37 80 0 3 -16 37 -34 75
-18 39 -78 167 -133 285 -100 214 -143 306 -211 450 -45 96 -102 219 -137 295
-15 33 -47 101 -70 150 -60 129 -95 203 -207 445 -95 203 -119 255 -216 460
-22 47 -52 112 -67 145 -15 33 -47 101 -70 150 -23 50 -55 117 -70 150 -15 33
-47 101 -70 150 -23 50 -52 113 -65 140 -103 217 -145 308 -145 310 0 2 -31
69 -70 150 -38 81 -70 148 -70 150 0 2 -60 131 -145 310 -18 39 -49 105 -69
148 -20 42 -52 112 -72 155 -20 42 -47 100 -59 127 -23 52 -78 169 -147 315
-23 47 -67 141 -98 210 -32 69 -83 178 -114 244 -31 65 -56 119 -56 121 0 1
-26 58 -59 126 -32 68 -70 149 -84 179 -13 30 -48 103 -75 162 -28 59 -61 128
-73 155 -12 26 -46 99 -75 161 -30 63 -54 115 -54 117 0 1 -30 65 -66 141 -36
77 -74 157 -84 179 -10 22 -36 78 -58 125 -211 454 -320 688 -352 755 -38 79
-81 173 -145 310 -18 39 -48 104 -68 145 -58 123 -116 248 -173 371 -29 64
-80 174 -114 244 -33 70 -60 129 -60 130 0 1 -26 58 -59 126 -32 68 -101 216
-154 329 -52 113 -118 255 -147 315 -28 61 -61 130 -72 155 -11 25 -45 96 -74
158 -30 63 -54 115 -54 116 0 2 -31 69 -70 150 -38 80 -70 148 -70 150 0 2
-26 59 -59 127 -32 68 -72 153 -89 189 -16 36 -80 173 -142 305 -61 132 -121
260 -132 285 -11 25 -47 100 -79 168 -33 68 -59 125 -59 127 0 1 -26 58 -59
126 -32 68 -134 286 -226 484 -474 1019 -461 993 -597 1134 -222 227 -495 340
-820 339 -65 0 -119 -2 -120 -4z"/>
</g>
</svg>
