<svg xmlns="http://www.w3.org/2000/svg" viewBox="0 0 207 173.68">
  <defs>
    <style>
      .cls-1{fill:#ca75c9;}
      .cls-2{fill:#ec8eeb;}
      .cls-3{fill:#bb6aba;}
      .cls-4{fill:#a35ba3;}
      .cls-7{fill:#572157;}
      .cls-5{opacity:0.1;}
      .cls-6{opacity:0.16;}
      .cls-7{opacity:0.22;}
      .cls-8{fill:#fbacf9;}
    </style>
  </defs>
  <polyline class="cls-1" points="114.75 141.98 178.86 127.43 207 84.95 169.83 14.87 106.12 0 59.94 9.21"/>
  <polygon class="cls-2" points="154.35 101.17 114.76 141.99 108.87 139.3 93.71 132.36 83.91 127.88 77.44 124.93 51.07 112.86 44.92 110.05 44.54 109.87 22.18 65.86 59.94 9.21 70.41 10.94 91.63 14.49 105.25 16.76 122.67 19.67 128.13 20.58 129.37 20.79 134.82 38.34 154.35 101.17"/>
  <polygon class="cls-3" points="169.83 14.87 129.37 20.78 154.34 101.18 207 84.95 169.83 14.87"/>
  <polygon class="cls-4" points="114.75 141.98 154.34 101.18 207 84.95 178.86 127.43 114.75 141.98"/>
  <polygon class="cls-5" points="106.12 0 79.04 58.02 22.18 65.85 59.94 9.21 106.12 0"/>
  <polygon class="cls-6" points="79.04 58.02 92.84 91.86 44.54 109.87 22.18 65.85 79.04 58.02"/>
  <polygon class="cls-7" points="92.84 91.86 178.86 127.43 114.75 141.98 44.54 109.87 92.84 91.86"/>
  <path class="cls-8" d="M44.92,110.05c5.88,2.52,11.78,5,17.64,7.59l17.6,7.66c5.87,2.56,11.75,5.09,17.59,7.7l17.55,7.79-1.49.28,19.56-20.63c6.5-6.89,13.08-13.71,19.64-20.55l-0.43,1.88q-6.69-19.66-13.26-39.35l-6.59-19.69L126.19,23l1.6,1.37L94.23,18.76,60.68,13l1.72-.72L23,66.43l0.08-1L33.84,87.62q5.41,11.1,10.7,22.26Q38.66,99,32.88,88.11L21.29,66.31,21,65.78l0.35-.51,38.17-55,0.62-.89,1.1,0.18,33.61,5.35,33.59,5.47,1.21,0.2,0.39,1.17,6.57,19.69,6.52,19.71q6.54,19.7,13,39.45l0.35,1.08-0.78.79c-6.64,6.76-13.26,13.54-19.95,20.25l-20,20.18-0.67.67-0.83-.39L96.84,135c-5.8-2.71-11.55-5.5-17.33-8.27L62.2,118.43C56.42,115.68,50.68,112.85,44.92,110.05Z"/>
  <polygon class="cls-8" points="127.17 20.9 169.83 14.87 127.65 23.61 127.17 20.9"/>
  <polygon class="cls-8" points="153.94 99.86 207 84.95 154.75 102.5 153.94 99.86"/>
  <polygon class="cls-3" points="53.82 109.77 36.68 153.29 53.82 173.68 79.59 156.7 71.1 124.77 53.82 109.77"/>
  <polyline class="cls-2" points="15.23 128.22 0.03 158.93 36.68 153.29 53.82 109.77"/>
  <polygon class="cls-4" points="53.82 173.68 16.12 169.21 0.03 158.93 36.68 153.29 53.82 173.68"/>
  <polyline class="cls-5" points="53.82 109.77 28.21 147.74 79.59 156.7 71.1 124.77"/>
  <polygon class="cls-7" points="16.12 169.21 28.21 147.74 79.59 156.7 53.82 173.68 16.12 169.21"/>
  <polygon class="cls-7" points="71.1 124.77 28.21 147.74 79.59 156.7 71.1 124.77"/>
  <path class="cls-8" d="M46.56,128.22c-0.53,2.21-1.18,4.36-1.82,6.52s-1.36,4.29-2.09,6.41-1.51,4.23-2.26,6.35-1.59,4.2-2.42,6.29l-0.23-1.38c1.33,1.63,2.69,3.23,4,4.88s2.62,3.29,3.88,5,2.52,3.37,3.75,5.08,2.42,3.45,3.55,5.25c-1.58-1.42-3.07-2.91-4.56-4.4s-2.94-3-4.36-4.57-2.83-3.11-4.23-4.68-2.74-3.18-4.12-4.77l-0.53-.61,0.3-.78c0.81-2.09,1.68-4.17,2.52-6.25s1.74-4.14,2.68-6.18,1.87-4.09,2.84-6.12S45.44,130.19,46.56,128.22Z"/>
  <polygon class="cls-6" points="14.69 128.34 28.21 147.74 16.12 169.21 0.03 158.93 14.69 128.34"/>
  <path class="cls-8" d="M49.33,121.18c0.92-3.53,2-7,3-10.51l0.86,0.78q-4.69,2.38-9.4,4.7c-3.15,1.53-6.29,3.08-9.46,4.57s-6.32,3-9.5,4.48-6.34,3-9.54,4.39l0.68-.68-3.41,7.38-3.47,7.35c-1.15,2.45-2.35,4.88-3.53,7.32s-2.39,4.86-3.6,7.29l-0.78-1.09C3.55,157,6,156.91,8.39,156.8s4.83-.22,7.26-0.27c-2.39.41-4.78,0.77-7.17,1.12s-4.78.73-7.18,1L0,158.85l0.51-1.25c1-2.51,2.06-5,3.13-7.5s2.11-5,3.2-7.47l3.26-7.44,3.33-7.41,0.21-.46,0.47-.22c3.17-1.48,6.38-2.89,9.56-4.34s6.4-2.85,9.6-4.26,6.43-2.78,9.65-4.16,6.46-2.72,9.7-4l1.42-.58-0.56,1.36C52.11,114.44,50.79,117.83,49.33,121.18Z"/>
  <polygon class="cls-3" points="157.95 126.61 166.3 147.82 157.95 157.76 145.38 149.48 149.53 133.92 157.95 126.61"/>
  <polyline class="cls-2" points="176.76 135.6 184.17 150.57 166.3 147.82 157.95 126.61"/>
  <polygon class="cls-4" points="157.95 157.76 176.32 155.58 184.17 150.57 166.3 147.82 157.95 157.76"/>
  <polyline class="cls-5" points="157.95 126.61 170.43 145.12 145.38 149.48 149.53 133.92"/>
  <polygon class="cls-7" points="176.32 155.58 170.43 145.12 145.38 149.48 157.95 157.76 176.32 155.58"/>
  <polygon class="cls-7" points="149.53 133.92 170.43 145.12 145.38 149.48 149.53 133.92"/>
  <path class="cls-8" d="M161.49,135.6c0.16,1.11.42,2.19,0.68,3.26s0.57,2.13.9,3.18,0.69,2.08,1,3.12,0.76,2.06,1.16,3.07l0.19-1.14c-0.65.79-1.3,1.58-1.92,2.4s-1.25,1.63-1.83,2.47-1.17,1.69-1.73,2.56-1.09,1.76-1.56,2.7c0.84-.63,1.62-1.32,2.39-2s1.51-1.41,2.22-2.14,1.42-1.48,2.12-2.23,1.37-1.53,2-2.31l0.43-.5-0.24-.63c-0.4-1-.81-2-1.24-3s-0.88-2-1.38-3-1-2-1.51-2.93S162.13,136.52,161.49,135.6Z"/>
  <polygon class="cls-6" points="177.02 135.66 170.43 145.12 176.32 155.58 184.17 150.57 177.02 135.66"/>
  <path class="cls-8" d="M160.14,132.17c-0.36-1.75-.8-3.47-1.25-5.19l-0.71.64c1.51,0.81,3,1.62,4.54,2.39s3,1.56,4.58,2.3,3.06,1.51,4.62,2.22,3.08,1.46,4.65,2.15l-0.55-.55,1.67,3.59,1.73,3.57c0.57,1.19,1.18,2.37,1.78,3.54s1.21,2.35,1.83,3.52l0.63-.89c-2.36-.07-4.72-0.12-7.09-0.05,2.32,0.52,4.64.93,7,1.3l1,0.17-0.4-1.06c-0.47-1.24-.95-2.47-1.45-3.69s-1-2.45-1.51-3.67l-1.56-3.64L178,135.2l-0.16-.37-0.39-.18c-1.54-.73-3.11-1.4-4.67-2.11s-3.13-1.37-4.7-2-3.15-1.31-4.73-2-3.18-1.26-4.78-1.86l-1.19-.45,0.48,1.09C158.62,128.94,159.34,130.57,160.14,132.17Z"/>
</svg>
