<svg xmlns="http://www.w3.org/2000/svg" viewBox="0 0 194.8 207">
  <defs>
    <style>
      .cls-1{fill:#18bf96;}
      .cls-2{fill:#00a67c;}
      .cls-3{fill:#00b585;}
      .cls-4{fill:#009369;}
      .cls-5{fill:#010101;opacity:0.05;}
      .cls-6{fill:#6de5bb;}
      .cls-7{fill:#4dc499;}
      .cls-7{opacity:0.77;}
      .cls-8{fill:#49c9a1;}
      .cls-9{opacity:0.22;}
      .cls-12{fill:#020202;}
      .cls-11{fill:#356b85;}
      .cls-12{opacity:0.13;}
    </style>
  </defs>
  <title>rock--green</title>
  <path class="cls-1" d="M140.54 31.92l-.22 25.12 17.36 15.94 32.55-12.38-7.4-23.76-20.96-13.82-21.33 8.9z"/>
  <path class="cls-2" d="M140.32 57.04l-26.52 111.5 10.27 12.81 33.61-108.37-17.36-15.94z"/>
  <path class="cls-3" d="M124.07 181.35l21.49-17.07L190.23 60.6l-32.55 12.38-21.65 69.79-8.3 26.77-3.66 11.81z"/>
  <path class="cls-4" d="M115.68 142.24l-1.88 26.3 5.98-25.14.6-2.54 19.94-83.82.22-25.12-24.86 110.32z"/>
  <path class="cls-5" d="M115.68 142.24l4.7-1.38 6.72-1.96 8.93 3.87 4.98 2.14 4.55 19.37L190.23 60.6l-7.4-23.76-20.96-13.82-21.33 8.9-24.86 110.32z"/>
  <path class="cls-5" d="M141.01 144.91l41.82-108.07-20.96-13.82-21.01 9.27-25.18 109.95 11.42-3.34 13.91 6.01z"/>
  <path class="cls-6" d="M158.88 73.36l-31.15 96.18 28.73-96.93a1.27 1.27 0 1 1 2.43.72zM141.55 57.33l-21.77 86.07 19.31-86.65a1.27 1.27 0 0 1 2.47.55z"/>
  <path class="cls-5" d="M161.87 23c-1.47.65-34.77 115.89-34.77 115.89l-11.43 3.34 25.19-110z"/>
  <path class="cls-6" d="M161.87 23c3.59 2.15 7.15 4.36 10.71 6.56s7.12 4.4 10.66 6.64a.7.7 0 0 1 .3.39l3.63 11.67L190.74 60a1.1 1.1 0 0 1-.63 1.34c-5.31 2.16-10.62 4.33-16 6.44s-10.65 4.27-16 6.35a1.25 1.25 0 0 1-1.3-.24q-8.67-8-17.26-16a1.08 1.08 0 0 1-.34-.82l.44-12.37.51-12.37a.68.68 0 0 1 .42-.6c3.53-1.49 7.09-2.9 10.63-4.35s7.09-2.89 10.66-4.28c-3.43 1.7-6.89 3.35-10.35 5s-6.9 3.32-10.38 4.92l.42-.62v12.38l-.1 12.38-.36-.84q8.77 7.87 17.45 15.83l-1.3-.24c5.32-2.14 10.66-4.22 16-6.32s10.69-4.16 16-6.23l-.66 1.35-3.27-11.78-3.2-11.93.3.41c-3.45-2.37-6.88-4.77-10.3-7.18s-6.86-4.76-10.25-7.23z"/>
  <path class="cls-7" d="M181.78 54.81l-3.44-11.05-17.24-11.38-14.74 6.16-.12 13.29 12.7 11.66 22.84-8.68z"/>
  <path class="cls-3" d="M89.63 159.55l-8.79 8.68L66.76 164 2.06 88.33l45.58-7.64 41.77 66.23z"/>
  <path class="cls-8" d="M47.64 80.69L37.91 93.4l-18.72 5.05L2.06 88.33 8.6 70.58l22.94-6.9 16.1 17.01z"/>
  <path class="cls-5" d="M89.41 146.94l-9.51.43-9.9 5.91L66.76 164 2.06 88.33 8.6 70.58l22.94-6.9 16.1 17 41.77 66.23v.03z"/>
  <path class="cls-5" d="M8.6 70.58l61.37 82.7 9.93-5.91 9.51-.43-41.77-66.25-16.1-17.01-22.94 6.9z"/>
  <path class="cls-5" d="M31.54 63.68l48.36 83.69 9.51-.43-41.77-66.25-16.1-17.01z"/>
  <path class="cls-5" d="M37.91 93.4l-18.72 5.05 61.65 69.78 8.79-8.67-.22-12.62-41.77-66.25-9.73 12.71z"/>
  <path class="cls-5" d="M37.91 93.4l51.72 66.16-.22-12.62-42.14-67.03-9.36 13.49z"/>
  <path class="cls-6" d="M31.54 63.68c2.72 2.65 5.37 5.37 8 8.07s5.3 5.43 7.94 8.16a.8.8 0 0 1 .09 1l-4.34 6.59-4.39 6.5a1.08 1.08 0 0 1-.6.44l-9.37 2.66-9.35 2.56a1.26 1.26 0 0 1-1-.16l-8.12-5.32-8.1-5.35a1.16 1.16 0 0 1-.46-1.34l2.95-8.59 3-8.57a.81.81 0 0 1 .55-.51c3.86-1 7.7-2.12 11.57-3.11s7.73-2 11.61-3C27.78 65 24 66.31 20.21 67.6s-7.58 2.54-11.37 3.8l.56-.55-2.63 8.69-2.71 8.67-.47-1.35 8.16 5.25 8.14 5.29-1-.16 9.37-2.49 9.38-2.44-.64.44 4.6-6.39L46.22 80l.07 1c-2.48-2.87-5-5.72-7.42-8.63s-4.93-5.75-7.33-8.69z"/>
  <path class="cls-7" d="M13.71 74.33l-1.83 11.51 9.55 5.15L35 87.88l3.77-8.41-8.84-10.42-16.22 5.28z"/>
  <g class="cls-9">
    <path class="cls-10" d="M182.83 36.84l-20.96-13.82-21.33 8.9-24.86 110.32-1.88 26.3 5.98-25.14.6-2.53-6.58 27.67 10.27 12.81.96-3.1-.96 3.1 21.49-17.07L190.23 60.6l-7.4-23.76zM89.41 146.91l-3.15-5-39-62-.15.22-15.57-16.45-22.94 6.9-6.54 17.75L66.76 164l14.08 4.21 8.79-8.68-.21-12.62h-.01z"/>
  </g>
  <path class="cls-11" d="M176 186.17a21 21 0 0 1-1.06 6.65c-2.08 5.3-7.91 8-13.36 9.61-14.83 4.37-30.52 4.54-46 4.56h-36c-4 0-8.06 0-12.05-.38a47.75 47.75 0 0 1-10.85-2.09 12.43 12.43 0 0 1-5.78-3.4 12.93 12.93 0 0 1-2.37-5.68c-2.48-11.63-.44-23.72 2.09-35.34 1.46-6.73 3.12-13.48 6.2-19.63 6.18-12.27 17.75-21.36 30.75-25.58a62.58 62.58 0 0 1 25.34-2.89c17.07 1.6 32.73 10.37 44.76 24 6.4 7.27 12.9 14.84 16 24 2.87 8.31 2.7 17.36 2.33 26.17z"/>
  <path class="cls-12" d="M176 186.17a21 21 0 0 1-1.06 6.65c-2.08 5.3-7.91 8-13.36 9.61-14.83 4.37-30.52 4.54-46 4.56h-36c-4 0-8.06 0-12.05-.38A65.24 65.24 0 0 0 103.05 193a32.14 32.14 0 0 0 8-8.62c2.15-3.64 3.19-7.81 4.11-11.92 4.11-18.46 6.07-39-3.76-55.2l1.52-5.3c17.07 1.6 32.73 10.37 44.76 24 6.4 7.27 12.9 14.84 16 24 2.86 8.35 2.69 17.4 2.32 26.21z"/>
  <path class="cls-12" d="M73 143.43c2.08 3.19 5.35 5.37 8.16 7.93 4 3.64 7.14 8.13 11.18 11.7s9.45 6.25 14.74 5.13c5.61-1.19 9.57-6.25 14.88-8.42 2.19-.89 4.64-1.32 6.46-2.82 2.92-2.4 3.28-6.67 3.41-10.46l.44-13c.17-5 .19-10.49-3-14.38-3.36-4.15-9.21-5.13-14.52-5.64-7.46-.72-15-1.1-22.42.15-6.35 1.08-15.9 3.89-20.05 9.3-3.68 4.93-2.46 15.59.72 20.51z"/>
  <path class="cls-1" d="M118.06 15.09l-6.2 24.4-29.83 10.19-44.95-21.86L54.22 7.04 88.83 0l29.23 15.09z"/>
  <path class="cls-2" d="M111.86 39.5l10.21 116.07-18.53 9.3L82.03 49.68l29.83-10.18z"/>
  <path class="cls-3" d="M103.54 164.87l-27.37-23.05-39.09-114 44.95 21.86 13.85 74.18 5.32 28.46 2.34 12.55z"/>
  <path class="cls-4" d="M126.14 129.52l-4.07 26.05-2.3-26.17-.23-2.64-7.68-87.27 6.2-24.4 8.08 114.43z"/>
  <path class="cls-5" d="M126.14 129.52l-6.6-2.76-9.44-3.94-14.22 1.04-7.92.57-11.79 17.39-39.09-114L54.22 7.04 88.83 0l29.23 15.09 8.08 114.43z"/>
  <path class="cls-5" d="M87.96 124.43L54.22 7.04 88.83 0l28.67 15.35 8.64 114.17-16.04-6.7-22.14 1.61z"/>
  <path class="cls-6" d="M83.27 49.45l17.93 102.86L80.78 49.92a1.27 1.27 0 1 1 2.49-.5zM113.13 39.39l6.64 90-9.17-89.78a1.27 1.27 0 1 1 2.52-.26z"/>
  <path class="cls-5" d="M88.83 0c2 1.08 21.27 122.82 21.27 122.82l16 6.7-8.6-114.17z"/>
  <path class="cls-6" d="M88.83 0C83.1 1.37 77.36 2.66 71.61 4L63 5.91l-8.63 1.88.45-.28L46.85 18c-2.66 3.48-5.3 7-8 10.42l-.37-1.65 22.06 10.85 11 5.44 11 5.53-.94-.06 29.88-10-.7.77 6-24.07.37.77c-4.75-2.61-9.47-5.28-14.15-8s-9.48-5.28-14.17-8c4.86 2.4 9.7 4.85 14.53 7.3s9.68 4.89 14.48 7.4a.72.72 0 0 1 .37.79l-5.31 24.25a1 1 0 0 1-.68.76l-29.8 10.33a1.2 1.2 0 0 1-.93-.06l-11-5.45-11-5.54-22-11.09a1.09 1.09 0 0 1-.49-1.47 1.21 1.21 0 0 1 .13-.22c2.71-3.44 5.48-6.84 8.23-10.25l8.25-10.19a.74.74 0 0 1 .44-.26l8.68-1.64 8.69-1.57C77.23 2 83 1 88.83 0z"/>
  <path class="cls-7" d="M51.09 24.77l7.97-9.66 28.47-5.8 20.2 10.43-3.28 12.92-21.83 7.45-31.53-15.34z"/>
  <path class="cls-12" d="M81.94 163.33a134.18 134.18 0 0 1 4.33 13.31c.71 2.49 1.43 5.1.91 7.64-.78 3.82-4.29 6.6-8 7.69s-7.73.78-11.61.46c-4.45-.36-9.58-1.13-11.84-5-1.19-2-1.28-4.52-1.18-6.88.24-6 1.06-12 1.26-18 .13-4 .68-7.75 4.63-9.82 7.48-3.92 18.75 3.79 21.5 10.6zM127.44 189.53a10.39 10.39 0 0 0 1 2.52c1.42 2.28 4.32 3.1 7 3.54a34.81 34.81 0 0 0 14.43-.23c4.59-1.19 9.2-4.23 10.18-8.87a13 13 0 0 0 .08-4.2c-1.13-9.39-10.25-22.93-21.13-21.73-14.26 1.57-14.65 18.8-11.56 28.97z"/>
  <path class="cls-3" d="M83.89 174.5l-4.21 13.83-15.32 2.35-61.29-30.57 39.53-30.87 35.1 31.55z"/>
  <path class="cls-8" d="M42.6 129.24l-3.19 18.69-15.32 14.77-21.02-2.59-2.22-22.63 18.45-18.87 23.3 10.63z"/>
  <path class="cls-5" d="M77.71 160.82L68.92 166l-6.6 11.36 2 13.33-61.25-30.58-2.22-22.63 18.45-18.87 23.3 10.63 35.1 31.55z"/>
  <path class="cls-5" d="M.85 137.48l61.47 39.87 6.6-11.36 8.79-5.17-35.11-31.58-23.3-10.63L.85 137.48z"/>
  <path class="cls-5" d="M19.3 118.61l49.62 47.38 8.79-5.17-35.11-31.58-23.3-10.63z"/>
  <path class="cls-5" d="M39.41 147.93L24.09 162.7l55.59 25.62 4.21-13.82-6.18-13.68-35.11-31.58-3.19 18.69z"/>
  <path class="cls-5" d="M39.41 147.93l44.48 26.57-6.18-13.68-35.83-32.25-2.47 19.36z"/>
  <path class="cls-6" d="M19.3 118.61c3.84 1.6 7.64 3.28 11.45 4.94s7.6 3.36 11.4 5.06a.8.8 0 0 1 .47.82l-1 9.31-1.07 9.3a1.08 1.08 0 0 1-.32.65l-7.6 7.45L25 163.6a1.27 1.27 0 0 1-1.09.33l-10.2-1.8-10.23-1.83a1.16 1.16 0 0 1-.95-1l-1.31-10.85L0 137.59a.81.81 0 0 1 .24-.67c3.16-3.07 6.29-6.16 9.48-9.19s6.34-6.1 9.58-9.09c-2.92 3.3-5.91 6.53-8.87 9.78s-6 6.46-9 9.69l.24-.71 1.61 10.8L4.85 159l-1-1 10.25 1.7 10.21 1.76-1.09.33 7.69-7.36 7.73-7.32-.34.67 1.32-9.27 1.38-9.26.46.85c-3.7-1.88-7.42-3.76-11.1-5.69s-7.36-3.82-11.06-5.8z"/>
  <path class="cls-7" d="M7.47 139.05l3.72 13.48 11.48.91 11.37-10.11-.42-11.04-13.3-7.02-12.85 13.78z"/>
  <path class="cls-3" d="M144.56 192.79l-13.2-2.91-2.81-13.45L155 120.24l30.63 33.23-28.42 33z"/>
  <path class="cls-8" d="M185.67 153.47l-17.76-1.72-14.51-12.71 1.64-18.8 21.25-3.31 18.51 15.25-9.13 21.29z"/>
  <path class="cls-5" d="M157.23 186.49L152 179l-11-5.18-12.49 2.61L155 120.24l21.25-3.31 18.51 15.24-9.13 21.3-28.42 33z"/>
  <path class="cls-5" d="M176.29 116.93l-35.25 56.89 10.97 5.18 5.22 7.49 28.44-33.02 9.13-21.29-18.51-15.25z"/>
  <path class="cls-5" d="M194.8 132.18L152.01 179l5.22 7.49 28.44-33.02 9.13-21.29z"/>
  <path class="cls-5" d="M167.91 151.75l-14.51-12.71-22.04 50.84 13.2 2.91 12.67-6.3 28.44-33.02-17.76-1.72z"/>
  <path class="cls-5" d="M167.91 151.75l-23.35 41.04 12.67-6.3 29.04-33.7-18.36-1.04z"/>
  <path class="cls-6" d="M194.8 132.18c-1.35 3.52-2.79 7-4.2 10.49s-2.87 7-4.32 10.44a.8.8 0 0 1-.76.49l-8.81-.33-8.81-.38a1.08 1.08 0 0 1-.66-.26l-7.32-6.29-7.35-6.34a1.27 1.27 0 0 1-.42-1.12l1.31-9.15 1.35-9.15a1.16 1.16 0 0 1 .95-1l10.18-1.77 10.2-1.7a.81.81 0 0 1 .66.19c3 2.63 6 5.23 9 7.9s6 5.29 8.94 8c-3.22-2.37-6.39-4.82-9.57-7.24s-6.33-4.89-9.48-7.34l.7.18-10.12 2.1-10.14 2 1-1-1.23 9.17-1.27 9.16-.42-1.12 7.23 6.39 7.2 6.43-.68-.28 8.8.63 8.79.68-.8.49c1.64-3.39 3.27-6.78 5-10.15s3.31-6.78 5.05-10.12z"/>
  <path class="cls-7" d="M175.06 122.9l-12.57 4.09-.42 10.24 9.97 9.49 10.41-1.03 6.1-12.21-13.49-10.58z"/>
</svg>
