<svg xmlns="http://www.w3.org/2000/svg" viewBox="0 0 128.95 109.92">
  <defs>
    <style>
      .cls-1{isolation:isolate;}
      .cls-2{fill:#d7a350;}
      .cls-3{fill:#efb140;}
      .cls-4{fill:#9e7634;}
      .cls-5{fill:#815e3a;opacity:0.4;mix-blend-mode:multiply;}
      .cls-6{fill:#d3b08a;}
      .cls-7{fill:#f4cb88;}
    </style>
  </defs>
  <g class="cls-1">
    <path class="cls-2" d="M124.45 63c-2.33 3.59-18.87 13.49-21.21 15.58s-10.17 9.78-13.79 11.3-32.88 14.84-35.54 14.69-8.38-1.52-9.89-1.52-13.31 8.66-19.72 6.53c-8.75-2.88-22-14.49-22-14.49l26.63-38.57 34.69-42s55.81 0 62.33 13.5a28.61 28.61 0 0 1 2.61 9.13c1.61 11.39-2.3 23.08-4.11 25.85z"/>
    <path class="cls-3" d="M128.95 42.45C114.2 36.4 95.6 34.16 92.27 38c-4.77 5.48-11.19 6.39-14.92 9.23s-30.2 9.51-31.82 13.5c.94-2.37 5.18-16.53 9.21-23.17a33.55 33.55 0 0 1 5.79-7c2.15-1.25 10.13-6 12.29-8.21.65-.31 1.36-.59 2-.85a8.57 8.57 0 0 1 1.47-.39.07.07 0 0 0 .08 0 .12.12 0 0 0 .08 0c3.88.19 10.57.29 13.21.66s9.32 2.31 18.38 3.66 17.16 5.39 17.75 7.7a15.23 15.23 0 0 0 2.68 4 46.18 46.18 0 0 1 .48 5.32z"/>
    <path class="cls-2" d="M88.57 40.36c-1.43 1.37-9.09 4.61-10.37 5.39S72.33 49 71 49.73h-.1c-3.92 1.1-11.24 3.24-13 3.49A50.2 50.2 0 0 0 47.14 57c-1.27.88-6.94 11.26-8.64 12.43s-1.78 1.72-6.36 9.32c2.21-.94 5.75-5.86 6.57-6.77s8.72-11 10.92-13.06 5.35-2.52 7.75-3.06c3.29-.74 5.16-2 7.53-2.12 1.61-.09 12.76-5.82 14.85-7.06a49.7 49.7 0 0 1 5.74-2.88 19.53 19.53 0 0 0 7.14-6.19c-.81.82-2.64 1.39-4.07 2.75z"/>
    <path class="cls-4" d="M44 103.05c-1.5 0-13.31 8.66-19.72 6.53-8.75-2.88-22-14.49-22-14.49s12.08-9.63 15.4-7.47l2.75 1.72c6.32 3.91 20.08 12.12 23.57 13.71z"/>
    <path class="cls-5" d="M44 103.05s-4.76.39-6.48-.4-5.11-2.89-6.41-3.4-7.33-2.91-8.11-3.43a14.47 14.47 0 0 0-5.78-1.34l3.16-5.13c6.37 3.9 20.13 12.11 23.62 13.7z"/>
    <path class="cls-6" d="M125.95 28c-13.29-2.54-39.64-8.71-49.42-6.93a.07.07 0 0 1-.08 0 8.24 8.24 0 0 0-1.47.4c-.33.13-.68.26-1 .41s-.69.28-1 .43a43.37 43.37 0 0 0-12.29 8.21 33.85 33.85 0 0 0-5.8 7c-3.14 5.17-6.4 14.89-8.14 20.07-.5 1.47-.87 2.57-1.08 3.1-.94 2.35-11.31 16.53-13.34 18-1.12.79-5 7.13-8.94 12.26a45 45 0 0 1-3.23 3.76c-1.56 1.6-3 2.7-4.27 2.87-5.1.72-13.42-2.59-13.42-2.59v-.1c-.31-1.44-4-18.95-1.12-23.06.58-1 2.65-4.21 5.29-8.41 7.45-11.82 19.51-31.44 21-33.9a51.5 51.5 0 0 1 3.29-4.42c4.88-6.22 13.71-16.33 18.28-18.65.9-.44 2-1 3.43-1.5 8.09-3.12 23.37-7 30.29-3.69C91 5.2 122.36 19.73 125.95 28z"/>
    <path class="cls-7" d="M128.56 37.14a15.23 15.23 0 0 1-2.68-4c-.59-2.3-8.69-6.35-17.75-7.7s-15.72-3.24-18.38-3.66-9.47-.49-13.32-.67a.07.07 0 0 1-.08 0c1.22-1.55 7.69-3 11.74-1.61s9.65 2 14.11 2.94 16.17 2.4 18 3.14 4.25-.19 5.72 2.46a28.69 28.69 0 0 1 2.64 9.1z"/>
    <path class="cls-7" d="M125.95 28c-13.29-2.54-39.64-8.71-49.42-6.93a.07.07 0 0 1-.08 0 8.24 8.24 0 0 0-1.47.4c-.33.13-.68.26-1 .41s-.69.28-1 .43a43.37 43.37 0 0 0-12.29 8.21 33.85 33.85 0 0 0-5.8 7c-3.14 5.17-6.4 14.89-8.14 20.07-.5 1.47-.87 2.57-1.08 3.1-.94 2.35-11.31 16.53-13.34 18-1.12.79-5 7.13-8.94 12.26l-.39.36a42.93 42.93 0 0 1-3 3.5c-1.56 1.6-3 2.7-4.27 2.87-5.1.72-13.42-2.59-13.42-2.59v-.1C2 93.73-1 79.8.37 73.81a5.29 5.29 0 0 1 .75-1.86c.81-1.12 2.88-4.33 5.52-8.53 7.45-11.82 19.51-31.44 21-33.9a51.5 51.5 0 0 1 3.29-4.42c4.88-6.22 13.71-16.33 18.28-18.65.9-.44 2-1 3.43-1.5 8.09-3.12 23.37-7 30.29-3.69C91 5.2 122.36 19.73 125.95 28z"/>
    <path class="cls-3" d="M9.38 66.28c1.61-.77 6.4 2 7.86 4s2.18 10.48 2.6 12 2.46 2.87 1.64 4.94-3 5.84-4.46 6.46-11.46-.1-11.88-.78S2.53 77.46 3.12 76s3.51-8.41 6.26-9.72z"/>
    <path class="cls-7" d="M73.32 21.72a2 2 0 0 1-.47.6c-2.16 2.22-10.14 7-12.29 8.21l-.56.31c4.79-5.32 8.12-11.52 6.81-15.24a2.49 2.49 0 0 0-.7-1.07c-2.44-2.66-9.69-2.61-13.83-3.92-4.51-1.38-13.35 8.08-21.36 14.49 4.89-6.22 13.72-16.33 18.3-18.65.89-.44 2-1 3.42-1.5 2.26.94 4 2.36 5 2.26 2.14-.17 8.08 2 12.7 3.84a5.71 5.71 0 0 1 3.3 3.72 10.62 10.62 0 0 1-.32 6.95z"/>
  </g>
</svg>
