<svg xmlns="http://www.w3.org/2000/svg" viewBox="0 0 412.12 207.66">
  <defs>
    <style>
      .cls-1{isolation:isolate;}
      .cls-2{fill:#cececd;}
      .cls-3{fill:#c9a168;}
      .cls-4{fill:#d4b587;}
      .cls-5{fill:#b7b6b6;}
      .cls-6{fill:#575757;}
      .cls-7{fill:#f5e5cd;}
      .cls-8{fill:#ddd7d7;}
      .cls-9{fill:#1b1c1c;}
      .cls-10{fill:#6b6b6b;}
      .cls-11{fill:#938980;}
      .cls-12{fill:#f8eee4;}
      .cls-13{fill:#f4f4f4;}
      .cls-14{fill:#684a38;}
      .cls-15{fill:#f6f7f7;}
      .cls-16{opacity:0.4;mix-blend-mode:multiply;}
      .cls-17{fill:#d3b08a;}
      .cls-18{fill:#f8efe2;}
      .cls-19{fill:#2f2f2f;}
      .cls-20{fill:#c6882f;}
      .cls-21{fill:#efeeed;}
      .cls-22{fill:#ece5e5;}
      .cls-23{fill:#3a2913;}
    </style>
  </defs>
  <g class="cls-1">
    <path class="cls-2" d="M39.62 109.4l17.67 25.46 25.46 2.82 22.28 11.67 28.99-20.51 9.54-28.99-25.45-27.93-35.47 1.4-35.95 13.45-7.07 22.63z"/>
    <path class="cls-3" d="M51.28 155.01l6.01-20.15h-8.84l-10.6 8.13 13.43 12.02z"/>
    <path class="cls-4" d="M39.62 109.4l-4.25 16.97 2.48 16.62 9.19-1.77 10.25-6.36-17.67-25.46z"/>
    <path class="cls-5" d="M108.21 165.97l-3.18-16.62-22.28-11.67-25.46-2.82-6.01 20.15 38.19 11.31 18.74-.35z"/>
    <path class="cls-6" d="M146.68 128.14l-11.61 24.39L108.21 166l-2.82-14.71-.39-1.94 18.42-23.65v-.07l20.08-25.78 2.32 21z"/>
    <path class="cls-7" d="M82.75 137.68l7.08-39.09-50.21 10.81 17.67 25.46 25.46 2.82z"/>
    <path class="cls-2" d="M118.11 71.92L89.83 98.59S66.1 108.66 63.5 108.66s-23.89.74-23.89.74l7.07-22.63 35.96-13.45z"/>
    <path class="cls-8" d="M62.12 78.3c6.62-2.73 20.82-7.76 25.61-7.27 1.87.19 14.31-1.27 19.76-1.13 8.51.23 10.62 2 10.62 2S93 75.49 88.05 75.66s-25.11 6.6-27.05 7.6-14.27 3.52-14.27 3.52 12.58-7.32 15.39-8.48z"/>
    <path class="cls-2" d="M91.28 142.15c3.57 1.33 11.25 4.47 12.38 4.47s3.62-3.39 5.66-5.2 14-16.51 16.06-18.55c0 0-7.92 11.54-9.73 14.48s-4.9 8.09-6.36 9.81c-1.32 1.56-3.11 5.3-4.92 3.72s-11.74-6.88-13.09-8.73z"/>
    <path class="cls-9" d="M145.86 128.14l-11.61 24.39L107.39 166c4.52-3.57 21.13-13.37 22-14.64s9.23-12.76 10.12-15.67 4.8-8 5.06-10.74c.1-1.08.29-2.52.48-4.05zM95 189.34c.27.4 1.25 3.39 1.25 3.39a21.21 21.21 0 0 1-.13 3.74 12.55 12.55 0 0 1-2.49 3.78 2.32 2.32 0 0 1-1.71.41c-1 0 .66-2.19.66-2.19l1.6-7z"/>
    <path class="cls-10" d="M94.13 193.57a13.21 13.21 0 0 1 .51 2.11 4.76 4.76 0 0 1-.83 2.64c-.25.36-1.14 1.67-1.3 1.8a39.56 39.56 0 0 1-4.24.7 33.2 33.2 0 0 1-4.13-1.93c-.35-.28-5-.44-5.42-.75s-2.8-1.66-2.85-2.13a6.49 6.49 0 0 1 .67-2.32 1.26 1.26 0 0 1 .53-.29l2-1.87z"/>
    <path class="cls-11" d="M94.4 194.31v.07c-.13.43-2.25 4.06-2.25 4.06a45.21 45.21 0 0 1-4.91-1.1c-.73-.36-5-2.41-5.39-2.8a19.75 19.75 0 0 0-3.43-1.69 4.28 4.28 0 0 0-1.34.53l-.08-.44a6.74 6.74 0 0 1 1.12-.53 10.52 10.52 0 0 1 2.82.76c.25.22 1.36 1.43 1.36 1.43s3.53 1.94 3.66 2 2.92.85 2.92.85a25.81 25.81 0 0 0 2.62.34 5.85 5.85 0 0 0 1-.72c.15-.18 1-2 1.11-2.09s.45-.39.79-.67z"/>
    <path class="cls-2" d="M95.08 189.65a7.52 7.52 0 0 1 .14 2.4v.06a2.36 2.36 0 0 0-.29.61c-.19.53-.39 1.24-.49 1.57v.07c-.19.53-2.25 4-2.25 4a45.19 45.19 0 0 1-4.91-1.1c-.73-.36-5-2.41-5.39-2.8a19.75 19.75 0 0 0-3.43-1.69 1.2 1.2 0 0 0-.55.14 8.63 8.63 0 0 0-.79.38l-.12-.35-.08-.65s1-2.35 1.15-2.47 4.42-1.45 4.85-1.58c.4-.12 2.39 0 2.79 0h.06a35.29 35.29 0 0 1 3.7-.76c.66 0 4.74.56 4.74.56a5.44 5.44 0 0 1 .87 1.61z"/>
    <path class="cls-6" d="M84.12 198.89a33.2 33.2 0 0 0 4.13 1.93 39.56 39.56 0 0 0 4.24-.7c.17-.13 1.05-1.45 1.3-1.8a4.76 4.76 0 0 0 .83-2.64c-.08-.43-.17-.87-.25-1.24a8.83 8.83 0 0 1-.4 2.64 5 5 0 0 1-1.63 1.92c-.42.31-4.12-.58-4.67-.65A56.36 56.36 0 0 1 82 196a27.68 27.68 0 0 0-5.06-.91 1.24 1.24 0 0 0-1.05 1c0 .47 2.44 1.82 2.85 2.13s5.04.39 5.38.67z"/>
    <path class="cls-12" d="M82.91 188.23c-1.42.64-3.8 1.74-3.95 1.85s-.32.63-.7 1.13a4.16 4.16 0 0 0-.42 1.8 8.63 8.63 0 0 0-.79.38l-.05-.45-.08-.65s1-2.35 1.15-2.47 4.42-1.46 4.84-1.59z"/>
    <path class="cls-6" d="M94.4 194.31v.07c-.13.43-2.25 4.06-2.25 4.06a45.21 45.21 0 0 1-4.91-1.1c-.73-.36-5-2.41-5.39-2.8a19.75 19.75 0 0 0-3.43-1.69 4.28 4.28 0 0 0-1.34.53l-.08-.44a6.74 6.74 0 0 1 1.12-.53 10.52 10.52 0 0 1 2.82.76c.25.22 1.36 1.43 1.36 1.43s3.53 1.94 3.66 2 2.92.85 2.92.85a25.81 25.81 0 0 0 2.62.34 5.85 5.85 0 0 0 1-.72c.15-.18 1-2 1.11-2.09s.45-.39.79-.67z"/>
    <path class="cls-10" d="M92.4 199.82a.62.62 0 0 1-.51.84A7 7 0 0 1 90 201c-.8 0-1.65 0-1.55-.38a.82.82 0 0 1 .68-.55 23.15 23.15 0 0 1 3.27-.25z"/>
    <path class="cls-13" d="M90.87 191.58c-.28.18-1.19 1.23-1.69 1.25-.17 0-.62 0-1.14-.09h-.14c-1-.11-2.15-.26-2.36-.26a2.33 2.33 0 0 0-.6.2h.61a2.74 2.74 0 0 1 1.11.35 12.63 12.63 0 0 0 2.38.26c.08 0 .33-.19.63-.38A13.55 13.55 0 0 0 91 192c.3-.28.36-.06.6-.11a31.57 31.57 0 0 1 3.27.82 2.36 2.36 0 0 1 .29-.61 27.88 27.88 0 0 0-4.29-.52zM84.59 188.94c-.07-.53 1-.06 1.13-.08s.82-.32 1-.33a3.36 3.36 0 0 1 .76.26 1 1 0 0 1-.37.52 4.47 4.47 0 0 1-1.24 0c-.22 0-1.23.1-1.28-.37z"/>
    <path class="cls-10" d="M95.08 189.65a7.52 7.52 0 0 1 .14 2.4 4.55 4.55 0 0 1-.52-1.31 2.92 2.92 0 0 0-.48-1.16 5.07 5.07 0 0 0-.61-1.21c-.29-.33-3-.33-3.43-.44a3.49 3.49 0 0 0-1.5 0c-.25.11-3 .27-3 .27h.06a35.29 35.29 0 0 1 3.7-.76c.66 0 4.74.56 4.74.56a5.44 5.44 0 0 1 .9 1.65z"/>
    <path class="cls-5" d="M227.89 64.64v2.59a31.77 31.77 0 0 1-.3 3.62c0 .16 0 .31-.07.43-1 5.39-10.11 36.39-18.2 39.09s-39.76 9.77-45.15 10.11h-1.27a24.37 24.37 0 0 1-6.89-1.05 39.31 39.31 0 0 1-10-4.72C140.69 110 125 89.82 133.13 77.69c1.54-2.32 7.14-12.18 12.06-20.29 2.39-3.95 4.62-7.48 6.13-9.53a15.7 15.7 0 0 1 1-1.27 3 3 0 0 1 .58-.53l.1-.07a15.06 15.06 0 0 0 3.35-1 4.68 4.68 0 0 0 1.25-1l.33-.38c5.29-5.89 15-8.93 18.41-11.28a1.83 1.83 0 0 1 .87-.38c2.69 0 18.53 2.7 21.9 3.71s24.89 9.75 27.2 13.06a1.38 1.38 0 0 1 .16.31c0 .06 0 .12.06.21.64 2.19 1.26 8.48 1.36 14.1-.01.43 0 .86 0 1.29z"/>
    <path class="cls-10" d="M227.89 64.64v2.59a31.77 31.77 0 0 1-.3 3.62c0 .16 0 .31-.07.43-1 5.39-10.11 36.39-18.2 39.09s-39.76 9.77-45.15 10.11h-1.27a24.37 24.37 0 0 1-6.89-1.05 39.31 39.31 0 0 1-10-4.72S160.09 93.41 161.8 89s27.94-13.24 27.94-13.24l38.14-12.42c0 .44.01.87.01 1.3z"/>
    <path class="cls-2" d="M228.06 68.82c0 .16-.56 1.42-.58 1.53-.68 3.47-20.38 25.27-23.1 25.61s-16.31 4.85-22.76 1.39c-2.23-1.2-14.9-5.19-18.86-8.27a2.86 2.86 0 0 1-1.17-1.42c-.32-1.45-2.71-11-5-20.76-1.08-4.59-2.13-9.23-2.93-13.09-.62-3-1.09-5.56-1.31-7.23.21-.58 14.82-15.17 18.25-17.52.37-.25 6.42-1.2 6.62-1.2 2.64 0 18 2.61 21.71 3.65h.16c3.26 1 24.91 13.64 27.18 17.19a1.38 1.38 0 0 1 .16.31c0 .06.19.38.2.46 1.06 3.37 1.61 18.19 1.43 19.35z"/>
    <path class="cls-2" d="M170.18 87.88c3.31 1 9.17 5.6 10.19 5.86s13 2.29 16.3 1.27a43 43 0 0 0 11-6.11c1.27-1.27 9.68-14.26 10.7-14.77s3.06-6.62 3.31-13.5-.25-11.21-2.8-14-8.66-4.84-10.44-3.06-2.8 9.68-2.8 9.68l4.07 4.08s0 6.88-3.06 9.93-2.55 16.3-6.37 17.32-12.48-7.39-14-7.64-4.84-.51-6.88 1.78-9.22 9.16-9.22 9.16z"/>
    <path class="cls-10" d="M155.48 64.13c1.27 3 3.32 13 3.32 15.66s1.58 6.8 1.27 8.54-3.8 10.12-5.22 12.65c0 0 6.17-7.43 7-9.17s.95-2.06.95-3.16-2.53-10.91-3-13-4.32-11.52-4.32-11.52z"/>
    <path class="cls-2" d="M198.95 31.49c-3.77-.4-18.65-2.47-20.33-2.47-1.86 0-7.78 1.86-9.47 2.88-1.42.85-9.53 9.59-12.79 13.06l-1.25 1.32c-1.18 1.18-1 5.58-1 8.62l-.44-1.09c-.59-1.47-1.65-4.13-2.33-6a15.7 15.7 0 0 1 1-1.27c.21-.58 14.82-15.17 18.25-17.52.37-.25 6.42-1.2 6.62-1.2 2.66.02 18.01 2.62 21.74 3.67z"/>
    <path class="cls-8" d="M145.93 114.75c-5.24-4.75-20.93-24.93-12.8-37.06 1.54-2.32 7.14-12.18 12.06-20.29l.19.09c-2.09 3.76-9 18.56-9.39 19.4s-3.55 6.25-3.34 8.55 4.67 17.95 13.28 29.31z"/>
    <path class="cls-9" d="M227.68 69.83c0 .36-.08.71-.13 1 0 .16 0 .31-.07.43-1 5.39-10.11 36.39-18.2 39.09s-39.76 9.77-45.15 10.11h-1.27a24.37 24.37 0 0 1-6.89-1.05 20 20 0 0 1 2.35-.15c20.6-.28 42.27-7.38 46.79-9.07s8.47-9.88 11.56-15c2-3.35 5.07-12.69 7.06-19.24l.58-.75.68-.9.31-.43.74-1a18.62 18.62 0 0 0 1.05-1.7 5.38 5.38 0 0 0 .24-.5 2.9 2.9 0 0 0 .12-.39c.06-.04.14-.28.23-.45z"/>
    <path class="cls-14" d="M225.32 74l.74-1z"/>
    <path class="cls-10" d="M331.94 192.41v.71a8.68 8.68 0 0 1-.08 1v.12c-.28 1.47-2.76 9.93-5 10.67a113.44 113.44 0 0 1-12.32 2.76h-.34a6.65 6.65 0 0 1-1.88-.29 10.72 10.72 0 0 1-2.74-1.29c-1.43-1.29-5.7-6.8-3.49-10.11.42-.63 1.95-3.32 3.29-5.54.65-1.08 1.26-2 1.67-2.6a4.27 4.27 0 0 1 .28-.35.82.82 0 0 1 .16-.14 4.12 4.12 0 0 0 .91-.29 1.28 1.28 0 0 0 .34-.26l.09-.1c1.44-1.61 4.09-2.44 5-3.08a.5.5 0 0 1 .24-.1 50.82 50.82 0 0 1 6 1c.89.27 6.79 2.66 7.42 3.57v.15a20.54 20.54 0 0 1 .37 3.85c.08.09.08.21.08.32z"/>
    <path class="cls-6" d="M331.94 192.41v.71a8.68 8.68 0 0 1-.08 1v.12c-.28 1.47-2.76 9.93-5 10.67a113.44 113.44 0 0 1-12.32 2.76h-.34a6.65 6.65 0 0 1-1.88-.29 10.72 10.72 0 0 1-2.74-1.29s3.86-5.82 4.33-7 7.62-3.61 7.62-3.61l10.41-3.39v.32z"/>
    <path class="cls-2" d="M332 193.56s-.15.39-.16.42c-.19.95-5.56 6.89-6.3 7s-4.45 1.32-6.21.38c-.61-.33-4.07-1.42-5.15-2.26a.78.78 0 0 1-.32-.39c-.09-.4-.74-3-1.37-5.66-.29-1.25-.58-2.52-.8-3.57-.17-.82-.3-1.52-.36-2a60.2 60.2 0 0 1 5-4.78c.1-.07 1.75-.33 1.81-.33a51.86 51.86 0 0 1 5.92 1c.89.27 6.8 3.72 7.42 4.69v.09s.05.1.06.13a32.57 32.57 0 0 1 .46 5.28z"/>
    <path class="cls-15" d="M316.19 198.75a25.59 25.59 0 0 1 2.78 1.6c.28.07 3.54.63 4.45.35a11.72 11.72 0 0 0 3-1.67c.35-.35 2.64-3.89 2.92-4s.83-1.81.9-3.68-.07-3.06-.76-3.82-2.36-1.32-2.85-.83a7.45 7.45 0 0 0-.76 2.64l1.11 1.11a4.61 4.61 0 0 1-.83 2.71c-.83.83-.69 4.45-1.74 4.73s-3.41-2-3.82-2.08a2.06 2.06 0 0 0-1.88.49c-.57.58-2.52 2.45-2.52 2.45z"/>
    <path class="cls-12" d="M312.19 192.27a19.93 19.93 0 0 1 .91 4.27c0 .73.43 1.86.35 2.33a23.54 23.54 0 0 1-1.42 3.45 28.22 28.22 0 0 0 1.9-2.5 1.69 1.69 0 0 0 .26-.86c0-.3-.69-3-.82-3.54s-1.18-3.15-1.18-3.15zM324 183.37c-1-.11-5.09-.67-5.55-.67a8.76 8.76 0 0 0-2.58.78c-.39.23-2.6 2.62-3.49 3.56l-.34.36c-.32.32-.28 1.52-.28 2.35l-.12-.3c-.16-.4-.45-1.13-.64-1.62a4.27 4.27 0 0 1 .28-.35 60.2 60.2 0 0 1 5-4.78c.1-.07 1.75-.33 1.81-.33a51.86 51.86 0 0 1 5.91 1z"/>
    <path class="cls-2" d="M309.58 206.09c-1.43-1.29-5.7-6.8-3.49-10.11.42-.63 1.95-3.32 3.29-5.54h.05c-.57 1-2.45 5.06-2.56 5.29a6.83 6.83 0 0 0-.91 2.33 22.47 22.47 0 0 0 3.62 8.03z"/>
    <path class="cls-9" d="M331.88 193.83v.4c-.28 1.47-2.76 9.93-5 10.67a113.44 113.44 0 0 1-12.32 2.76h-.36a6.65 6.65 0 0 1-1.88-.29 5.47 5.47 0 0 1 .64 0 43.93 43.93 0 0 0 12.77-2.48c1.23-.46 2.31-2.7 3.16-4.08a32.65 32.65 0 0 0 1.93-5.25l.16-.2.19-.24.09-.12.2-.28a5.07 5.07 0 0 0 .29-.46l.07-.14v-.11z"/>
    <path class="cls-14" d="M331.24 195l.2-.28z"/>
    <path class="cls-10" d="M106.14 153.5c-2.94 2.12-19 4.88-21.48 5.81s-11 4.6-14.32 4.7-30.46 1.68-32.5.75-6.14-3.76-7.33-4.22-13.14 2.77-17.54-.87c-6-4.94-13-18.15-13-18.15l32.8-22.28L73 96.7s44 17 45 29.66a24.19 24.19 0 0 1-.72 8c-2.21 9.47-8.86 17.5-11.14 19.14z"/>
    <path class="cls-5" d="M116 138.66c-9.79-9.27-23.77-16.72-27.56-14.71-5.44 2.86-10.78 1.62-14.58 2.73s-26.72-1.71-29.21.94c1.47-1.58 9.13-11.45 14.33-15.46a28.36 28.36 0 0 1 6.7-3.75c2.08-.33 9.81-1.63 12.2-2.72h1.86a7.24 7.24 0 0 1 1.28.14.06.06 0 0 0 .06 0 .1.1 0 0 0 .06 0c3 1.33 8.25 3.45 10.21 4.55s6.65 4.62 13.4 8.49 11.89 9.49 11.65 11.48a12.87 12.87 0 0 0 .88 4 39.07 39.07 0 0 1-1.28 4.31z"/>
    <path class="cls-10" d="M84.76 124.69c-1.54.64-8.57.86-9.82 1.09s-5.62.75-6.91.93h-.09c-3.43-.33-9.85-.87-11.32-1.22a42.45 42.45 0 0 0-9.6-.32c-1.27.31-8.91 6.76-10.61 7.17s-1.92.81-7.86 5.41c2-.07 6.32-2.87 7.25-3.33s10.23-6 12.59-7 5-.35 7 0c2.82.42 4.67 0 6.58.63 1.3.42 11.84-.7 13.86-1a42 42 0 0 1 5.4-.52 16.51 16.51 0 0 0 7.52-2.7c-.83.34-2.44.22-3.99.86z"/>
    <path class="cls-6" d="M30.51 160.54c-1.17-.48-13.14 2.77-17.54-.87-6-4.94-13-18.15-13-18.15s12.46-3.91 14.42-1.19c.32.45.9 1.21 1.64 2.2 3.85 5.01 12.19 15.68 14.48 18.01z"/>
    <path class="cls-16" d="M30.51 160.54s-3.87-1.14-5-2.29-3.15-3.84-4-4.64-4.91-4.54-5.35-5.18a12.24 12.24 0 0 0-4.16-2.81l4.06-3.08c3.82 5 12.16 15.67 14.45 18z"/>
    <path class="cls-17" d="M118 126.36c-9.71-6.06-28.6-19-36.86-20.54a.06.06 0 0 1-.07 0 7 7 0 0 0-1.28-.14h-1.86a36.67 36.67 0 0 0-12.2 2.73 28.62 28.62 0 0 0-6.7 3.75c-4.05 3.12-9.59 9.79-12.54 13.34-.84 1-1.47 1.76-1.8 2.12-1.45 1.57-14 9.58-16 10.16h-.17c-1.12.28-6.08 4.11-10.79 6.94a38 38 0 0 1-3.69 2 7.48 7.48 0 0 1-4.24 1c-4.24-1-9.8-6.13-9.8-6.13v-.08c.19-1.23 2.59-16.18 6.15-18.52 1-.63 3.59-2.54 7-5 9.48-7 25-18.84 26.89-20.33A43.51 43.51 0 0 1 44 95.07c5.75-3.41 15.8-8.69 20.11-9.12.84-.08 1.9-.13 3.16-.14 7.33 0 20.56 1.6 25 6.33 5.13 5.56 25.42 26.59 25.73 34.22z"/>
    <path class="cls-2" d="M117.28 134.35a12.88 12.88 0 0 1-.88-4c.24-2-4.91-7.66-11.65-11.48s-11.41-7.35-13.37-8.49-7.32-3.28-10.3-4.59a.06.06 0 0 1-.06 0c1.43-.85 7 0 9.75 2.31s7 4.48 10.23 6.62 12 6.83 13.25 8 3.41 1.15 3.76 3.69a24.26 24.26 0 0 1-.73 7.94z"/>
    <path class="cls-2" d="M118 126.36c-9.71-6.06-28.6-19-36.86-20.54a.06.06 0 0 1-.07 0 7 7 0 0 0-1.28-.14h-1.86a36.67 36.67 0 0 0-12.2 2.73 28.62 28.62 0 0 0-6.7 3.75c-4.05 3.12-9.59 9.79-12.54 13.34-.84 1-1.47 1.76-1.8 2.12-1.45 1.57-14 9.58-16 10.16h-.17c-1.12.28-6.08 4.11-10.79 6.94l-.25.14A36.33 36.33 0 0 1 14 146.7a7.48 7.48 0 0 1-4.24 1c-4.24-1-9.8-6.13-9.8-6.13v-.08c.16-1.09 2.07-13 5-17.28a4.48 4.48 0 0 1 1.16-1.24c1-.63 3.59-2.54 7-5 9.48-7 25-18.84 26.89-20.33A43.51 43.51 0 0 1 44 95.07c5.75-3.41 15.8-8.69 20.11-9.12.84-.08 1.9-.13 3.16-.14 7.33 0 20.56 1.6 25 6.33 5.13 5.56 25.42 26.59 25.73 34.22z"/>
    <path class="cls-5" d="M14.41 121c1.5-.11 4.43 3.55 5 5.54s-1.48 8.93-1.62 10.27 1.07 3-.22 4.4-4.15 3.69-5.49 3.74-9-3.57-9.13-4.23 2.66-13 3.57-14 5.32-5.55 7.89-5.72z"/>
    <path class="cls-2" d="M78.42 105.34a1.68 1.68 0 0 1-.55.33c-2.39 1.09-10.12 2.39-12.2 2.72l-.48.08c5.4-2.74 9.92-6.61 10-9.94a2.1 2.1 0 0 0-.23-1.06c-1.11-2.84-6.84-5-9.71-7.31-3.15-2.47-13 2.29-21.28 4.9 5.75-3.42 15.8-8.69 20.11-9.13.83-.07 1.9-.13 3.15-.14 1.5 1.43 2.46 3.09 3.26 3.31 1.73.52 5.76 4 8.84 6.9a4.83 4.83 0 0 1 1.46 4 9 9 0 0 1-2.37 5.34z"/>
    <path class="cls-6" d="M284.49 197.81a25.89 25.89 0 0 1-3.47.94 11.66 11.66 0 0 1-2.31.76c-.54 0-4.92.27-5.25.12s-1-.61-1.18-.68-2.12.45-2.83-.14a12.42 12.42 0 0 1-2.09-2.93l5.3-3.6 6.49-3.64s7.11 2.75 7.27 4.79a3.91 3.91 0 0 1-.12 1.29 6.39 6.39 0 0 1-1.81 3.09z"/>
    <path class="cls-10" d="M286.07 195.42c-1.58-1.5-3.84-2.7-4.45-2.38a8.27 8.27 0 0 1-2.36.44c-.62.18-4.32-.28-4.72.15a21.38 21.38 0 0 1 2.31-2.5 4.58 4.58 0 0 1 1.08-.61 12.39 12.39 0 0 0 2-.44h.51c.48.21 1.33.56 1.65.74s1.07.75 2.16 1.37a3.81 3.81 0 0 1 1.88 1.86 2.08 2.08 0 0 0 .14.65 6.33 6.33 0 0 1-.2.72z"/>
    <path class="cls-2" d="M281 193.16a13.87 13.87 0 0 1-1.59.18l-1.12.15c-.55-.05-1.59-.14-1.83-.2a6.85 6.85 0 0 0-1.55-.05c-.21 0-1.44 1.09-1.71 1.16a3.73 3.73 0 0 0-1.27.87 4.19 4.19 0 0 0 1.17-.54c.15-.07 1.65-1 2-1.13a2.18 2.18 0 0 1 1.14 0 8.35 8.35 0 0 1 1.06.1 14.76 14.76 0 0 0 2.24-.17 6.8 6.8 0 0 1 .87-.08 2.67 2.67 0 0 0 1.21-.44c-.08.06-.34.05-.62.15z"/>
    <path class="cls-6" d="M272.27 199c-.19-.08-2.12.45-2.83-.14a12.42 12.42 0 0 1-2.09-2.93s2-.63 2.33-.19l.26.35c.61.76 1.96 2.48 2.33 2.91z"/>
    <path class="cls-16" d="M272.27 199a2.7 2.7 0 0 1-.81-.37c-.18-.19-.51-.62-.65-.75s-.81-.78-.81-.88a2 2 0 0 0-.67-.46l.66-.5c.56.81 1.91 2.53 2.28 2.96z"/>
    <path class="cls-17" d="M286.4 193.43c-1.57-1-4.62-3.06-6-3.32h-.51a5.92 5.92 0 0 0-2 .44 4.62 4.62 0 0 0-1.08.61 16.47 16.47 0 0 0-2 2.16l-.29.34a16.67 16.67 0 0 1-2.59 1.64c-.18 0-1 .66-1.74 1.12a6.16 6.16 0 0 1-.6.32 1.21 1.21 0 0 1-.69.16 4.77 4.77 0 0 1-1.58-1c0-.2.42-2.61 1-3 .16-.1.58-.41 1.12-.81 1.53-1.14 4-3 4.34-3.28a7 7 0 0 1 .64-.4 12.36 12.36 0 0 1 3.25-1.47h.51c1.18 0 3.32.26 4 1s4.17 4.26 4.22 5.49z"/>
    <path class="cls-18" d="M286.29 194.72a2.08 2.08 0 0 1-.14-.65 3.81 3.81 0 0 0-1.88-1.86c-1.09-.62-1.84-1.19-2.16-1.37s-1.18-.53-1.66-.74a2 2 0 0 1 1.58.37c.45.37 1.13.72 1.65 1.07s1.94 1.1 2.14 1.29a1 1 0 0 1 .61.6 3.92 3.92 0 0 1-.14 1.29z"/>
    <path class="cls-2" d="M286.4 193.43c-1.57-1-4.62-3.06-6-3.32h-.51a5.92 5.92 0 0 0-2 .44 4.62 4.62 0 0 0-1.08.61 16.47 16.47 0 0 0-2 2.16l-.29.34a16.67 16.67 0 0 1-2.59 1.64c-.18 0-1 .66-1.74 1.12a5.86 5.86 0 0 1-.56.3 1.21 1.21 0 0 1-.69.16 4.77 4.77 0 0 1-1.58-1 9.73 9.73 0 0 1 .81-2.79.72.72 0 0 1 .19-.2c.16-.1.58-.41 1.12-.81 1.53-1.14 4-3 4.34-3.28a7 7 0 0 1 .64-.4 12.36 12.36 0 0 1 3.25-1.47h.51c1.18 0 3.32.26 4 1s4.13 4.27 4.18 5.5z"/>
    <path class="cls-10" d="M269.67 192.56a1.47 1.47 0 0 1 .8.89 7.44 7.44 0 0 1-.26 1.66 1 1 0 0 1 0 .71 2.12 2.12 0 0 1-.89.6 4.73 4.73 0 0 1-1.47-.68 12.14 12.14 0 0 1 .58-2.26 3.21 3.21 0 0 1 1.24-.92z"/>
    <path class="cls-12" d="M280 190l-.09.05a12.39 12.39 0 0 1-2 .44h-.08a2.64 2.64 0 0 0 1.62-1.61.34.34 0 0 0 0-.17 5.34 5.34 0 0 0-1.57-1.18c-.51-.4-2.1.37-3.44.79a12.35 12.35 0 0 1 3.25-1.47h.51a3.14 3.14 0 0 0 .53.53 6.53 6.53 0 0 1 1.43 1.12.78.78 0 0 1 .24.64 1.45 1.45 0 0 1-.4.86z"/>
    <path class="cls-10" d="M412.12 143.93l-21.28 16.62c-3 2.38-16.89 2.81-16.89 2.81l-35.69 9.06s-4.75.24-9.75.22h-.6c-4.23 0-8.53-.29-10.16-1.06-3.63-1.7-18.07-35.19-18.07-35.19L295.55 115l-.34-1.72 93.69 7.93 3.09 3z"/>
    <path class="cls-19" d="M412.11 143.93s-19.94-7.78-22.8-12S379 99 379 99l11.27-8.15 6.08 10.18 1.15 12.08 10.84 12.95z"/>
    <path class="cls-6" d="M321.44 155.47c-.59 2.63 4.63 11.92 7 17.21h-.56c-1.62-1.5-6.15-10.14-6.69-11.64a89.52 89.52 0 0 0-5.51-10.39l.29.06c1.44.29 6.22 1.38 5.47 4.76z"/>
    <path class="cls-6" d="M327.9 172.62c-4.23 0-8.53-.29-10.16-1.06-3.63-1.7-18.07-35.19-18.07-35.19L295.56 115c2.56 7.68 18.31 32.52 19 33.75a11.4 11.4 0 0 0 1.46 1.9l-.31-.05a83.49 83.49 0 0 1 5.5 10.4c.51 1.51 5.03 10.16 6.69 11.62z"/>
    <path class="cls-5" d="M295.21 113.24c.31-3.15 16.92-21.65 18.06-22.54s12.61-2.7 12.61-2.7 41-.25 42.42-.68 15.76-3.88 15.76-3.88l6.23 7.46-1.54 18.1 6.49 6-5.93 17-8 4.27s-54.41 20.44-58.18 19.49-7.88-5.52-8.62-6.89-19.71-31.42-19.3-35.63z"/>
    <path class="cls-20" d="M330.23 177.6l.34 1.72a4.69 4.69 0 0 1-.34-1.72z"/>
    <path class="cls-10" d="M388.75 109s-5 9.52-5.91 11-1.83 8.92-1.83 8.92.8-5.27 2.62-7.47 7-10.9 7-10.9z"/>
    <path class="cls-5" d="M295.21 113.24s1.9 7.14 2.4 8.05 9.89 18.57 11.43 21a72.07 72.07 0 0 0 6.94 9.16c1.9 1.9 5.76 5.39 9.19 5.32s44.83-15.46 47.22-17.06 7.21-1.59 9-3.55a132.5 132.5 0 0 0-14.59 4.57c-8.19 3-35.64 12.18-37.16 12.59s-7.33 1.3-8.59.2-5.11-4.6-6.2-6.61-13.61-20.61-14.3-22.68-5.34-10.99-5.34-10.99z"/>
    <path class="cls-10" d="M299.9 117.41c-2.7-5 10.41-16.79 13.2-19.48s14.75-4.91 16.14-5.48 3.84 1.59 4 3.48-4.85 13-6 14.83.52 8.76.89 11 6.55 8.12 8.92 7.8 13.61 1.59 13.61 1.59 3.62 4.3 10.84 2.74a108.83 108.83 0 0 0 15.55-5l-12.82 10c-2.09 1.63-19 5.68-22.37 5.76s-10.72 6.85-16.43 4.17-23.98-28.55-25.53-31.41z"/>
    <path class="cls-6" d="M403.83 144.57c-5.89 5.75-15 14.44-15 14.44s-9.08-.68-12.31-.08-11.12 3.8-14.95 4c0 0 6.83-4.13 9.38-8 4.23-.18 12.8 1.61 14.8.7s12.4-10.46 14.4-11.37a3.73 3.73 0 0 1 3.68.31z"/>
    <path class="cls-10" d="M73.16 184.27l-2.63 2.05a6.45 6.45 0 0 1-2.09.35L64 187.79h-1.25a4.2 4.2 0 0 1-1.26-.13c-.45-.21-2.23-4.35-2.23-4.35l-.51-2.64v-.21l11.58 1 .38.38z"/>
    <path class="cls-9" d="M73.16 184.27a11.13 11.13 0 0 1-2.82-1.49 33.18 33.18 0 0 1-1.27-4.06l1.39-1 .75 1.28.14 1.49 1.34 1.6z"/>
    <path class="cls-2" d="M62 185.69a8 8 0 0 0 .86 2.13h-.11a7.93 7.93 0 0 1-.83-1.44 11.06 11.06 0 0 0-.68-1.28c.22.04.76.18.76.59z"/>
    <path class="cls-6" d="M62.75 187.81a4.2 4.2 0 0 1-1.26-.13c-.45-.21-2.23-4.35-2.23-4.35l-.51-2.64a40.17 40.17 0 0 0 2.34 4.17 1.41 1.41 0 0 0 .18.23 10.32 10.32 0 0 1 .68 1.28 7.39 7.39 0 0 0 .8 1.44z"/>
    <path class="cls-2" d="M58.71 180.48a16.71 16.71 0 0 1 2.23-2.79 10.81 10.81 0 0 1 1.56-.33s5.07 0 5.24-.08 1.95-.48 1.95-.48l.77.92-.19 2.23.8.74-.73 2.1-1 .53s-6.72 2.53-7.19 2.41a2.28 2.28 0 0 1-1.07-.85c-.08-.18-2.42-3.88-2.37-4.4z"/>
    <path class="cls-20" d="M63 188.43v.21a.58.58 0 0 1 0-.21z"/>
    <path class="cls-10" d="M70.27 179.95s-.62 1.18-.73 1.36a5.64 5.64 0 0 0-.23 1.1 2.46 2.46 0 0 1 .32-.92c.23-.27.87-1.35.87-1.35z"/>
    <path class="cls-21" d="M58.71 180.48s.23.88.3 1 1.22 2.29 1.41 2.6a8.91 8.91 0 0 0 .86 1.13 1.93 1.93 0 0 0 1.14.66 58 58 0 0 0 5.83-2.11 6.66 6.66 0 0 0 1.11-.44 16.38 16.38 0 0 0-1.8.56c-1 .37-4.4 1.51-4.59 1.56a2.05 2.05 0 0 1-1.06 0 4.61 4.61 0 0 1-.77-.82c-.14-.25-1.68-2.55-1.77-2.8s-.66-1.34-.66-1.34z"/>
    <path class="cls-10" d="M59.29 181c-.33-.61 1.29-2.07 1.63-2.41a7.7 7.7 0 0 1 2-.68.5.5 0 0 1 .5.43 8.81 8.81 0 0 1-.74 1.83 3.51 3.51 0 0 0 .11 1.36 1.85 1.85 0 0 0 1.1 1 12.73 12.73 0 0 1 1.68.2 1.37 1.37 0 0 0 1.34.34 13.45 13.45 0 0 0 1.92-.62l-1.58 1.24a12.1 12.1 0 0 1-2.76.71c-.41 0-1.32.85-2 .52s-3-3.57-3.2-3.92z"/>
    <path class="cls-6" d="M72.14 184.35l-1.85 1.78a9.68 9.68 0 0 0-1.52 0 18.55 18.55 0 0 1-1.85.49 4.49 4.49 0 0 0 1.16-1 14.24 14.24 0 0 0 1.83.09c.25-.11 1.53-1.29 1.78-1.4a.46.46 0 0 1 .45.04zM37.43 180.6a10.94 10.94 0 0 1 2.22 1.63l.42 4.91.52 6.15-1 2.16L38 197l-11.57-1.31-4.59.66-1-1-1.87.45-1.48-1.76a8.91 8.91 0 0 1 1.21-2.76c.47-.52 5.44-4.8 6.19-5.62.73-.81 4.78-.4 5.17-.6.49.09 1.88.13 1.88.13s.29-.26.55-.55 4.66-3.97 4.94-4.04z"/>
    <path class="cls-2" d="M37.43 180.6a10.94 10.94 0 0 1 2.22 1.63 41.38 41.38 0 0 1-2 4.2c-.31.35-3 1-3.73 1.58s-4.66 4-5.35 4.6-7.74 2.77-7.74 2.77l-1.87.45-1.48-1.76a8.91 8.91 0 0 1 1.21-2.76c.47-.52 5.44-4.8 6.19-5.62.73-.81 4.73-2 5.12-2.19H30.42l.58.09.58.05h.74s.32-1 .46-1.24c-.09-.21 1.54-.83 2.89-1.29.88-.24 1.65-.48 1.76-.51z"/>
    <path class="cls-10" d="M30 183.49H30.42l.58.1.58.05h.74s-.35.71-.71 1.34a5 5 0 0 1-.6.9c-.35.31-1.19 1.53-1.35 1.68s-1.76 1-1.86 1l1.2-1.02.95-2.25z"/>
    <path class="cls-22" d="M35.67 181.18c-.71.42-2.39 1.25-2.57 1.38a5.43 5.43 0 0 0-.45 1.28 16 16 0 0 1-1 1.22c.35-.63.71-1.34.71-1.34s.32-1 .46-1.24c-.13-.22 1.49-.84 2.85-1.3z"/>
    <path class="cls-10" d="M40.07 187.15l.53 6.16-.99 2.16-1.57 1.53-11.58-1.32 7.74-1.26 3.83-2.02 2.04-5.25z"/>
    <path class="cls-9" d="M39.61 195.47a27.88 27.88 0 0 0 .2-2.92 4.47 4.47 0 0 0-1-2c-.33-1.1-1.12-4.07-1.12-4.07l2-4.2.91 11.02z"/>
    <path class="cls-10" d="M18.17 193.69l-.7.39 1.48 1.75 2.92.52-.38-1.18s-3.28-1.54-3.32-1.48z"/>
    <path class="cls-22" d="M24.87 185.69l-.66 1.44-4 3.2-.94 1.42a10.2 10.2 0 0 0-1.09 1.94l-.69.39a8.88 8.88 0 0 1 1.21-2.76c.45-.53 5.43-4.8 6.17-5.63z"/>
    <path class="cls-10" d="M21.48 195.17l.38 1.18-2.92-.52a17.09 17.09 0 0 1-.78-2.14c.05-.06 3.32 1.48 3.32 1.48z"/>
    <path class="cls-6" d="M192.55 147c-.57 2.06 13.53 15.68 13.53 15.68h.06l39.13 1.93 49 2.41 17-7.57L323 147.74l-13.22-83.23 4.12-33.3-7.9-7.29 3.1-13.62a.1.1 0 0 1-.06 0L294.76 0c-8.59 2.76-17.62 5.86-21.64 9.35s-36.78 40.33-43.19 45.91l-.06.06c-6.24 5.42-2 34.6-3.49 37.42.86 3.49 1.52 13.53 1.52 13.53s-2 2.15-4.25 4.09S193.09 145 192.55 147z"/>
    <path class="cls-5" d="M192.55 147c-.57 2.06 13.53 15.68 13.53 15.68h.06c1.49-.29 30.26-13.18 32.86-15.4s7.48-22.12 11.66-27.28S281 85.49 286 80.38s20-56.46 20-56.46l3.1-13.62a.1.1 0 0 1-.06 0L294.76 0c-8.59 2.76-17.62 5.86-21.64 9.35s-36.78 40.33-43.19 45.91l-.06.06c-6.24 5.42-14.7 34.6-16.16 37.42l.1.6c.06.35.13.79.19 1.3l.16 1.14c.16 1.17.38 2.57.57 4l.57 4.22v.13c.1.67.19 1.3.25 1.87l.48 3.42s-7.57 2.5-9.76 3.61c-1.71-.57-6.21 11.28-9.57 21.16-2.19 6.42-3.93 12-4.15 12.81z"/>
    <path class="cls-10" d="M213.71 92.74l.1.6.19 1.3.16 1.14.57 4 .57 4.22v.13l.25 1.87.48 3.42s5.58-2.69 10.49-5.39c3.17-1.77 6.08-3.52 7-4.53 2.38-2.57 11.88-8.9 13.05-10.11s7.51-12.9 7.89-13.62l-8.87 8.87L228 91.95z"/>
    <path class="cls-10" d="M196.73 134.15c3.14-5.23 9.35-17.52 10.36-18.88 1.24-1.62 7.07-2.15 10-3.52s5.26-4.88 9.41-7.76c-4.91 2.69-10.49 5.39-10.49 5.39s-7.57 2.5-9.76 3.61c-1.66-.57-6.16 11.28-9.52 21.16z"/>
    <path class="cls-19" d="M245.27 164.63l49.04 2.41 16.96-7.57 11.75-11.73-13.24-83.23-8.18 56.14-15.11 28.11-41.22 15.87z"/>
    <path class="cls-23" d="M311.27 159.47c-9.53.66-17.77 2.54-23.13 2.09s-9.59-2.79-16.52-7c-8.82-2.18-32.62-7.26-32.62-7.26l-32.86 15.4 88.18 4.3z"/>
    <path class="cls-6" d="M291.88 5.1l2.91-5.1 14.29 10.27 4.82 20.94-9.45-2.5S291.42 5.45 291.88 5.1z"/>
    <path class="cls-2" d="M229.93 55.26l11.28-5.07 24.44-29.65 11.09-7.1s12.66-8.33 15.14-8.33L294.77 0c-8.58 2.76-17.61 5.85-21.63 9.35s-36.81 40.34-43.21 45.91z"/>
    <path class="cls-10" d="M304.44 28.71l9.46 2.5-4.82-20.94C308 9.89 294.25 5.1 291.87 5.1c-.45.34 12.57 23.61 12.57 23.61z"/>
    <path class="cls-5" d="M264.93 83.16l14.83-17.77 11.22-23.53 1.71 2.99-2.93 13.85-12.51 20.82-12.32 3.64z"/>
    <path class="cls-5" d="M294.86 22.05l4.19 6.29-2.1 8.99-3.29 8.09-5.1 6.9-.9-6.6 5.7-11.38 1.5-12.29zM183 182l-45.18-7.89a1.9 1.9 0 0 1-.53-.85c-.65-2.52-6.28-10.69-6.37-13a3.14 3.14 0 0 1 0-.62c.24 0 1.18-.15 2.61-.4 9.27-1.63 40.62-7.74 41.86-6.67a19.49 19.49 0 0 1 2.23 4.46c.76 1.82 1.61 4.07 2.43 6.47 2.39 7.08 4.46 15.41 2.95 18.5z"/>
    <path class="cls-2" d="M199.38 94.08c.49.42 2.86 2.53 6.09 5.43 9.45 8.43 26.37 23.61 26.37 23.61s5.63 16.75 3.75 20.27-19.81 3.1-19.81 3.1l-3.15.44c-1.19.17-2.69.39-4.29.64-6.75 1-15.76 2.58-17.07 3.64-2.12 1.69-6.61 10.49-10.6 12.16a23.93 23.93 0 0 1-5.2.7c-11.54.74-36.56.36-36.56.36l-8-4.76 4-25 9.92-21.06s15.22-14.48 23.57-17.22c8.6-2.83 25.6-6.3 25.6-6.3s3.44 2.3 5.38 3.99z"/>
    <path class="cls-6" d="M231.57 179.38L219.39 182c-1.82-1.93-14.9-18.14-14.35-23.12a46.78 46.78 0 0 1 3.29-11.34 18.42 18.42 0 0 1 2.93-5.11c2.28-2.27 13-10.89 13-10.89 4.32 3.74 10.95 9.21 11.3 11.83.36 2.63-2.72 34.71-3.99 36.01z"/>
    <path class="cls-2" d="M144.9 113.56l4.71 10.4-10.74 13.96-7.27 19.93-.66 1.81.3-2.07 3.13-21.85 10.53-22.18z"/>
    <path class="cls-2" d="M175.08 164.06h-1.06a8.6 8.6 0 0 0-.89 0l-4 .15c-.51 0-1 0-1.58.06-10 .36-26.08.82-28.66 0a36.15 36.15 0 0 1-8-4.14 3 3 0 0 1 0-.62l.3-2.07.32.23 2 1.42 5.48 3.95 11.61.56c2.03.28 21.53.4 24.48.46z"/>
    <path class="cls-5" d="M189.85 140.93l-7.93-22.06 6.15-4.51 1.83-3.52 4.15-2.7 5.24-3.99 3.69-2.85 21.05 25.84.25 4.41-13.03 10.88-16.4 1.48-5-2.98z"/>
    <path class="cls-2" d="M202 101c-3.65 3.29-11.71 8.45-13 11-.83 1.7-4.44 4.31-8.26 6.72-1.94 1.28-29.51 4.28-31.13 5.28 0 0 28.93-3.41 32.31-5.08 3.17-1.57 6.31-3.23 6.52-3.75.44-1.09 1.33-2.79 1.33-2.79a2.83 2.83 0 0 1 1.43-1.77c1-.36 11.57-8.45 11.57-8.45z"/>
    <path class="cls-6" d="M194 90.09c15.62 7.51 37.84 33 37.84 33s5.63 16.75 3.75 20.27l-11.31-11.83z"/>
    <path class="cls-10" d="M219.39 182H183c-3-2.52-6.57-12.71-7.55-18-.29-1.55 11.46-22.24 14.39-23.13 4-1.22 21.39 1.5 21.39 1.5a24.69 24.69 0 0 1 1.36 4.48c2.63 10.22 7.74 34.15 6.8 35.15z"/>
    <path class="cls-3" d="M183 182z"/>
    <path class="cls-5" d="M238.48 123.82c-6.41 6.85-6.92 46.53.54 53 11.4 2.23 41.74-15.32 41.74-15.32l-7.4-26.6z"/>
    <path class="cls-10" d="M333.69 143.92c.37 5-5.4 19.7-13.28 25.44a66.43 66.43 0 0 1-7.66 4.68c-8.49 4.53-19.78 9-28.43 10.65-5.34 1-41.63-5.36-45.31-7.9-.93-3.12 15.66-8.09 15.66-8.09s5.5-17.46 7.86-18 52.35-30 60-27.56c3.67 2.52 10.81 15.8 11.16 20.78z"/>
    <path class="cls-2" d="M322.52 123.17s-4.93 10.51-7.36 12.39c-9.15 7.07-46 13.06-52 15l-.62.2-24.06-26.92s20.72-18.75 24.57-21.22a4 4 0 0 1 2-.44c11.42-.29 57.47 20.99 57.47 20.99z"/>
    <path class="cls-10" d="M244 121.53c1.22-1.41 12.87-10.71 14.94-13.27s5.22-4.83 6-6.11a4 4 0 0 0-2 .44c-3.85 2.47-24.57 21.22-24.57 21.22s15.75 21.46 24.06 26.92c.4 0 .52-.8.28-1.3-.61-1.41-3.63-4.4-5-5.54-1.8-1.54-13.41-15.94-14.71-17.79s-.2-3.17 1-4.57z"/>
    <path class="cls-6" d="M312.76 174c-8.49 4.53-19.78 9-28.43 10.65-5.34 1-41.63-5.36-45.31-7.9-.93-3.12 15.66-8.09 15.66-8.09s39.69 7.81 44.3 8.1c3.97.24 10.49-2.17 13.78-2.76z"/>
    <path class="cls-10" d="M351 178.11c-1.49 1.6-1.61 10.84.13 12.34 2.66.52 9.72-3.57 9.72-3.57l-1.72-6.2z"/>
    <path class="cls-6" d="M373.17 182.8a9.38 9.38 0 0 1-3.09 5.93 15.48 15.48 0 0 1-1.78 1.09 26.32 26.32 0 0 1-6.62 2.48c-1.24.24-9.7-1.25-10.55-1.84-.22-.73 3.65-1.88 3.65-1.88s1.28-4.07 1.83-4.18 12.2-7 14-6.42a10.67 10.67 0 0 1 2.56 4.82z"/>
    <path class="cls-2" d="M370.57 178a14 14 0 0 1-1.71 2.89c-2.13 1.65-10.72 3-12.12 3.49h-.14l-5.6-6.27s4.83-4.37 5.72-4.94a.94.94 0 0 1 .46-.1c2.66-.07 13.39 4.93 13.39 4.93z"/>
    <path class="cls-12" d="M352.28 177.58c.28-.33 3-2.49 3.48-3.09s1.22-1.12 1.41-1.42a.94.94 0 0 0-.46.1c-.9.57-5.72 4.94-5.72 4.94s3.67 5 5.6 6.27c.09 0 .12-.19.07-.3a6 6 0 0 0-1.16-1.29c-.42-.36-3.12-3.71-3.43-4.15a.77.77 0 0 1 .21-1.06z"/>
    <path class="cls-9" d="M368.29 189.81a26.32 26.32 0 0 1-6.62 2.48c-1.24.24-9.7-1.25-10.55-1.84-.22-.73 3.65-1.88 3.65-1.88s9.25 1.82 10.32 1.89a16.82 16.82 0 0 0 3.2-.65z"/>
    <path class="cls-6" d="M100.58 186.07l2.4 4.32 2.31 1.63 5.67 2.09 5.46.65-3.72-9.71-12.12 1.02z"/>
    <path class="cls-2" d="M107.45 171.54s-3 4.1-3.12 5-3.6 3.94-3.6 3.94l8.73 3.46.06-3.66 3.12-2.41-.59-3.91 1.39-3.14z"/>
    <path class="cls-10" d="M129.93 179.8l-11.29-1.53-5.99-.44-.59-3.91 1.39-3.14 2.46-1.01 5.07.83 5.02 2.61 3.93 6.59z"/>
    <path class="cls-10" d="M129.93 179.8l-.14.87-1 6.2a2.78 2.78 0 0 1-.79 1.54l-4.8 4.7-6.75 1.65-5.57-.63v-.06l-1.15-5.66-.11-.53-.42-2.21v-.31l-.33-1.72-.41-1.64 1.07-1.76 3.13-2.41 6 .44 5.07.69zM100.73 180.44l-1.71 3.45 6.65 1.58 8.14-.04-1.52-1.59-3.27-.87-.56-.97-7.73-1.56z"/>
    <path class="cls-6" d="M113.8 185.43l-.31 2.16v.35l-7.93 1-4.93-2.85-1.18-1.64-.45-.56 6.65 1.58h8.19zM112.29 183.84l12.73.29 4.91-4.33-7.12-4.26-10.16 2.29-3.12 2.41-1.07 1.76.56.97 3.27.87z"/>
    <path class="cls-9" d="M129.93 179.8l-.14.87-1 6.2a2.78 2.78 0 0 1-.79 1.54l-4.8 4.7 1.85-9z"/>
    <path class="cls-12" d="M113.76 185.43h-.93c-1.75.09-5.21.27-5.36.26s-1.71.22-1.82.21l-1-.22c-1.61-.39-4.66-1.14-4.72-1.2a2.08 2.08 0 0 0-.57-.09l-.36-.5 6.65 1.58H113.78z"/>
    <path class="cls-6" d="M120.98 170.6l1.83 4.94 2.23 8.48 4.89-4.22-3.93-6.59-5.02-2.61z"/>
    <path class="cls-12" d="M122.62 175.06a9.17 9.17 0 0 1-1.5.79c-.43.11-3.54.66-3.81.78s-4.65 1.2-4.65 1.2a20.45 20.45 0 0 0 2.26-.27c.37-.13 2.59-.61 2.81-.64s2.44-.4 2.83-.43a12.75 12.75 0 0 0 2-.6.46.46 0 0 0 .25-.36z"/>
  </g>
</svg>
