<svg xmlns="http://www.w3.org/2000/svg" viewBox="0 0 123.85 103.71">
  <defs>
    <style>
      .cls-1{fill:#59718d;}
      .cls-2{fill:#4f6278;}
      .cls-3{fill:#598195;}
      .cls-4{fill:#3b4953;}
    </style>
  </defs>
  <g>
    <path class="cls-1" d="M19.48,16.27C9.61,22-4.86,68.16,1.61,78.28,14.13,84.87,55.67,75,55.67,75l0.66-33.63Z"/>
    <path class="cls-2" d="M123.58,73c-1.31,5.93-13.19,21.1-24.39,25a80.9,80.9,0,0,1-10.57,2.78c-11.48,2.32-26.22,3.56-36.9,2.49-6.59-.66-46.71-20.8-50.11-25,0-4,21.1-4,21.1-4S35.23,55.86,38.15,56.09s71.58-16.71,79.63-11.2C121.22,49.08,124.9,67.07,123.58,73Z"/>
    <path class="cls-3" d="M117.79,44.89s-9.43,10.54-12.92,11.88c-13.15,5.06-58.27-.84-65.93-0.69H38.15L19.49,16.27S50.21,1.62,55.57.09A4.92,4.92,0,0,1,58,.26C71.48,4,117.79,44.89,117.79,44.89Z"/>
    <path class="cls-3" d="M26.75,15.54c1.91-1.22,18.77-8,22.07-10.26S56.6,1.47,58,.26A4.92,4.92,0,0,0,55.57.09C50.21,1.62,19.49,16.27,19.49,16.27S30.37,46.82,38.15,56.09c0.46,0.18.89-.75,0.79-1.42-0.22-1.86-2.7-6.41-3.85-8.19C33.53,44,25,23.19,24.14,20.57S24.84,16.75,26.75,15.54Z"/>
    <path class="cls-4" d="M88.62,100.84c-11.48,2.32-26.22,3.56-36.9,2.49-6.59-.66-46.71-20.8-50.11-25,0-4,21.1-4,21.1-4s43.59,23,48.86,24.94C76.12,100.92,84.58,100.33,88.62,100.84Z"/>
  </g>
</svg>
