<svg width="200" height="200" xmlns="http://www.w3.org/2000/svg">
  <g fill="none" fill-rule="evenodd">
    <g fill-rule="nonzero">
      <path fill="#626262" d="M113-68.5l-131 7 76 86z"/>
      <path fill="#777" d="M184-99.5l-59 92 196 90z"/>
      <path fill="#5D5D5D" d="M37 99.5l-310 33 250 78z"/>
      <path fill="#838383" d="M125-7.5l157 121 39-31z"/>
      <path fill="#4E4E4E" d="M-245-23.5l-28 156 310-33z"/>
      <path fill="#555" d="M-18-61.5l-227 38 282 123z"/>
      <path fill="#696969" d="M113-68.5l-55 93 67-32z"/>
      <path fill="#646464" d="M-18-61.5l55 161 21-75z"/>
      <path fill="#818181" d="M125-7.5l59 167 98-46z"/>
      <path fill="#747474" d="M125-7.5l-67 32 126 135z"/>
      <path fill="#747474" d="M58 24.5l-21 75 147 60z"/>
      <path fill="#8B8B8B" d="M282 113.5l-98 46 38 12z"/>
      <path fill="#7D7D7D" d="M37 99.5l97 116 50-56z"/>
      <path fill="#717171" d="M37 99.5l-60 111 97 28z"/>
      <path fill="#797979" d="M37 99.5l37 139 60-23z"/>
      <path fill="#8C8C8C" d="M184 159.5l18 94 20-82z"/>
      <path fill="#888" d="M184 159.5l-50 56 68 38z"/>
    </g>
    <path fill="#ED774C" style="mix-blend-mode:hard-light" d="M0 0h200v200H0z"/>
    <path fill="#ED774C" class="blend" d="M0 0h200v200H0z"/>
    <circle fill="#FFF" cx="100" cy="84" r="47"/>
    <ellipse fill="#FFF" cx="100" cy="217" rx="75" ry="105"/>
  </g>
</svg>
