<svg xmlns="http://www.w3.org/2000/svg" viewBox="0 -225 412.12 432"><defs><style>.p2{fill:#cececd} .p3{fill:#c9a168} .p4{fill:#d4b587} .p5{fill:#b7b6b6} .p6{fill:#575757} .p7{fill:#f5e5cd} .p8{fill:#ddd7d7} .p9{fill:#1b1c1c} .p10{fill:#6b6b6b} .p11{fill:#938980} .p12{fill:#f8eee4} .p13{fill:#f4f4f4} .p14{fill:#684a38} .p15{fill:#f6f7f7} .p16{fill:#343434} .p17{fill:#d3b08a} .p18{fill:#f8efe2} .p19{fill:#2f2f2f} .p20{fill:#c6882f} .p21{fill:#efeeed} .p22{fill:#ece5e5} .p23{fill:#3a2913} .g2{fill:#d7a350} .g3{fill:#efb140} .g4{fill:#9e7634} .g5{fill:#7f5629} .g6{fill:#d3b08a} .g7{fill:#f4cb88} .r1{fill:#eb774c} .r2{fill:#c1522e} .r3{fill:#d36542} .r4{fill:#bb4e2a} .r5{fill:#a23823} .r6{fill:#f3a188} .r7{fill:#f1b9ac} .r8{fill:#ecc3b7} .r9{fill:#6c110f} .t1{fill:#59718d} .t2{fill:#4f6278} .t3{fill:#598195} .t4{fill:#3b4953}</style></defs><g class="pile"><path class="p2" d="M39.6 109.4L57.3 135l25.5 2.7 22.2 11.7 29-20.6 9.6-29L118 72l-35.4 1.5-36 13.5-7 22.6z"/><path class="p3" d="M51.3 155l6-20h-8.8L38 143l13.3 12z"/><path class="p4" d="M39.6 109.4l-4.2 17 2.4 16.6 9.2-1.8 10.3-6.3-17.7-25.6z"/><path class="p5" d="M108.2 166l-3.2-16.7-22.3-11.6-25.4-2.8-6 20 38.2 11.3 18.7-.3z"/><path class="p6" d="M146.7 128L135 152.6 108.3 166l-2.8-14.7-.4-2 18.4-23.6 20-26 2.4 21z"/><path class="p7" d="M82.8 137.7l7-39-50.2 10.7L57.3 135l25.5 2.7z"/><path class="p2" d="M118 72L90 98.5s-23.7 10-26.3 10l-24 .8 7.2-22.6 36-13.5z"/><path class="p8" d="M62 78.3c6.7-2.7 21-7.8 25.7-7.3 2 .2 14.3-1.2 19.8-1 8.5 0 10.6 2 10.6 2s-25 3.5-30 3.7-25 6.6-27 7.6-14.3 3.5-14.3 3.5 12.6-7.3 15.4-8.5z"/><path class="p2" d="M91.3 142.2c3.6 1.3 11.2 4.4 12.4 4.4s3.6-3.4 5.6-5.2 14-16.5 16-18.5c0 0-7.8 11.4-9.7 14.4s-5 8-6.3 9.8c-1.3 1.5-3 5.3-5 3.7s-11.7-7-13-8.8z"/><path class="p9" d="M146 128l-11.7 24.5-27 13.5c4.6-3.6 21.2-13.4 22-14.6s9.3-12.8 10.2-15.7 4.8-8 5-10.7l.5-4zm-51 61.3c.3.4 1.3 3.4 1.3 3.4a21.2 21.2 0 0 1-.2 3.8 12.6 12.6 0 0 1-2.4 3.7 2.3 2.3 0 0 1-1.7.5c-1 0 .6-2.2.6-2.2l1.6-7z"/><path class="p10" d="M94 193.6a13.2 13.2 0 0 1 .6 2 4.8 4.8 0 0 1-.8 2.7c-.2.4-1 1.7-1.3 1.8a39.6 39.6 0 0 1-4.2.8 33.2 33.2 0 0 1-4.2-2c-.2-.2-5-.4-5.3-.7s-2.8-1.5-2.8-2a6.5 6.5 0 0 1 .5-2.3 1.3 1.3 0 0 1 .6-.3l2-2z"/><path class="p11" d="M94.4 194.3c0 .5-2.3 4-2.3 4a45.2 45.2 0 0 1-4.8-1c-.7-.3-5-2.4-5.3-2.8a19.8 19.8 0 0 0-3.6-1.7 4.3 4.3 0 0 0-1.3.6v-.5a6.7 6.7 0 0 1 1-.6 10.5 10.5 0 0 1 3 .8l1.3 1.4 3.7 2 3 .8a25.8 25.8 0 0 0 2.5.4 5.8 5.8 0 0 0 1-.7l1-2 1-.7z"/><path class="p2" d="M95 189.7a7.5 7.5 0 0 1 .2 2.4 2.4 2.4 0 0 0-.3.7l-.6 1.6c-.2.6-2.2 4-2.2 4a45.2 45.2 0 0 1-5-1c-.7-.4-5-2.4-5.3-2.8a19.8 19.8 0 0 0-3.5-1.7 1.2 1.2 0 0 0-.6 0 8.6 8.6 0 0 0-1 .5v-1.1l1-2.5 5-1.6h2.7a35.3 35.3 0 0 1 3.8-.7l4.7.5a5.4 5.4 0 0 1 1 1.6z"/><path class="p6" d="M84 199a33.2 33.2 0 0 0 4.3 1.8 39.6 39.6 0 0 0 4.2-.7c.2 0 1-1.3 1.3-1.7a4.8 4.8 0 0 0 .8-2.6l-.2-1.3a8.8 8.8 0 0 1-.4 2.7 5 5 0 0 1-1.7 2c-.4.3-4-.6-4.6-.7A56.4 56.4 0 0 1 82 196a27.7 27.7 0 0 0-5-1 1.2 1.2 0 0 0-1 1c0 .6 2.3 2 2.7 2.2s5 .4 5.4.7z"/><path class="p12" d="M83 188.2c-1.5.7-4 1.8-4 2s-.4.5-.7 1a4.2 4.2 0 0 0-.5 1.8 8.6 8.6 0 0 0-.8.4v-1.2l1-2.5 5-1.6z"/><path class="p6" d="M94.4 194.3c0 .5-2.3 4-2.3 4a45.2 45.2 0 0 1-4.8-1c-.7-.3-5-2.4-5.3-2.8a19.8 19.8 0 0 0-3.6-1.7 4.3 4.3 0 0 0-1.3.6v-.5a6.7 6.7 0 0 1 1-.6 10.5 10.5 0 0 1 3 .8l1.3 1.4 3.7 2 3 .8a25.8 25.8 0 0 0 2.5.4 5.8 5.8 0 0 0 1-.7l1-2 1-.7z"/><path class="p10" d="M92.4 199.8a.6.6 0 0 1-.5 1 7 7 0 0 1-2 .2c-.8 0-1.6 0-1.6-.4a.8.8 0 0 1 .7-.5 23 23 0 0 1 3.4-.2z"/><path class="p13" d="M91 191.6c-.4.2-1.3 1.2-1.8 1.2H88l-2.5-.3a2.3 2.3 0 0 0-.6.2h.6a2.7 2.7 0 0 1 1 .3 12.6 12.6 0 0 0 2.4.3l.7-.4a13.6 13.6 0 0 0 1.3-1c.3-.3.4 0 .6 0a31.6 31.6 0 0 1 3.3.7 2.4 2.4 0 0 1 .2-.6 28 28 0 0 0-4.3-.4zm-6.4-2.7c0-.6 1 0 1 0l1-.5a3.4 3.4 0 0 1 1 .3 1 1 0 0 1-.5.5 4.5 4.5 0 0 1-1 0c-.3 0-1.4 0-1.4-.4z"/><path class="p10" d="M95 189.7a7.5 7.5 0 0 1 .2 2.4 4.5 4.5 0 0 1-.5-1.3 3 3 0 0 0-.5-1 5 5 0 0 0-.6-1.3c-.3-.4-3-.4-3.4-.5a3.5 3.5 0 0 0-1.5 0l-3 .2a35.3 35.3 0 0 1 3.7-.8l4.8.6a5.4 5.4 0 0 1 1 1.7z"/><path class="p5" d="M228 64.6v2.6a31.8 31.8 0 0 1-.4 3.7v.3c-1 5.4-10.2 36.4-18.3 39s-39.7 9.8-45 10.2h-1.4a24.4 24.4 0 0 1-7-1 39.3 39.3 0 0 1-10-4.8c-5.3-4.7-21-25-13-37 1.7-2.3 7.3-12.2 12.2-20.3 2.4-4 4.6-7.5 6-9.5a15.7 15.7 0 0 1 1-1.4 3 3 0 0 1 .7-.5 15 15 0 0 0 3.4-1 4.7 4.7 0 0 0 1.2-1l.3-.4c5.2-6 15-9 18.3-11.3a1.8 1.8 0 0 1 1-.3c2.6 0 18.4 2.7 21.8 3.7s25 9.7 27.3 13a1.4 1.4 0 0 1 .2.3v.2c.7 2.2 1.3 8.5 1.4 14v1.4z"/><path class="p10" d="M228 64.6v2.6a31.8 31.8 0 0 1-.4 3.7v.3c-1 5.4-10.2 36.4-18.3 39s-39.7 9.8-45 10.2h-1.4a24.4 24.4 0 0 1-7-1 39.3 39.3 0 0 1-10-4.8s14-21.3 15.8-25.7 28-13.2 28-13.2l38-12.5v1.3z"/><path class="p2" d="M228 68.8l-.5 1.5c-.7 3.5-20.4 25.3-23 25.7s-16.4 4.8-23 1.3c-2-1.2-14.8-5-18.7-8.2a3 3 0 0 1-1.2-1.3l-5-20.8c-1-4.7-2-9.3-3-13.2l-1.2-7.2c.2-.6 14.8-15.2 18.2-17.5.4-.2 6.4-1 6.6-1 2.7 0 18 2.5 21.7 3.5 3.4 1 25 13.6 27.3 17.2a1.4 1.4 0 0 1 0 .3l.3.5c1 3.3 1.6 18.2 1.5 19.3z"/><path class="p2" d="M170.2 88c3.3 1 9.2 5.5 10.2 5.7s13 2.3 16.3 1.3a43 43 0 0 0 11-6c1.2-1.4 9.7-14.4 10.7-15s3-6.5 3.3-13.4-.3-11.2-2.8-14-8.8-4.8-10.6-3-2.8 9.6-2.8 9.6l4 4s0 7-3 10-2.5 16.4-6.3 17.4-12.5-7.4-14-7.7-5-.6-7 1.7-9 9.2-9 9.2z"/><path class="p10" d="M155.5 64c1.2 3 3.3 13 3.3 15.8s1.6 6.8 1.3 8.5-3.7 10-5.2 12.7c0 0 6.2-7.5 7-9.2s1-2 1-3.2-2.5-11-3-13-4.3-11.5-4.3-11.5z"/><path class="p2" d="M199 31.5C195 31 180.3 29 178.5 29c-1.8 0-7.8 2-9.4 3-1.5.7-9.6 9.5-12.8 13l-1.3 1.3c-1 1.2-1 5.6-1 8.6l-.3-1.2-2.4-6a15.7 15.7 0 0 1 1-1.3c.2-.5 15-15 18.3-17.5.4-.2 6.4-1.2 6.6-1.2 2.7 0 18 2.6 21.8 3.7z"/><path class="p8" d="M146 114.8c-5.3-4.8-21-25-13-37 1.7-2.4 7.3-12.3 12.2-20.4h.2L136 77s-3.6 6-3.3 8.4 4.6 18 13.2 29.3z"/><path class="p9" d="M227.7 69.8v1c0 .2 0 .3-.2.5-1 5.4-10 36.4-18.2 39s-39.8 9.8-45.2 10.2h-1a24.4 24.4 0 0 1-7-1 20 20 0 0 1 2.3-.2c20.6-.3 42.3-7.4 46.8-9s8.6-10 11.7-15c2-3.5 5-12.8 7-19.3l.6-.8.7-1 .3-.3.7-1a18.6 18.6 0 0 0 1-1.8 5.4 5.4 0 0 0 .3-.5 3 3 0 0 0 .2-.4s0-.3.2-.5z"/><path class="p14" d="M225.3 74l.8-1z"/><path class="p10" d="M332 192.4v.7a8.7 8.7 0 0 1 0 1v.2c-.4 1.5-3 10-5 10.7a113.4 113.4 0 0 1-12.5 2.7h-.3a6.7 6.7 0 0 1-2-.3 10.7 10.7 0 0 1-2.6-1.3c-1.4-1.2-5.7-6.7-3.5-10 .5-.6 2-3.3 3.4-5.6l1.7-2.6a4.3 4.3 0 0 1 .3-.3.8.8 0 0 1 .2 0 4 4 0 0 0 1-.4 1.3 1.3 0 0 0 .2-.2c1.6-1.7 4.2-2.5 5-3.2a.5.5 0 0 1 .4 0 50.8 50.8 0 0 1 6 1c1 .2 7 2.6 7.5 3.5v.2a20.5 20.5 0 0 1 .4 4v.2z"/><path class="p6" d="M332 192.4v.7a8.7 8.7 0 0 1 0 1v.2c-.4 1.5-3 10-5 10.7a113.4 113.4 0 0 1-12.5 2.7h-.3a6.7 6.7 0 0 1-2-.3 10.7 10.7 0 0 1-2.6-1.3s3.8-5.7 4.3-7 7.5-3.5 7.5-3.5L332 192v.4z"/><path class="p2" d="M332 193.6l-.2.4c-.2 1-5.5 7-6.3 7s-4.4 1.3-6.2.4c-.6-.4-4-1.5-5-2.3a.8.8 0 0 1-.4-.3c-.2-.4-1-3-1.5-5.6l-.8-3.5-.4-2a60.2 60.2 0 0 1 5-4.8l1.8-.3a52 52 0 0 1 6 1c1 .2 7 3.7 7.5 4.7v.2a32.6 32.6 0 0 1 .5 5.4z"/><path class="p15" d="M316.2 198.8a25.6 25.6 0 0 1 2.8 1.5c.2 0 3.5.7 4.4.4a11.7 11.7 0 0 0 3-1.7c.4-.3 2.7-4 3-4s.8-1.8.8-3.6 0-3-.7-4-2.4-1.2-3-.7a7.5 7.5 0 0 0-.6 2.6l1 1a4.6 4.6 0 0 1-1 3c-.7.7-.5 4.3-1.6 4.6s-3.4-2-3.8-2.2a2 2 0 0 0-2 .5l-2.4 2.4z"/><path class="p12" d="M312.2 192.3a20 20 0 0 1 1 4.2l.3 2.4a23.5 23.5 0 0 1-1.5 3.3 28.2 28.2 0 0 0 2-2.5 1.7 1.7 0 0 0 .2-.8l-.8-3.6-1.2-3zm11.8-9c-1 0-5-.6-5.5-.6a8.8 8.8 0 0 0-2.6.8c-.5.2-2.7 2.6-3.6 3.5l-.4.4c-.3.3-.2 1.5-.2 2.4l-.2-.3c0-.4-.4-1.2-.6-1.7a4.3 4.3 0 0 1 .3-.3 60.2 60.2 0 0 1 5-4.8l1.8-.3a52 52 0 0 1 6 1z"/><path class="p2" d="M309.6 206c-1.5-1.2-5.7-6.7-3.5-10 .5-.6 2-3.3 3.4-5.6l-2.5 5.3a6.8 6.8 0 0 0-1 2.4 22.5 22.5 0 0 0 3.6 8z"/><path class="p9" d="M332 193.8v.4c-.4 1.5-3 10-5 10.7a113.4 113.4 0 0 1-12.4 2.7h-.4a6.7 6.7 0 0 1-2-.3 5.5 5.5 0 0 1 .8 0 44 44 0 0 0 12.7-2.5c1.3-.6 2.3-2.8 3.2-4.2a32.6 32.6 0 0 0 1.8-5.2l.2-.2.2-.3.3-.3a5 5 0 0 0 .2-.4v-.2z"/><path class="p14" d="M331.2 195l.2-.3z"/><path class="p10" d="M106 153.5c-2.8 2-19 5-21.3 5.8s-11 4.6-14.4 4.7-30.4 1.7-32.5.8-6-3.8-7.3-4.3-13 2.8-17.5-.8c-6-5-13-18.2-13-18.2l32.8-22.3L73 96.7s44 17 45 29.7a24.2 24.2 0 0 1-.7 8c-2.2 9.4-9 17.5-11.2 19z"/><path class="p5" d="M116 138.7c-9.8-9.3-23.8-16.8-27.6-14.7-5.4 2.8-10.7 1.6-14.5 2.7s-27-1.7-29.4 1C46 126 53.8 116 59 112a28.4 28.4 0 0 1 6.7-3.8c2-.3 9.8-1.6 12.2-2.7h1.7a7.2 7.2 0 0 1 1.3 0c3 1.5 8.4 3.6 10.4 4.7s6.6 4.6 13.3 8.5 12 9.4 11.7 11.3a13 13 0 0 0 1 4 39 39 0 0 1-1.4 4.4z"/><path class="p10" d="M84.8 124.7c-1.6.6-8.6.8-10 1l-6.8 1-11.4-1.2a42.5 42.5 0 0 0-9.6-.3c-1.3.3-9 6.7-10.6 7s-2 1-8 5.6c2 0 6.5-3 7.4-3.4s10.2-6 12.6-7 5-.3 7 0c2.8.4 4.7 0 6.6.6 1.3.5 11.8-.7 13.8-1a42 42 0 0 1 5.4-.5 16.5 16.5 0 0 0 7.6-2.7c-1 .4-2.5.2-4 1z"/><path class="p6" d="M30.5 160.5c-1.2-.4-13 2.8-17.5-.8-6-5-13-18.2-13-18.2s12.4-4 14.4-1.2c.3.5 1 1.2 1.6 2.2 4 5 12.2 15.7 14.5 18z"/><path class="p16" d="M30.5 160.5s-4-1-5-2.3-3-3.8-4-4.6-5-4.5-5.3-5.2a12.2 12.2 0 0 0-4.2-2.8l4-3c4 5 12.2 15.6 14.5 18z"/><path class="p17" d="M118 126.4c-9.7-6-28.6-19-37-20.6a7 7 0 0 0-1.2 0h-2a36.7 36.7 0 0 0-12 2.6 28.6 28.6 0 0 0-6.8 3.8c-4 3-9.6 9.7-12.5 13.3l-1.8 2c-1.5 1.7-14 9.7-16 10.3h-.2c-1 .3-6 4-10.8 7a38 38 0 0 1-3.7 2 7.5 7.5 0 0 1-4.2 1c-4.2-1-9.8-6.2-9.8-6.2.2-1.3 2.6-16.3 6.2-18.6l7-5L40 97.7a43.5 43.5 0 0 1 4-2.6c5.8-3.3 15.8-8.6 20-9l3.3-.2c7.3 0 20.5 1.6 25 6.3 5 5.7 25.4 26.7 25.7 34.4z"/><path class="p2" d="M117.3 134.3a13 13 0 0 1-1-4c.3-2-4.8-7.6-11.5-11.4s-11.5-7.5-13.4-8.6S84 107 81 105.8c1.4-1 7 0 9.8 2.3s7 4.6 10.2 6.7 12 6.8 13.3 8 3.4 1.2 3.7 3.7a24.3 24.3 0 0 1-.7 8z"/><path class="p2" d="M118 126.4c-9.7-6-28.6-19-37-20.6a7 7 0 0 0-1.2 0h-2a36.7 36.7 0 0 0-12 2.6 28.6 28.6 0 0 0-6.8 3.8c-4 3-9.6 9.7-12.5 13.3l-1.8 2c-1.5 1.7-14 9.7-16 10.3h-.2c-1 .3-6 4-10.8 7h-.2a36.3 36.3 0 0 1-3.5 2 7.5 7.5 0 0 1-4.2 1c-4.3-1-9.8-6.2-9.8-6.2 0-1.2 2-13 5-17.4a4.5 4.5 0 0 1 1-1.2l7-5c9.6-7 25-19 27-20.4a43.5 43.5 0 0 1 4-2.5c5.8-3.3 15.8-8.6 20-9l3.3-.2c7.3 0 20.5 1.6 25 6.3 5 5.7 25.4 26.7 25.7 34.4z"/><path class="p5" d="M14.4 121c1.5 0 4.4 3.5 5 5.5s-1.5 9-1.6 10.3 1 3-.2 4.4-4.2 3.7-5.5 3.8-9-3.6-9-4.3 2.6-13 3.5-14 5.3-5.5 8-5.7z"/><path class="p2" d="M78.4 105.3a1.7 1.7 0 0 1-.5.4c-2.5 1-10.2 2.4-12.3 2.7h-.5c5.4-2.7 10-6.5 10-10a2 2 0 0 0-.2-1c-1.2-2.8-7-5-9.8-7.2-3-2.5-13 2.2-21.2 5 5.7-3.6 15.8-8.8 20-9.3l3.2-.2c1.5 1.4 2.5 3 3.3 3.3 1.7.6 5.8 4 8.8 7a4.8 4.8 0 0 1 1.5 4 9 9 0 0 1-2.4 5.3z"/><path class="p6" d="M284.5 197.8a26 26 0 0 1-3.5 1 11.7 11.7 0 0 1-2.3.7c-.5 0-5 .3-5.2 0s-1-.5-1.2-.6-2 .4-3-.2a12.4 12.4 0 0 1-2-3l5.4-3.5 6.5-3.7s7 2.8 7.2 4.8a4 4 0 0 1 0 1.3 6.4 6.4 0 0 1-2 3z"/><path class="p10" d="M286 195.4c-1.5-1.5-3.8-2.7-4.4-2.4a8.3 8.3 0 0 1-2.3.5c-.7.2-4.4-.3-4.8 0a21.4 21.4 0 0 1 2.3-2.4 4.6 4.6 0 0 1 1-.5 12.4 12.4 0 0 0 2-.4h.6l1.7.8 2.2 1.4a3.8 3.8 0 0 1 2 2 2 2 0 0 0 0 .5 6.3 6.3 0 0 1 0 .7z"/><path class="p2" d="M281 193.2a14 14 0 0 1-1.6 0l-1 .3c-.7 0-1.7 0-2-.2a6.8 6.8 0 0 0-1.5 0c-.3 0-1.5 1-1.8 1a3.7 3.7 0 0 0-1.3 1 4.2 4.2 0 0 0 1-.6c.3 0 1.8-1 2-1a2.2 2.2 0 0 1 1.2 0 8.3 8.3 0 0 1 1 0 14.8 14.8 0 0 0 2.3-.2 6.8 6.8 0 0 1 1 0 2.7 2.7 0 0 0 1-.5l-.5.2z"/><path class="p6" d="M272.3 199c-.2 0-2.2.5-3 0a12.4 12.4 0 0 1-2-3s2-.7 2.4-.3l.2.4c.5 1 2 2.6 2.3 3z"/><path class="p16" d="M272.3 199a2.7 2.7 0 0 1-.8-.4l-.7-.7-.8-1a2 2 0 0 0-.7-.5l.7-.5 2.3 3z"/><path class="p17" d="M286.4 193.4c-1.6-1-4.6-3-6-3.3h-.5a6 6 0 0 0-2 .6 4.6 4.6 0 0 0-1.2.6 16.5 16.5 0 0 0-2 2l-.3.5a16.7 16.7 0 0 1-2.6 1.6c-.2 0-1 .7-1.8 1a6.2 6.2 0 0 1-.6.4 1.2 1.2 0 0 1-.7.2 4.8 4.8 0 0 1-1.7-1c0-.3.4-2.7 1-3l1-1c1.7-1 4-3 4.5-3.2a7 7 0 0 1 .6-.4 12.4 12.4 0 0 1 3.3-1.5h.5c1.2 0 3.3.2 4 1s4 4.2 4.2 5.4z"/><path class="p18" d="M286.3 194.7a2 2 0 0 1 0-.6 3.8 3.8 0 0 0-2-1.8l-2.2-1.4-1.5-.7a2 2 0 0 1 1.5.5l1.7 1 2 1.3a1 1 0 0 1 .7.6 4 4 0 0 1 0 1.3z"/><path class="p2" d="M286.4 193.4c-1.6-1-4.6-3-6-3.3h-.5a6 6 0 0 0-2 .6 4.6 4.6 0 0 0-1.2.6 16.5 16.5 0 0 0-2 2l-.3.5a16.7 16.7 0 0 1-2.6 1.6c-.2 0-1 .7-1.8 1a6 6 0 0 1-.6.4 1.2 1.2 0 0 1-.7.2 4.8 4.8 0 0 1-1.6-1 9.7 9.7 0 0 1 .8-3 .7.7 0 0 1 .2 0c0-.2.5-.5 1-1 1.6-1 4-3 4.4-3.2a7 7 0 0 1 .7-.4 12.4 12.4 0 0 1 3.2-1.5h.5c1.2 0 3.3.2 4 1s4 4.2 4.2 5.4z"/><path class="p10" d="M269.7 192.6a1.5 1.5 0 0 1 .8 1 7.4 7.4 0 0 1-.3 1.5 1 1 0 0 1 0 .8 2 2 0 0 1-1 .6 4.7 4.7 0 0 1-1.3-.7 12 12 0 0 1 .4-2.2 3.2 3.2 0 0 1 1.3-1z"/><path class="p12" d="M280 190a12.4 12.4 0 0 1-2 .5h-.2a2.6 2.6 0 0 0 1.7-1.6.3.3 0 0 0 0-.3 5.3 5.3 0 0 0-1.6-1.2c-.6-.4-2.2.4-3.6.8a12.3 12.3 0 0 1 3.3-1.5h.5a3 3 0 0 0 .5.6 6.5 6.5 0 0 1 1.5 1 .8.8 0 0 1 .2.7 1.4 1.4 0 0 1-.4 1z"/><path class="p10" d="M412 144L391 160.5c-3 2.3-16.8 2.8-16.8 2.8l-35.7 9s-4.8.3-9.8.2h-.6c-4.3 0-8.6-.2-10.2-1-3.7-1.7-18-35.2-18-35.2l-4.3-21.4-.3-1.7 93.7 8 3 3z"/><path class="p19" d="M412 144s-19.8-7.8-22.7-12S379 99 379 99l11.3-8.2 6 10.2 1.2 12 10.8 13z"/><path class="p6" d="M321.4 155.5c-.5 2.6 4.7 12 7 17.2h-.5c-1.7-1.5-6.3-10.2-6.8-11.7a89.5 89.5 0 0 0-5.5-10.3h.3c1.4.3 6.2 1.4 5.4 4.8z"/><path class="p6" d="M328 172.6c-4.3 0-8.6-.3-10.3-1-3.6-1.7-18-35.2-18-35.2l-4-21.4c2.4 7.7 18.2 32.5 19 33.8a11.4 11.4 0 0 0 1.3 1.8h-.3a83.5 83.5 0 0 1 5.5 10.4c.5 1.5 5 10.2 6.7 11.6z"/><path class="p5" d="M295.2 113.2c.3-3 17-21.6 18-22.5S326 88 326 88s41-.3 42.3-.7l15.8-4 6.3 7.6-1.5 18 6.4 6-6 17-8 4.3s-54.3 20.4-58 19.5-8-5.6-8.7-7-19.7-31.4-19.3-35.6z"/><path class="p20" d="M330.2 177.6l.4 1.7a4.7 4.7 0 0 1-.4-1.7z"/><path class="p10" d="M388.8 109s-5 9.5-6 11-1.8 9-1.8 9 .8-5.4 2.6-7.6 7-11 7-11z"/><path class="p5" d="M295.2 113.2s2 7.2 2.4 8 10 18.7 11.4 21a72 72 0 0 0 7 9.3c2 1.8 5.7 5.3 9.2 5.3s44.8-15.5 47.2-17 7.2-1.7 9-3.6a132.5 132.5 0 0 0-14.6 4.5c-8.2 3-35.6 12.2-37.2 12.6s-7.3 1.3-8.6.2-5-4.6-6-6.6-13.8-20.7-14.4-22.8-5.4-11-5.4-11z"/><path class="p10" d="M300 117.4c-2.8-5 10.3-16.8 13-19.5s14.8-5 16.2-5.6 4 1.6 4 3.5-4.8 13-6 14.8.6 8.7 1 11 6.5 8 8.8 7.8 13.7 1.6 13.7 1.6 3.6 4.3 10.8 2.7a108.8 108.8 0 0 0 15.5-5l-12.8 10c-2 1.5-19 5.6-22.3 5.7s-11 6.8-16.6 4-24-28.4-25.5-31.3z"/><path class="p6" d="M403.8 144.6l-15 14.4s-9-.7-12.3 0-11 3.7-15 4c0 0 7-4.2 9.4-8 4.2-.3 12.7 1.5 14.7.6s12.5-10.4 14.5-11.3a3.7 3.7 0 0 1 3.6.3z"/><path class="p10" d="M73.2 184.3l-2.7 2a6.5 6.5 0 0 1-2 .4l-4.5 1h-1.3a4.2 4.2 0 0 1-1.2 0c-.5-.2-2.2-4.4-2.2-4.4l-.5-2.6v-.2l11.5 1 .4.3z"/><path class="p9" d="M73.2 184.3a11 11 0 0 1-3-1.5 33.2 33.2 0 0 1-1-4l1.3-1 .7 1.2.2 1.5 1.3 1.6z"/><path class="p2" d="M62 185.7a8 8 0 0 0 1 2h-.3a8 8 0 0 1-.8-1.3 11 11 0 0 0-.8-1.3c.3 0 .8.3.8.7z"/><path class="p6" d="M62.8 187.8a4.2 4.2 0 0 1-1.3 0c-.5-.3-2.2-4.5-2.2-4.5l-.5-2.6A40.2 40.2 0 0 0 61 185a1.4 1.4 0 0 0 .3 0 10.3 10.3 0 0 1 .7 1.4 7.4 7.4 0 0 0 .8 1.4z"/><path class="p2" d="M58.7 180.5a16.7 16.7 0 0 1 2.2-2.8 10.8 10.8 0 0 1 1.5-.3h5.2l2-.6.8 1-.2 2 .8 1-.7 2-1 .5s-6.7 2.5-7.2 2.4a2.3 2.3 0 0 1-1-.8c0-.3-2.3-4-2.3-4.5z"/><path class="p20" d="M63 188.4v.2a.6.6 0 0 1 0-.2z"/><path class="p10" d="M70.3 180l-.8 1.3a5.6 5.6 0 0 0-.2 1 2.5 2.5 0 0 1 .3-.8l1-1.4z"/><path class="p21" d="M58.7 180.5l.3 1 1.4 2.6a9 9 0 0 0 1 1.2 2 2 0 0 0 1 .7 58 58 0 0 0 5.8-2.2 6.7 6.7 0 0 0 1.2-.5 16.4 16.4 0 0 0-1.8.6l-4.6 1.4a2 2 0 0 1-1 0 4.6 4.6 0 0 1-1-.8l-1.6-2.8-.7-1.3z"/><path class="p10" d="M59.3 181c-.3-.6 1.3-2 1.6-2.4a7.7 7.7 0 0 1 2-.7.5.5 0 0 1 .4.3 8.8 8.8 0 0 1-.7 2 3.5 3.5 0 0 0 0 1.2 2 2 0 0 0 1.2 1 12.7 12.7 0 0 1 1.6.2 1.4 1.4 0 0 0 1.3.4 13.4 13.4 0 0 0 1.8-.5l-1.5 1.2a12 12 0 0 1-2.8.7c-.4 0-1.3 1-2 .5s-3-3.6-3.2-4z"/><path class="p6" d="M72 184.3l-1.7 1.8a9.7 9.7 0 0 0-1.5 0 18.6 18.6 0 0 1-2 .6 4.5 4.5 0 0 0 1.3-1 14.2 14.2 0 0 0 2 0c.2 0 1.4-1.2 1.7-1.3a.5.5 0 0 1 .4 0zm-34.6-3.7a11 11 0 0 1 2.3 1.6l.4 5 .6 6-1 2.3L38 197l-11.6-1.3-4.6.7-1-1-1.8.4-1.5-1.8a9 9 0 0 1 1.2-2.7l6.2-5.6c.6-.8 4.7-.4 5-.6.6.2 2 .2 2 .2l.5-.6s4.7-4 5-4z"/><path class="p2" d="M37.4 180.6a11 11 0 0 1 2.3 1.6 41.4 41.4 0 0 1-2 4.2c-.4.4-3 1-3.8 1.6l-5.4 4.6-7.8 2.8-1.8.4-1.5-1.7a9 9 0 0 1 1.2-2.7l6.2-5.6c.6-.8 4.6-2 5-2.2h2.3l.5-1c0-.3 1.5-1 3-1.4.8 0 1.5-.4 1.6-.4z"/><path class="p10" d="M30 183.5h2.3l-.7 1.5a5 5 0 0 1-.6 1c-.3.2-1.2 1.4-1.3 1.6s-1.8 1-2 1l1.3-1 1-2.3z"/><path class="p22" d="M35.7 181.2l-2.6 1.4a5.4 5.4 0 0 0-.3 1.2 16 16 0 0 1-1 1.3l.7-1.3.4-1.2c0-.2 1.5-1 3-1.3z"/><path class="p10" d="M40 187.2l.6 6-1 2.3L38 197l-11.5-1.3 7.7-1.3 3.8-2 2-5.3z"/><path class="p9" d="M39.6 195.5a28 28 0 0 0 .2-3 4.5 4.5 0 0 0-1-2l-1-4 2-4.2.8 11z"/><path class="p10" d="M18.2 193.7l-.7.4L19 196l3 .5-.5-1-3.3-1.6z"/><path class="p22" d="M25 185.7L24 187l-4 3.3-1 1.4a10.2 10.2 0 0 0-1 2l-.7.4a9 9 0 0 1 1.2-2.7l6.2-5.6z"/><path class="p10" d="M21.5 195.2l.4 1-3-.4a17 17 0 0 1-.8-2c0-.2 3.3 1.4 3.3 1.4z"/><path class="p6" d="M192.6 147c-.6 2 13.5 15.7 13.5 15.7l39.3 2 49 2.3 17-7.5 11.7-11.8-13.2-83.2 4-33.3L306 24l3-13.7L294.8 0C286.2 2.8 277 6 273 9.3s-36.7 40.4-43 46c-6.4 5.4-2 34.6-3.6 37.4.8 3.5 1.5 13.6 1.5 13.6s-2 2-4.3 4-30.6 34.7-31 36.7z"/><path class="p5" d="M192.6 147c-.6 2 13.5 15.7 13.5 15.7 1.6-.3 30.4-13.2 33-15.4s7.5-22 11.7-27.3S281 85.5 286 80.4 306 24 306 24l3-13.7L294.8 0C286.2 2.8 277 6 273 9.3s-36.7 40.4-43 46c-6.4 5.4-14.8 34.6-16.3 37.4v.6c.2.4.2.8.3 1.3l.2 1.2c0 1.2.3 2.6.5 4l.6 4.2.2 2 .5 3.4s-7.5 2.5-9.7 3.6c-1.7-.5-6.2 11.3-9.6 21.2l-4.2 12.8z"/><path class="p10" d="M213.7 92.7v.6l.3 1.3.2 1.2.5 4 .6 4.2.2 2 .5 3.4s5.6-2.7 10.5-5.4c3.2-1.7 6-3.5 7-4.5 2.4-2.6 12-9 13-10s7.6-13 8-13.7l-9 8.8L228 92z"/><path class="p10" d="M196.7 134.2c3.2-5.3 9.4-17.6 10.4-19 1.3-1.5 7.2-2 10-3.4s5.3-5 9.5-7.8c-5 2.7-10.5 5.4-10.5 5.4s-7.6 2.5-9.8 3.6c-1.6-.6-6 11.3-9.5 21.2z"/><path class="p19" d="M245.3 164.6l49 2.4 17-7.5 11.7-11.8-13.2-83.2-8.2 56.2-15 28-41.3 16z"/><path class="p23" d="M311.3 159.5c-9.6.6-17.8 2.5-23.2 2s-9.5-2.7-16.4-7l-32.6-7.2-33 15.4 88.3 4.3z"/><path class="p6" d="M292 5l2.8-5L309 10.3l5 21-9.5-2.6S291.5 5.4 292 5z"/><path class="p2" d="M230 55.3l11.2-5 24.5-29.8 11-7S289.4 5 292 5l2.8-5c-8.6 2.8-17.6 5.8-21.7 9.3s-36.7 40.4-43 46z"/><path class="p10" d="M304.4 28.7l9.5 2.5-5-21c-1-.3-14.8-5-17-5-.6.2 12.4 23.5 12.4 23.5z"/><path class="p5" d="M265 83.2l14.8-17.8L291 42l1.7 2.8-3 14-12.4 20.7-12.4 3.7z"/><path class="p5" d="M295 22l4 6.3-2 9-3.3 8-5 7-1-6.6 5.7-11.4L295 22zM183 182l-45.2-8a2 2 0 0 1-.5-.7c-.7-2.6-6.3-10.7-6.4-13a3 3 0 0 1 0-.7c.2 0 1 0 2.5-.4 9.3-1.6 40.6-7.7 42-6.6a19.5 19.5 0 0 1 2 4.4c1 2 1.7 4 2.5 6.5 2.4 7 4.5 15.4 3 18.5z"/><path class="p2" d="M199.4 94l6 5.5L232 123s5.7 17 3.8 20.4-19.8 3-19.8 3l-3.2.5c-1.2 0-2.7.3-4.3.6-6.7 1-15.7 2.5-17 3.6-2.2 1.7-6.6 10.5-10.6 12.2a24 24 0 0 1-5.2.7c-11.6.8-36.6.4-36.6.4l-8-4.7 4-25 9.8-21S160 99 168.4 96.3C177 93.6 194 90 194 90s3.4 2.4 5.4 4z"/><path class="p6" d="M231.6 179.4l-12.2 2.6c-1.8-2-15-18-14.4-23a46.8 46.8 0 0 1 3.3-11.5 18.4 18.4 0 0 1 3-5c2.2-2.3 13-11 13-11 4.3 3.8 11 9.2 11.3 12 .3 2.5-2.8 34.6-4 36z"/><path class="p2" d="M145 113.6l4.6 10.4-10.7 14-7.4 20-.7 1.7.2-2 3.2-22 10.5-22z"/><path class="p2" d="M175 164h-1a8.6 8.6 0 0 0-1 0l-4 .2h-1.4c-10 .4-26 1-28.7 0a36 36 0 0 1-8-4 3 3 0 0 1 0-.7l.2-2 .3.2 2 1.4 5.5 4 11.6.6c2 .3 21.5.4 24.5.5z"/><path class="p5" d="M189.8 141l-8-22 6.3-4.6 2-3.6 4-2.7 5.3-3.8 3.7-3 21 26 .3 4.4-13 10.8L195 144l-5-3z"/><path class="p2" d="M202 101c-3.6 3.3-11.7 8.4-13 11-.8 1.7-4.4 4.3-8.3 6.7-2 1.3-29.5 4.3-31 5.3 0 0 28.8-3.4 32.2-5 3-1.6 6.2-3.3 6.4-3.8l1.4-2.8a2.8 2.8 0 0 1 1.4-1.8c1-.3 11.6-8.4 11.6-8.4z"/><path class="p6" d="M194 90c15.6 7.6 37.8 33 37.8 33s5.7 16.8 3.8 20.4l-11.3-12z"/><path class="p10" d="M219.4 182H183c-3-2.5-6.6-12.7-7.5-18-.3-1.6 11.4-22.2 14.3-23 4-1.3 21.4 1.4 21.4 1.4a24.7 24.7 0 0 1 1.4 4.4c2.6 10.3 7.7 34.2 6.8 35.2z"/><path class="p5" d="M238.5 123.8c-6.4 7-7 46.5.5 53 11.4 2.2 41.8-15.3 41.8-15.3l-7.4-26.6z"/><path class="p10" d="M333.7 144c.4 5-5.4 19.6-13.3 25.4a66.4 66.4 0 0 1-7.6 4.6c-8.5 4.6-19.8 9-28.5 10.7-5.3 1-41.6-5.4-45.3-8-1-3 15.7-8 15.7-8s5.5-17.5 7.8-18 52.4-30 60-27.6c3.7 2.7 10.8 16 11.2 21z"/><path class="p2" d="M322.5 123.2s-5 10.5-7.3 12.4c-9.2 7-46 13-52 15l-.7.2-24-27s20.7-18.7 24.5-21.2a4 4 0 0 1 2-.4c11.5-.3 57.5 21 57.5 21z"/><path class="p10" d="M244 121.5c1.2-1.4 13-10.7 15-13.2s5.2-5 6-6a4 4 0 0 0-2 .3c-4 2.5-24.6 21.2-24.6 21.2s15.7 21.5 24 27c.4 0 .6-1 .3-1.4-.6-1.4-3.6-4.4-5-5.5-1.8-1.6-13.4-16-14.7-18s-.2-3 1-4.5z"/><path class="p6" d="M312.8 174c-8.5 4.5-19.8 9-28.5 10.7-5.3 1-41.6-5.4-45.3-8-1-3 15.7-8 15.7-8s39.7 7.8 44.3 8c4 .3 10.5-2 13.8-2.7z"/><path class="p10" d="M351 178c-1.5 1.7-1.6 11 0 12.5 2.8.5 9.8-3.6 9.8-3.6l-1.7-6.3z"/><path class="p6" d="M373.2 182.8a9.4 9.4 0 0 1-3 6 15.5 15.5 0 0 1-2 1 26.3 26.3 0 0 1-6.5 2.5c-1.3.2-9.7-1.3-10.6-1.8 0-.8 3.8-2 3.8-2s1.3-4 1.8-4 12.2-7 14-6.5a10.7 10.7 0 0 1 2.6 4.8z"/><path class="p2" d="M370.6 178a14 14 0 0 1-1.7 3c-2.3 1.5-11 3-12.3 3.4L351 178s4.8-4.3 5.7-4.8a1 1 0 0 1 .5 0c2.6-.2 13.4 4.8 13.4 4.8z"/><path class="p12" d="M352.3 177.6l3.5-3 1.4-1.5a1 1 0 0 0-.5.2c-1 .5-5.7 5-5.7 5s3.7 5 5.6 6.2v-.3a6 6 0 0 0-1-1.2c-.5-.4-3.2-3.7-3.5-4.2a.8.8 0 0 1 .3-1z"/><path class="p9" d="M368.3 189.8a26.3 26.3 0 0 1-6.6 2.5c-1.3.2-9.7-1.3-10.6-2 0-.6 3.8-1.7 3.8-1.7s9.2 1.8 10.3 2a16.8 16.8 0 0 0 3.3-.8z"/><path class="p6" d="M100.6 186l2.4 4.4 2.3 1.6 5.7 2 5.4.8-3.7-9.8-12 1z"/><path class="p2" d="M107.5 171.5s-3 4-3.2 5-3.6 4-3.6 4l8.8 3.4v-3.7l3-2.4-.4-4 1.4-3.2z"/><path class="p10" d="M130 179.8l-11.4-1.5-6-.5-.5-4 1.5-3 2.4-1 5 .8 5 2.6 4 6.6z"/><path class="p10" d="M130 179.8l-.2 1-1 6a2.8 2.8 0 0 1-.8 1.6l-4.8 4.7-6.7 1.8-5.6-.7-1.3-5.6v-.5l-.5-2.3v-.3l-.3-1.8-.5-1.6 1-1.8 3.2-2.4 6 .5 5 .7zm-29.3.6L99 184l6.7 1.5h8l-1.4-1.7-3.3-.8-.5-1-7.8-1.6z"/><path class="p6" d="M113.8 185.4l-.3 2.2v.3l-8 1-5-3-1-1.5-.5-.6 6.6 1.5h8.2zm-1.5-1.6l12.7.3 5-4.2-7.2-4.3-10 2.3-3.3 2.4-1 1.8.5 1 3.3.8z"/><path class="p9" d="M130 179.8l-.2 1-1 6a2.8 2.8 0 0 1-.8 1.6l-4.8 4.7 2-9z"/><path class="p12" d="M113.8 185.4h-1l-5.3.3-2 .2-.8-.3-4.8-1.2a2 2 0 0 0-.6 0l-.4-.6 6.7 1.5h8z"/><path class="p6" d="M121 170.6l1.8 5 2.2 8.4 5-4.2-4-6.6-5-2.6z"/><path class="p12" d="M122.6 175a9.2 9.2 0 0 1-1.5 1l-3.7.6-4.6 1.2a20.4 20.4 0 0 0 2.2-.2c.3-.2 2.5-.7 2.7-.7l3-.5a12.8 12.8 0 0 0 2-.6.5.5 0 0 0 0-.5z"/></g><g class="ruby" transform="translate(10-200)"><animateTransform attributeName="transform" type="translate" values="10-200;10-180;10-200" dur="7s" repeatCount="indefinite" keyTimes="0;.5;1" keySplines=".5 0 .5 1;.5 0 .5 1" calcMode="spline"/><g><animateTransform attributeName="transform" type="rotate" values="2.5 62.675 54.295;-2.5 62.675 54.295;2.5 62.675 54.295" dur="4s" repeatCount="indefinite" keyTimes="0;.5;1" keySplines=".5 0 .5 1;.5 0 .5 1" calcMode="spline"/><path class="r4" d="M82 108.2l-2.6-18.7-26-13.2L22.6 72 18 96l43 12.8 21-.4z"/><path class="r1" d="M4.8 44.5l20 28.7 28.6 3 25 13.3 32.7-23L122 33.6 93.2 2.3 53.2 4 12.7 19l-8 25.5z"/><path class="r2" d="M18 95.8L24.6 73h-10l-12 9.3L18 96z"/><path class="r3" d="M4.8 44.5L0 63.5l2.8 18.8 10.3-2 11.7-7-20-28.8z"/><path class="r5" d="M125.3 65.6l-13 27.5L82 108.3l-3-16.6-.6-2 20.8-26.8 22.6-29 2.6 23.6z"/><path class="r6" d="M53.4 76.3l8-44L4.7 44.5l20 28.7 28.6 3z"/><path class="r7" d="M93.2 2.3l-32 30S34.7 43.7 31.8 43.7l-27 .8 8-25.5L53.3 4z"/><path class="r8" d="M30 9.5c7.6-3 23.6-8.8 29-8.2C61 1.5 75 0 81.2 0c9.6.3 12 2.3 12 2.3s-28.3 4-34 4.2S31 14 29 15s-16 4-16 4S27 10.8 30 9.5z"/><path class="r2" d="M63 81.4c4 1.5 12.7 5 14 5s4-4 6.3-6S99 62 101.3 59.7L90.4 76s-5.4 9-7 11c-1.6 1.8-3.6 6-5.6 4.2S64.5 83.4 63 81.4z"/><path class="r9" d="M124.4 65.6l-13 27.5L81 108.3c5.2-4 24-15 25-16.5s10.3-14.4 11.3-17.6 5.4-9 5.7-12c0-1.3.3-3 .5-4.6z"/></g></g><g class="gold" transform="translate(140-120)"><animateTransform attributeName="transform" type="translate" values="140-120;140-130;140-120" dur="5s" repeatCount="indefinite" keyTimes="0;.5;1" keySplines=".5 0 .5 1;.5 0 .5 1" calcMode="spline"/><g><animateTransform attributeName="transform" type="rotate" values="0 64.475 54.96;-2.5 64.475 54.96;2.5 64.475 54.96;0 64.475 54.96" dur="3s" repeatCount="indefinite" keyTimes="0;.25;.75;1" keySplines="0 0 .5 1;.5 0 .5 1;.5 0 1 1" calcMode="spline"/><path class="g2" d="M124.5 63c-2.4 3.6-19 13.5-21.3 15.6s-10 9.8-13.7 11.3-33 14.7-35.6 14.6-8.5-1.6-10-1.6-13.3 8.7-19.7 6.6c-8.7-3-22-14.5-22-14.5L29 56.6l34.6-42s55.8 0 62.4 13.5a28.6 28.6 0 0 1 2.6 9.2c1.6 11.3-2.3 23-4 25.8z"/><path class="g3" d="M129 42.5c-14.8-6-33.4-8.3-36.7-4.5-4.8 5.5-11.2 6.4-15 9.2S47 56.7 45.5 60.7c1-2.3 5.2-16.5 9.2-23a33.5 33.5 0 0 1 5.8-7c2.2-1.4 10.2-6 12.3-8.3l2-1a8.6 8.6 0 0 1 1.5-.3c4 .3 10.7.4 13.4.8S99 24 108 25.4s17.2 5.4 17.8 7.7a15.2 15.2 0 0 0 2.7 4 46.2 46.2 0 0 1 .4 5.5z"/><path class="g2" d="M88.6 40.4c-1.5 1.3-9 4.6-10.4 5.4l-7.2 4c-4 1-11.3 3.2-13 3.4A50.2 50.2 0 0 0 47 57c-1 1-6.8 11.3-8.5 12.4s-1.8 1.8-6.4 9.4c2.4-1 6-6 6.7-6.8s8.7-11 11-13 5.3-2.6 7.7-3c3.3-1 5-2 7.5-2.3 1.5 0 12.7-5.8 14.8-7a49.7 49.7 0 0 1 5.7-3 19.5 19.5 0 0 0 7-6c-.7.7-2.5 1.3-4 2.7z"/><path class="g4" d="M44 103c-1.5 0-13.3 8.7-19.7 6.6-8.8-3-22-14.5-22-14.5s12-9.5 15.4-7.4l2.7 1.7c6.4 4 20 12.2 23.6 13.8z"/><path class="g5" d="M44 103s-4.8.4-6.5-.4-5-2.8-6.4-3.4-7.2-3-8-3.4a14.5 14.5 0 0 0-5.8-1.3l3.2-5.2c6.3 4 20 12.2 23.6 13.7z"/><path class="g6" d="M126 28c-13.3-2.5-39.7-8.7-49.5-7a8.2 8.2 0 0 0-1.5.5c-.3 0-.7.2-1 .4l-1 .3a43.4 43.4 0 0 0-12.3 8.2 34 34 0 0 0-5.8 7c-3.2 5.2-6.5 15-8.2 20-.5 1.6-1 2.7-1 3.2-1 2.3-11.4 16.5-13.5 18-1 .8-5 7-9 12.2a45 45 0 0 1-3 3.7c-1.7 1.6-3 2.7-4.4 3-5.2.6-13.5-2.7-13.5-2.7-.3-1.5-4-19-1-23.2.4-1 2.5-4.2 5-8.4 7.6-11.8 19.7-31.4 21-34a51.5 51.5 0 0 1 3.4-4.3C35.7 19 44.5 9 49 6.6c1-.5 2-1 3.4-1.5C60.6 1.8 76-2 83 1.3c8 4 39.4 18.4 43 26.7z"/><path class="g7" d="M128.6 37a15.2 15.2 0 0 1-2.7-4c-.7-2.2-8.8-6.2-18-7.6s-15.6-3.2-18.3-3.6-9.4-.5-13.3-.7c1.2-1.4 7.6-3 11.7-1.5s9.7 2 14.2 3 16.2 2.3 18 3 4.3 0 5.7 2.5a28.7 28.7 0 0 1 2.6 9z"/><path class="g7" d="M126 28c-13.3-2.5-39.7-8.7-49.5-7a8.2 8.2 0 0 0-1.5.5c-.3 0-.7.2-1 .4l-1 .3a43.4 43.4 0 0 0-12.3 8.2 34 34 0 0 0-5.8 7c-3.2 5.2-6.5 15-8.2 20-.5 1.6-1 2.7-1 3.2-1 2.3-11.4 16.5-13.5 18-1 .8-5 7-9 12.2l-.3.3a43 43 0 0 1-3 3.5c-1.6 1.6-3 2.7-4.3 3-5 .6-13.4-2.7-13.4-2.7C2 93.7-1 79.8.3 73.8a5.3 5.3 0 0 1 .8-1.8c1-1.2 3-4.4 5.6-8.6 7.5-11.8 19.6-31.4 21-34a51.5 51.5 0 0 1 3.3-4.3C35.7 19 44.5 9 49 6.6c1-.5 2-1 3.4-1.5C60.6 1.8 76-2 83 1.3c8 4 39.4 18.4 43 26.7z"/><path class="g3" d="M9.4 66.3c1.6-.8 6.4 2 7.8 4s2.2 10.5 2.6 12 2.5 3 1.7 5-3 5.8-4.5 6.4-11.4 0-12-.8-2.5-15.5-2-17 3.6-8.4 6.4-9.7z"/><path class="g7" d="M73.3 21.7a2 2 0 0 1-.5.6c-2 2.2-10 7-12.2 8.2l-.6.3c4.8-5.3 8-11.5 6.8-15.2a2.5 2.5 0 0 0-.7-1c-2.3-2.7-9.6-2.7-13.7-4C47.8 9.2 39 18.6 31 25 35.7 19 44.5 9 49 6.6c1-.5 2-1 3.4-1.5 2.3 1 4 2.3 5 2.2 2.2-.2 8 2 12.7 4a5.7 5.7 0 0 1 3.3 3.6 10.6 10.6 0 0 1-.3 7z"/></g></g><g class="tourmaline" transform="translate(275-225)"><animateTransform attributeName="transform" type="translate" values="275-225;275-205;275-225" dur="11s" repeatCount="indefinite" keyTimes="0;.5;1" keySplines=".5 0 .5 1;.5 0 .5 1" calcMode="spline"/><g><animateTransform attributeName="transform" type="rotate" values="-2.5 61.925 51.855;2.5 61.925 51.855;-2.5 61.925 51.855" dur="5s" repeatCount="indefinite" keyTimes="0;.5;1" keySplines=".5 0 .5 1;.5 0 .5 1" calcMode="spline"/><path class="t1" d="M19.5 16.3c-10 5.7-24.4 52-18 62C14.2 85 55.8 75 55.8 75l.6-33.6z"/><path class="t2" d="M123.6 73c-1.3 6-13.2 21-24.4 25a81 81 0 0 1-10.6 2.8c-11.5 2.3-26.2 3.5-37 2.5-6.5-.7-46.6-20.8-50-25 0-4 21-4 21-4S35.3 56 38.2 56s71.7-16.6 79.8-11c3.4 4 7 22 5.8 28z"/><path class="t3" d="M117.8 45s-9.4 10.4-13 11.8c-13 5-58.2-1-66-.7h-.6L19.4 16.4S50.2 1.6 55.5 0a5 5 0 0 1 2.5.3C71.5 4 117.8 45 117.8 45z"/><path class="t3" d="M26.8 15.5c2-1.2 18.7-8 22-10.2s7.8-3.8 9.2-5a5 5 0 0 0-2.4-.2c-5.4 1.6-36 16.3-36 16.3S30.3 46.8 38 56c.6.3 1-.7 1-1.3-.3-2-2.8-6.4-4-8.2-1.5-2.5-10-23.3-11-26s.8-3.8 2.8-5z"/><path class="t4" d="M88.6 100.8c-11.5 2.4-26.2 3.6-37 2.5-6.5-.6-46.6-20.8-50-25 0-4 21-4 21-4s43.7 23 49 25c4.5 1.6 13 1 17 1.5z"/></g></g></svg>
